<?xml version="1.0" standalone="no"?>
<!DOCTYPE svg PUBLIC "-//W3C//DTD SVG 20010904//EN"
 "http://www.w3.org/TR/2001/REC-SVG-20010904/DTD/svg10.dtd">
<svg version="1.0" xmlns="http://www.w3.org/2000/svg"
 width="944.246346pt" height="1505.554442pt" viewBox="0 0 944.246346 1505.554442"
 preserveAspectRatio="xMidYMid meet">

<g transform="translate(-541.840947,1754.865661) scale(0.100000,-0.100000)"
fill="#000000" stroke="none">
<path d="M12996 17510 c-143 -84 -285 -209 -681 -599 -216 -214 -327 -315
-480 -436 -27 -22 -101 -84 -164 -138 -102 -87 -134 -108 -281 -181 -245 -121
-457 -275 -596 -432 -149 -168 -197 -226 -277 -336 -236 -325 -393 -639 -546
-1093 -217 -646 -257 -738 -399 -918 -30 -38 -88 -96 -130 -130 -194 -154
-279 -260 -412 -512 -137 -259 -252 -367 -565 -530 -71 -38 -161 -86 -198
-107 -38 -21 -71 -38 -73 -38 -8 0 -242 -145 -319 -198 -235 -162 -431 -324
-659 -543 -314 -302 -589 -649 -796 -1004 -35 -60 -93 -159 -128 -220 -57 -97
-147 -275 -259 -515 -137 -292 -292 -738 -379 -1090 -100 -406 -117 -485 -149
-695 -8 -55 -19 -127 -25 -160 -14 -92 -38 -314 -50 -465 -15 -181 -15 -840
-1 -1015 24 -291 34 -391 61 -610 9 -78 20 -146 70 -425 41 -228 69 -350 155
-665 79 -292 88 -341 116 -633 40 -434 188 -773 437 -1001 178 -163 345 -247
602 -303 94 -20 117 -21 2380 -24 1327 -2 2308 0 2341 5 194 32 333 219 333
451 0 132 -48 243 -153 350 -90 91 -192 143 -346 176 -118 25 -523 25 -697 0
-161 -23 -297 -19 -327 8 -42 38 -31 72 135 412 170 350 240 543 283 784 42
235 42 683 0 955 -40 260 -121 566 -262 995 -150 458 -193 640 -203 864 -8
168 7 332 42 469 26 105 40 141 53 133 4 -3 11 -103 14 -223 6 -204 12 -255
56 -503 22 -124 130 -523 211 -775 85 -266 111 -361 195 -690 74 -297 117
-625 154 -1195 27 -398 41 -556 61 -670 15 -88 88 -340 105 -367 16 -24 24
-26 198 -48 135 -17 203 -41 304 -108 94 -63 169 -140 226 -235 127 -210 140
-413 39 -635 -24 -54 -32 -81 -25 -88 23 -23 102 -29 418 -29 457 0 504 9 592
118 78 94 103 160 103 266 0 143 -55 270 -166 382 -112 113 -263 163 -490 164
-92 0 -99 4 -158 84 -57 76 -129 240 -156 356 -73 317 -111 1686 -70 2580 24
509 46 824 75 1050 37 286 98 629 145 810 5 19 16 64 25 100 61 241 167 563
262 793 44 109 51 126 150 342 147 322 256 596 300 755 56 203 66 269 66 420
0 193 -20 283 -139 635 -169 496 -188 566 -219 784 -35 244 0 471 103 673 82
162 295 311 482 338 35 5 121 7 190 3 112 -5 131 -3 180 16 65 25 70 25 70 8
0 -26 35 -44 93 -51 70 -8 107 -29 107 -62 0 -30 11 -30 37 -1 17 21 32 25
111 30 184 12 256 82 292 282 17 94 17 95 37 101 53 18 144 68 180 99 48 41
71 92 83 188 l9 71 70 68 c148 143 123 245 -114 467 -179 169 -257 268 -288
366 -9 28 -21 115 -27 194 -13 170 -25 210 -94 316 -29 44 -56 86 -60 93 -12
20 30 95 94 165 87 94 191 158 328 198 34 11 44 29 14 29 -30 0 -123 -30 -177
-58 -98 -49 -212 -151 -264 -234 -12 -21 -26 -38 -31 -38 -12 0 -28 23 -35 53
-5 17 -17 32 -31 37 -47 18 -15 113 49 147 17 8 77 57 132 107 55 50 128 114
160 142 33 29 57 55 53 59 -12 12 -130 -78 -310 -237 -36 -32 -72 -58 -81 -58
-9 0 -28 -20 -43 -45 -28 -48 -45 -55 -66 -27 -7 9 -22 22 -32 28 -36 19 -41
39 -27 96 25 103 44 164 67 216 13 29 24 55 24 58 0 3 27 48 60 101 33 52 60
98 60 102 0 3 -16 -12 -35 -34 -46 -53 -50 -58 -58 -75 -4 -8 -21 -37 -37 -65
-17 -27 -33 -57 -36 -65 -3 -8 -12 -28 -20 -45 -7 -16 -27 -69 -45 -117 -17
-49 -37 -88 -44 -88 -16 0 -606 298 -696 351 -102 61 -114 82 -114 199 1 94
19 183 76 383 62 211 109 503 109 671 0 113 -2 133 -21 163 -46 74 -113 81
-213 23z m968 -2475 c19 -14 21 -25 42 -263 8 -84 23 -114 47 -93 22 18 49 6
71 -29 14 -25 15 -34 6 -45 -14 -17 -76 -20 -85 -5 -3 6 -18 10 -33 10 -38 0
-102 39 -127 77 -12 17 -43 82 -70 144 -27 63 -57 126 -68 142 -10 15 -17 33
-14 40 10 30 196 48 231 22z"/>
<path d="M14521 16305 c-80 -46 -153 -109 -236 -205 -74 -85 -275 -357 -275
-373 0 -22 22 -22 38 1 7 9 27 38 45 64 203 293 268 367 397 458 81 58 105 80
83 80 -5 0 -28 -11 -52 -25z"/>
<path d="M13733 13097 c-23 -34 -85 -164 -123 -257 -12 -30 -26 -64 -31 -75
-14 -34 -50 -146 -70 -220 -21 -78 -25 -130 -9 -120 6 3 10 17 10 30 0 14 6
42 14 62 7 21 21 63 30 93 10 30 21 64 26 75 4 11 18 45 30 75 12 30 38 88 56
128 19 41 34 75 34 77 0 5 48 112 61 137 21 41 1 38 -28 -5z"/>
<path d="M13910 12930 c0 -11 5 -20 10 -20 6 0 10 9 10 20 0 11 -4 20 -10 20
-5 0 -10 -9 -10 -20z"/>
<path d="M13885 12843 c-3 -16 -10 -42 -15 -59 -13 -39 -13 -64 0 -64 6 0 10
8 10 18 0 9 7 35 15 57 8 22 14 48 15 58 0 28 -19 20 -25 -10z"/>
<path d="M13830 12630 c0 -11 5 -20 10 -20 6 0 10 9 10 20 0 11 -4 20 -10 20
-5 0 -10 -9 -10 -20z"/>
<path d="M13479 12405 c-13 -21 -21 -125 -9 -125 6 0 13 6 16 14 7 19 0 123
-7 111z"/>
</g>
</svg>
