<?xml version="1.0" standalone="no"?>
<!DOCTYPE svg PUBLIC "-//W3C//DTD SVG 20010904//EN"
 "http://www.w3.org/TR/2001/REC-SVG-20010904/DTD/svg10.dtd">
<svg version="1.0" xmlns="http://www.w3.org/2000/svg"
 width="1402.000000pt" height="1599.162926pt" viewBox="0 0 1402.000000 1599.162926"
 preserveAspectRatio="xMidYMid meet">

<g transform="translate(-299.000000,1806.951020) scale(0.100000,-0.100000)"
fill="#000000" stroke="none">
<path d="M13000 18017 c-91 -45 -117 -64 -195 -143 -99 -99 -143 -165 -180
-270 -42 -115 -75 -172 -109 -185 -17 -6 -74 -13 -126 -15 -471 -20 -777 -37
-895 -50 -77 -8 -177 -15 -222 -16 -96 -1 -107 5 -233 117 -137 123 -252 203
-383 265 -41 20 -54 0 -24 -36 75 -90 124 -198 94 -209 -18 -7 -98 24 -276
107 -109 51 -211 72 -351 72 -120 1 -148 -3 -275 -41 -50 -15 -68 -22 -160
-64 -48 -22 -318 -171 -418 -230 -26 -16 -49 -29 -52 -29 -8 0 -226 -139 -295
-188 -145 -102 -343 -332 -448 -519 -95 -170 -67 -203 176 -203 127 0 150 3
278 37 76 20 158 38 181 40 l42 5 30 -66 c17 -36 31 -71 31 -78 0 -7 27 -65
59 -128 32 -63 78 -155 103 -205 26 -49 49 -98 52 -107 9 -30 35 -21 103 37
62 53 82 62 90 39 3 -10 -46 -80 -97 -140 -14 -16 -65 -64 -113 -108 -48 -43
-87 -84 -87 -92 0 -25 38 -34 138 -34 123 0 160 -7 167 -31 9 -28 -31 -109
-77 -156 -37 -38 -39 -42 -22 -51 11 -5 52 -15 93 -21 83 -13 91 -16 91 -37 0
-26 -60 -137 -106 -197 -25 -32 -42 -62 -39 -67 4 -6 39 -10 79 -10 45 0 79
-5 91 -14 18 -13 18 -16 -9 -87 -16 -41 -39 -103 -52 -139 -13 -36 -27 -72
-32 -80 -20 -35 -74 -221 -69 -235 7 -16 24 -14 120 10 27 7 50 8 53 3 8 -12
-37 -69 -106 -135 -77 -73 -119 -100 -220 -144 -99 -43 -116 -61 -82 -90 28
-22 107 -47 175 -56 30 -4 47 -11 47 -19 0 -17 -138 -170 -188 -207 -71 -55
-148 -81 -288 -98 -53 -7 -413 -14 -879 -19 -795 -7 -1253 -21 -1420 -40 -232
-28 -500 -102 -747 -206 -368 -155 -723 -471 -986 -874 -62 -94 -213 -391
-262 -515 -17 -44 -40 -101 -50 -126 -59 -144 -129 -390 -167 -589 -23 -120
-58 -388 -73 -565 -6 -60 -12 -123 -15 -140 -3 -16 -10 -102 -15 -190 -6 -88
-15 -221 -20 -295 -27 -418 -89 -606 -340 -1024 -56 -92 -150 -265 -209 -384
-59 -119 -117 -233 -128 -252 -11 -19 -35 -62 -53 -95 -60 -108 -160 -264
-234 -368 -77 -107 -107 -170 -90 -187 5 -5 30 -11 56 -13 26 -1 50 -5 53 -9
3 -3 -14 -45 -39 -94 -98 -198 -127 -290 -151 -494 -26 -213 -14 -562 26 -760
21 -107 42 -196 61 -255 48 -151 84 -286 99 -380 11 -70 2 -143 -40 -310 -5
-22 -6 -44 -2 -48 30 -30 179 124 270 279 36 60 71 119 78 132 8 13 20 21 26
19 21 -7 45 -206 50 -410 3 -174 6 -182 62 -171 17 3 63 21 103 41 109 54 191
146 273 305 45 90 69 93 68 11 0 -32 -7 -105 -15 -163 -24 -174 -25 -165 19
-163 85 5 232 109 339 239 93 114 184 260 266 424 90 180 109 224 192 430 47
119 50 124 83 200 13 30 39 91 57 135 33 80 54 114 65 103 3 -3 13 -73 21
-154 11 -120 12 -179 4 -299 -18 -244 -36 -332 -100 -485 -75 -179 -90 -245
-90 -393 0 -67 4 -151 9 -187 5 -36 15 -292 21 -570 13 -530 7 -687 -25 -720
-12 -11 -73 -17 -293 -27 -264 -12 -445 -25 -522 -39 -19 -3 -73 -10 -120 -15
-47 -5 -132 -16 -190 -24 -58 -9 -134 -20 -170 -25 -119 -17 -325 -59 -490
-100 -214 -54 -349 -109 -412 -168 -21 -20 -28 -35 -28 -65 0 -49 12 -70 52
-95 37 -22 139 -58 208 -73 194 -41 521 -82 790 -99 85 -5 169 -12 185 -15 36
-6 344 -22 655 -35 124 -5 240 -14 259 -19 18 -6 58 -29 89 -52 59 -45 129
-76 202 -89 25 -5 86 -15 135 -24 248 -45 510 -55 755 -31 360 36 369 37 529
25 86 -6 201 -15 256 -20 55 -5 137 -13 183 -16 45 -4 86 -12 89 -17 4 -6 -14
-29 -38 -51 -59 -54 -99 -108 -99 -133 0 -25 28 -37 125 -52 182 -30 880 -96
1285 -121 85 -5 173 -12 195 -15 22 -3 94 -10 160 -15 66 -5 183 -17 260 -25
77 -9 179 -18 227 -22 49 -3 92 -11 98 -18 6 -8 -2 -29 -27 -69 -35 -57 -35
-58 -17 -76 44 -43 373 -88 804 -110 118 -7 226 -14 241 -17 14 -2 58 -31 97
-62 131 -105 178 -122 497 -181 166 -31 686 -29 855 4 118 22 173 47 287 126
31 22 72 44 92 50 22 6 242 10 556 10 525 0 919 18 1215 54 110 13 107 14 325
-29 198 -39 551 -55 760 -35 251 24 373 61 458 139 55 51 71 87 64 143 -13
102 -20 91 58 104 77 14 209 32 325 45 143 16 245 29 290 38 25 5 72 15 105
21 157 31 327 104 394 168 33 31 41 46 41 75 0 77 -92 137 -300 193 -122 33
-408 84 -645 114 -262 33 -320 40 -410 49 -91 10 -153 16 -430 41 -118 10
-214 29 -245 49 -58 36 -132 154 -175 276 -9 28 -21 59 -25 70 -13 34 -37 107
-55 170 -9 33 -20 71 -25 85 -5 14 -27 102 -50 195 -108 448 -115 497 -146
1045 -23 411 -32 1069 -28 1955 4 712 7 819 21 885 12 52 44 128 104 245 121
240 159 339 204 530 29 121 34 148 49 250 38 256 51 371 66 609 5 82 12 156
14 165 3 9 10 63 16 121 6 58 17 166 25 240 8 74 19 182 25 240 19 201 46 357
107 610 15 65 21 93 42 203 27 141 31 178 31 302 0 221 -34 342 -171 615 -114
226 -115 234 -98 510 14 213 14 215 37 218 14 2 41 -8 65 -24 43 -28 117 -102
117 -116 0 -14 28 -8 34 7 14 37 -33 182 -119 370 -8 16 -41 89 -74 162 -33
73 -80 169 -105 214 -25 45 -46 85 -46 89 0 19 22 20 48 2 46 -33 144 -82 163
-82 33 0 31 22 -9 103 -93 187 -254 395 -354 456 -153 93 -209 132 -214 146
-10 25 -1 25 51 1 94 -44 337 -87 380 -68 38 17 31 34 -30 66 -76 39 -246 221
-230 246 4 6 57 10 136 10 l130 0 -3 27 c-4 37 -73 88 -219 163 -64 33 -152
86 -195 119 -83 61 -304 280 -304 299 0 14 5 15 28 3 9 -5 53 -27 97 -49 44
-22 105 -54 135 -71 157 -91 295 -149 325 -137 15 5 15 9 -2 38 -26 47 -131
194 -238 333 -88 114 -158 189 -201 213 -30 17 -8 40 66 66 92 32 121 49 198
115 74 64 146 159 140 187 -2 13 -26 23 -98 40 -117 28 -140 35 -215 68 -33
15 -72 32 -87 39 -56 24 -30 32 105 33 154 0 163 3 262 95 89 84 87 93 -20 84
-47 -4 -119 -4 -160 0 -73 7 -75 7 -75 33 0 21 25 52 110 136 61 60 110 112
110 116 0 4 -14 24 -30 45 -44 55 -45 72 -10 151 17 38 35 78 40 89 5 11 21
60 36 108 32 102 35 105 156 148 111 40 155 67 219 137 65 70 99 135 99 190 0
39 -4 45 -80 111 -45 38 -100 78 -124 90 -66 31 -167 51 -285 57 -195 10 -300
34 -453 107 -182 87 -299 128 -458 163 -89 20 -347 20 -423 0 -92 -24 -188
-75 -248 -133 -45 -43 -58 -51 -67 -40 -26 31 7 124 84 235 70 100 48 106
-106 29z m770 -227 c83 -13 206 -58 319 -117 24 -13 48 -23 53 -23 4 0 26 -11
47 -24 91 -58 192 -105 259 -121 39 -10 72 -21 72 -25 0 -4 -14 -11 -31 -16
-27 -8 -32 -15 -36 -45 -2 -26 1 -38 12 -43 20 -7 19 -26 -1 -26 -23 0 -111
52 -278 164 -182 123 -256 155 -489 210 -78 18 -84 16 -218 -70 -129 -82 -112
-43 26 61 86 65 153 97 185 89 8 -2 44 -8 80 -14z m-3629 -256 c56 -17 123
-60 173 -112 31 -34 28 -59 -5 -41 -82 44 -287 57 -394 25 -75 -23 -191 -77
-275 -130 -55 -34 -335 -239 -350 -255 -37 -41 -166 -131 -275 -191 -33 -18
-76 -42 -95 -53 -19 -10 -71 -41 -115 -67 -84 -51 -120 -64 -120 -42 0 17 315
333 385 386 52 40 168 115 200 129 8 4 31 17 50 28 19 12 49 29 65 38 17 9 82
51 145 92 192 127 250 153 420 189 107 23 124 24 191 4z m4399 -194 c0 -5 -11
-10 -25 -10 -14 0 -25 5 -25 10 0 6 11 10 25 10 14 0 25 -4 25 -10z m-2452
-71 c1 -8 -18 -46 -44 -85 -94 -138 -119 -213 -209 -609 -7 -33 -18 -82 -24
-109 -7 -27 -14 -119 -17 -205 -10 -272 20 -403 158 -688 46 -95 74 -141 232
-373 79 -115 139 -232 226 -440 78 -184 107 -245 146 -297 l24 -32 178 2 c169
2 179 1 214 -21 56 -35 78 -71 78 -131 0 -66 -21 -117 -89 -221 -81 -124 -175
-219 -258 -260 -37 -18 -99 -53 -136 -77 -37 -24 -118 -68 -180 -99 -62 -30
-168 -84 -237 -119 -232 -118 -384 -148 -643 -127 -147 13 -197 24 -282 63
-117 54 -195 137 -195 208 0 44 79 53 170 20 30 -11 65 -23 77 -26 29 -7 58
-39 44 -48 -19 -11 -12 -24 22 -42 49 -27 251 -24 377 6 165 39 285 84 374
139 69 43 111 53 166 40 43 -10 56 -8 112 12 110 39 162 66 213 111 28 25 77
64 109 88 83 62 166 150 209 223 30 50 37 73 37 114 0 80 -15 88 -165 92 -153
4 -160 0 -170 -117 -3 -42 -14 -91 -23 -110 -9 -19 -57 -68 -105 -110 -186
-160 -292 -210 -460 -218 -157 -8 -321 16 -505 72 -64 20 -128 39 -141 43 -13
4 -29 15 -35 25 -14 22 6 39 73 63 160 56 219 109 291 259 75 158 93 323 46
429 -41 91 -130 158 -256 191 -126 33 -415 11 -521 -38 -95 -45 -189 -143
-189 -196 0 -31 19 -35 30 -7 26 71 133 145 230 160 69 11 412 7 469 -5 92
-20 156 -80 156 -150 0 -53 -15 -62 -95 -53 -78 9 -170 8 -519 -4 -239 -8
-265 -10 -277 -27 -19 -25 -18 -41 7 -116 28 -85 39 -105 126 -234 99 -146
133 -179 228 -227 44 -22 83 -46 88 -52 4 -6 6 -27 5 -46 -3 -34 -5 -36 -73
-56 -98 -30 -240 -54 -317 -54 -61 0 -67 2 -101 37 -21 20 -53 68 -72 107 -82
168 -85 284 -15 651 22 115 59 212 123 320 13 22 44 79 70 127 26 48 57 105
70 125 13 21 53 94 89 163 36 69 88 166 115 215 78 145 102 208 114 305 23
183 -28 397 -118 486 -45 45 -120 67 -181 53 -88 -19 -261 -160 -332 -269 -16
-25 -36 -54 -44 -65 -15 -20 -15 -20 -16 2 0 27 51 126 116 221 102 152 103
155 145 324 70 282 147 405 325 524 124 82 216 111 464 144 179 24 493 23 498
-1z m-2053 -356 c65 -24 97 -42 91 -52 -3 -4 -94 -7 -203 -7 -166 1 -198 3
-198 15 0 19 57 52 104 62 52 11 148 3 206 -18z m3898 -99 c19 -19 -187 -245
-254 -280 -16 -8 -29 -21 -29 -29 0 -22 41 -28 141 -23 97 6 118 -3 78 -33
-64 -48 -119 -69 -181 -69 -81 0 -228 45 -228 70 0 11 30 35 77 65 79 48 153
106 298 234 82 72 87 75 98 65z m-1413 -178 c0 -16 -26 -46 -41 -46 -13 0 -11
34 3 48 16 16 38 15 38 -2z m60 -468 c57 -32 183 -155 174 -169 -2 -4 -20 3
-40 16 -19 13 -56 31 -82 40 -26 10 -70 26 -99 37 -60 23 -78 20 -150 -29 -98
-66 -152 -184 -103 -228 11 -10 20 -24 20 -32 0 -29 29 -68 62 -84 126 -62
197 -52 264 37 26 33 29 45 29 111 0 58 3 73 15 73 23 0 118 -69 125 -91 15
-47 -68 -147 -162 -195 -51 -26 -68 -29 -148 -29 -97 0 -132 10 -264 71 -110
51 -113 62 -42 137 37 39 56 71 75 126 37 107 69 155 133 201 72 51 114 53
193 8z m-1694 -167 c24 -11 57 -39 77 -66 36 -47 97 -187 97 -223 0 -61 -63
-129 -160 -173 -111 -51 -178 -52 -246 -6 -79 53 -100 108 -60 162 14 19 16
18 55 -27 23 -25 62 -56 87 -68 41 -20 49 -21 89 -10 56 16 107 61 140 124 30
59 31 89 4 127 -38 53 -71 63 -166 50 -46 -7 -90 -14 -98 -17 -27 -11 -28 25
-2 65 24 36 95 81 127 81 8 0 34 -9 56 -19z m1632 -23 c39 -39 -15 -101 -82
-96 -57 4 -61 34 -9 77 39 33 71 39 91 19z m-1381 -1594 c7 -18 -20 -44 -44
-44 -20 0 -27 28 -13 45 17 20 49 19 57 -1z m-1710 -806 c-10 -85 -3 -329 13
-408 27 -130 58 -248 79 -295 5 -11 17 -42 27 -70 23 -64 106 -231 156 -313
21 -34 38 -65 38 -67 0 -11 137 -225 196 -306 101 -137 131 -161 404 -319 57
-33 113 -81 231 -199 85 -86 204 -194 264 -241 61 -46 137 -107 170 -135 85
-72 146 -115 155 -110 5 3 -2 33 -15 68 -121 327 -155 424 -155 446 0 6 8 11
18 11 21 0 84 -64 167 -170 65 -81 356 -378 418 -424 26 -20 41 -26 48 -19 11
11 17 -1 -214 460 -81 161 -147 295 -147 299 0 3 -6 20 -14 37 -8 18 -45 108
-82 202 -37 93 -83 206 -104 250 -20 44 -52 117 -70 163 -36 87 -55 102 -82
60 -19 -32 -56 -141 -76 -229 -15 -62 -21 -75 -39 -77 -16 -2 -30 8 -53 40
-52 70 -157 297 -177 380 -10 43 -23 78 -30 78 -21 0 -133 -176 -133 -211 0
-24 -62 -148 -78 -154 -24 -9 -26 -4 -87 170 -26 74 -45 190 -45 272 0 45 -5
94 -11 110 l-10 28 -29 -35 c-16 -19 -50 -72 -77 -118 -68 -118 -75 -126 -101
-118 -55 18 -52 202 6 341 21 50 110 199 170 285 61 86 241 266 317 316 108
72 129 79 240 79 170 -1 232 -31 287 -141 34 -70 100 -137 193 -199 46 -31 87
-61 92 -68 16 -20 49 -153 78 -307 32 -168 95 -380 145 -481 32 -65 114 -191
136 -210 10 -9 18 -9 26 -1 7 7 4 41 -12 119 -31 148 -34 421 -7 501 10 28 23
52 28 52 15 0 36 -41 64 -125 26 -77 92 -246 121 -312 8 -17 14 -36 14 -42 0
-6 7 -11 15 -11 8 0 15 3 15 8 0 4 5 47 10 96 20 176 121 416 174 416 21 0 30
-18 65 -125 56 -172 215 -457 300 -539 27 -26 31 -27 37 -12 4 10 -6 68 -21
129 -24 101 -28 135 -32 347 -7 307 0 326 93 254 65 -49 78 -31 25 36 -23 29
-44 63 -47 77 -9 35 20 92 91 178 32 38 75 96 96 128 84 126 131 186 150 192
11 4 61 0 112 -9 113 -18 257 -33 402 -42 187 -11 317 -29 368 -52 167 -75
378 -273 513 -483 62 -97 93 -170 125 -298 25 -99 29 -131 29 -258 0 -137 -11
-223 -33 -250 -15 -20 -24 -8 -47 65 -59 182 -128 294 -264 424 -116 112 -134
104 -91 -39 15 -48 30 -99 35 -113 28 -86 43 -206 44 -352 1 -225 -3 -227
-141 -39 -82 110 -239 283 -275 302 -30 16 -31 -13 -3 -77 40 -91 42 -95 58
-159 27 -102 36 -147 52 -240 20 -120 20 -393 -1 -527 -16 -108 -20 -124 -62
-226 -15 -38 -22 -66 -16 -72 5 -5 36 14 77 50 87 76 105 86 114 64 3 -9 1
-37 -5 -61 -7 -24 -12 -54 -12 -66 0 -13 -11 -52 -25 -86 -25 -64 -25 -81 -1
-81 27 0 196 192 306 348 62 89 120 162 128 162 29 0 -3 -284 -40 -354 -7 -12
-6 -22 1 -29 16 -16 65 35 170 174 78 103 131 196 204 359 8 19 29 64 45 100
96 211 130 300 162 430 43 170 48 176 90 112 64 -96 115 -220 144 -351 37
-162 31 -461 -14 -624 -40 -148 -95 -280 -114 -274 -6 2 -14 35 -18 73 -9 95
-22 159 -31 159 -8 0 -31 -40 -56 -95 -6 -14 -37 -95 -70 -180 -60 -159 -78
-201 -161 -375 -97 -205 -138 -370 -160 -645 -14 -184 -13 -209 6 -217 20 -7
38 15 141 167 118 176 235 331 247 327 22 -8 -2 -518 -35 -732 -20 -134 -43
-209 -102 -335 -75 -160 -147 -262 -421 -604 -27 -35 -168 -205 -214 -261 -25
-30 -161 -198 -314 -390 -75 -94 -143 -176 -151 -183 -26 -22 -27 2 -3 84 13
43 29 106 36 139 7 33 16 74 22 90 5 17 14 53 19 80 5 28 15 79 23 115 8 36
19 88 25 115 5 28 19 92 31 144 11 52 20 101 20 108 0 26 -20 12 -57 -40 -113
-157 -235 -431 -358 -802 -42 -126 -93 -273 -114 -325 -21 -52 -48 -117 -59
-145 -17 -45 -130 -319 -152 -370 -4 -11 -29 -71 -54 -132 -25 -62 -57 -136
-70 -165 -13 -29 -36 -79 -50 -110 -36 -83 -50 -78 -72 26 -25 113 -46 290
-46 386 0 110 12 207 53 413 34 172 32 157 17 157 -20 -1 -126 -183 -287 -493
-28 -54 -59 -110 -69 -125 -11 -15 -27 -44 -37 -64 -30 -66 -49 -46 -70 74
-12 64 27 368 75 591 12 55 20 101 17 103 -18 18 -83 -70 -164 -225 -56 -106
-63 -115 -77 -101 -14 14 -9 149 9 235 16 74 23 101 78 310 38 144 49 196 72
335 19 114 17 235 -4 235 -14 0 -125 -170 -196 -300 -138 -253 -243 -415 -269
-415 -8 0 -17 25 -25 68 -13 69 -13 101 8 457 17 286 5 417 -66 712 -8 35 -30
48 -42 25 -13 -24 -59 -163 -102 -302 -17 -58 -40 -113 -49 -124 -18 -18 -19
-18 -33 11 -27 51 -57 150 -79 260 -27 138 -30 401 -4 503 19 76 21 205 4 216
-6 4 -17 -1 -24 -11 -8 -10 -26 -32 -40 -49 -15 -17 -43 -49 -62 -71 -60 -69
-294 -305 -367 -370 -77 -69 -146 -115 -171 -115 -13 0 -15 8 -9 53 6 49 56
268 76 332 18 59 69 212 108 327 89 257 111 409 92 626 -29 327 -119 541 -339
805 -36 42 -69 77 -74 77 -4 0 -8 -11 -8 -24 0 -23 4 -46 35 -196 19 -88 28
-197 18 -203 -8 -5 -102 96 -354 382 -220 250 -303 336 -318 327 -9 -6 -12
-56 -10 -209 1 -113 -2 -202 -7 -204 -26 -8 -376 673 -446 867 -11 30 -23 64
-28 75 -5 11 -16 37 -24 58 -28 71 -47 43 -78 -118 -18 -94 -26 -246 -28 -561
0 -60 -5 -96 -14 -109 -13 -18 -17 -15 -56 45 -62 97 -123 236 -150 345 -4 17
-17 64 -28 105 -58 215 -82 440 -85 798 -2 237 -4 282 -16 280 -8 -2 -23 -19
-34 -38 -77 -139 -143 -250 -166 -280 -49 -63 -87 -124 -103 -165 -9 -22 -22
-40 -29 -40 -11 0 -14 22 -12 105 1 58 6 121 12 140 5 19 18 62 27 95 59 213
194 464 434 804 81 115 239 279 258 267 5 -3 4 -38 -1 -78z m509 -219 c18 -20
18 -23 -20 -167 -21 -81 -45 -182 -54 -224 -22 -112 -39 -103 -78 40 -29 109
-9 272 41 338 31 41 80 47 111 13z m-2 -3891 c10 -24 22 -52 27 -63 17 -39 45
-235 55 -397 8 -112 -5 -212 -43 -332 -34 -109 -73 -183 -161 -306 -126 -175
-174 -218 -291 -255 -50 -16 -56 -16 -87 -1 -19 8 -34 21 -34 28 0 7 24 49 53
93 136 204 290 502 337 650 58 187 76 275 90 450 15 194 22 209 54 133z
m-5540 -154 c-4 -51 -25 -225 -34 -274 -5 -30 -16 -104 -26 -165 -9 -60 -25
-155 -36 -210 -11 -55 -22 -111 -25 -125 -35 -195 -101 -425 -152 -530 -59
-124 -229 -350 -385 -515 -59 -62 -78 -77 -88 -67 -9 9 -3 34 29 115 44 111
62 160 88 252 9 33 33 106 52 163 31 94 35 122 14 122 -4 0 -56 -32 -115 -71
-113 -74 -143 -79 -102 -19 49 74 145 255 403 760 55 107 113 218 128 245 49
86 206 330 218 337 18 12 32 3 31 -18z m3109 -357 c14 -29 32 -72 40 -97 85
-251 272 -644 408 -858 501 -785 536 -863 556 -1210 10 -186 -34 -373 -172
-722 -78 -199 -79 -204 -64 -258 16 -59 93 -218 129 -267 11 -15 82 -195 92
-235 23 -87 40 -159 48 -200 5 -25 16 -74 24 -110 15 -67 45 -210 72 -340 8
-41 19 -93 24 -115 8 -37 15 -68 50 -235 15 -73 29 -203 22 -214 -5 -9 -170
-5 -537 13 -322 16 -804 31 -1416 44 -438 9 -590 16 -601 25 -26 21 -88 228
-88 292 0 13 -4 39 -9 59 -6 20 -18 101 -28 181 -25 201 -25 735 0 965 60 555
91 650 340 1055 83 135 156 274 310 586 61 123 96 182 239 404 69 107 150 262
196 371 61 148 202 587 248 774 9 39 21 74 26 80 4 5 8 16 8 25 0 8 7 26 16
38 20 29 33 19 67 -51z m2516 -926 c-8 -10 -48 -68 -90 -128 -116 -165 -218
-259 -333 -307 -52 -22 -194 -22 -202 -1 -4 9 38 81 105 182 61 91 111 176
111 189 0 25 43 43 155 63 95 17 105 18 189 20 75 1 78 0 65 -18z m1229 -879
c1 -295 5 -559 7 -587 3 -27 10 -201 15 -385 21 -724 48 -1217 75 -1375 15
-85 34 -171 60 -270 35 -136 55 -290 55 -433 0 -79 5 -176 10 -215 23 -156 54
-310 79 -387 5 -14 16 -52 26 -85 10 -33 28 -92 41 -132 31 -93 31 -101 -8
-111 -18 -4 -33 -15 -33 -23 0 -10 20 -16 75 -21 41 -4 85 -12 98 -18 13 -5
29 -10 37 -10 24 0 127 -52 180 -91 130 -96 207 -214 282 -428 16 -48 22 -148
10 -168 -16 -26 -56 -14 -97 30 -42 42 -128 169 -164 240 -11 20 -24 37 -29
37 -9 0 -7 -23 12 -105 50 -215 56 -290 26 -315 -15 -12 -138 -29 -216 -30
-77 0 -69 -11 -168 227 -56 137 -134 281 -147 273 -13 -7 -9 -96 9 -240 36
-282 40 -266 -65 -262 -40 1 -91 7 -113 13 -180 47 -193 55 -220 145 -46 156
-58 185 -73 182 -11 -2 -21 -31 -35 -103 -26 -140 -60 -165 -146 -107 -68 46
-80 73 -100 212 -6 36 -17 97 -26 135 -36 162 -55 303 -55 425 0 145 38 487
70 623 15 66 13 127 -6 134 -21 8 -49 -6 -131 -66 -38 -28 -76 -51 -84 -51 -9
0 -25 9 -37 20 -27 25 -30 98 -8 193 22 96 35 165 46 257 12 86 19 142 41 305
12 95 8 262 -11 400 -28 204 -52 365 -71 475 -6 36 -15 92 -19 125 -5 33 -17
114 -28 180 -11 66 -27 172 -36 235 -26 182 -36 249 -51 340 -8 47 -19 119
-24 160 -6 41 -18 125 -26 185 -8 61 -22 155 -30 210 -8 55 -19 136 -24 180
-6 44 -15 116 -21 160 -6 44 -14 124 -17 178 -7 111 -6 112 66 69 82 -49 216
-100 331 -123 86 -18 225 -18 270 0 77 31 243 177 347 304 48 58 48 63 51
-511z m-1299 452 c32 -41 30 -151 -4 -204 -36 -57 -98 -114 -205 -185 -127
-85 -176 -105 -256 -105 -102 0 -100 15 23 185 87 120 118 155 203 227 100 85
138 108 181 108 29 0 42 -6 58 -26z m4308 -186 c22 -29 47 -390 63 -908 5
-173 12 -346 15 -385 3 -38 10 -173 15 -300 26 -650 55 -1038 90 -1205 40
-189 67 -314 80 -360 5 -19 18 -71 29 -115 80 -324 200 -631 299 -765 33 -44
48 -57 92 -77 37 -17 46 -19 210 -52 116 -23 153 -34 219 -63 95 -43 195 -168
305 -382 66 -129 76 -168 50 -198 -51 -55 -100 -41 -194 58 -33 36 -65 62 -71
59 -5 -4 -7 -10 -4 -15 13 -20 25 -118 20 -152 -8 -44 -29 -53 -151 -63 -63
-5 -84 -3 -95 8 -8 8 -45 76 -84 152 -56 111 -84 153 -141 213 -76 82 -107 91
-78 24 55 -125 107 -353 91 -396 -11 -27 -138 -21 -212 9 -84 35 -169 44 -195
20 -18 -16 -25 -17 -63 -6 -72 22 -229 108 -285 157 -71 62 -140 182 -212 369
-4 11 -15 38 -23 60 -22 56 -62 170 -81 230 -62 195 -87 290 -106 415 -36 234
-58 348 -73 368 -7 9 -17 8 -42 -8 -18 -11 -44 -20 -59 -20 -46 0 -51 33 -30
220 21 190 23 553 5 665 -7 39 -16 99 -21 135 -5 36 -16 110 -25 165 -9 55
-23 145 -31 200 -25 154 -30 483 -9 586 35 181 115 467 155 554 5 11 23 56 41
99 92 226 269 514 402 654 60 61 85 74 104 50z m-4247 -193 c16 -19 26 -62 55
-220 12 -71 32 -177 43 -235 23 -114 47 -248 63 -350 6 -36 17 -101 24 -145 8
-44 19 -116 25 -160 6 -44 17 -120 25 -170 8 -49 21 -139 30 -200 9 -60 20
-130 25 -155 4 -25 16 -92 25 -150 9 -58 20 -127 25 -155 5 -27 16 -93 24
-145 8 -52 20 -124 26 -160 19 -104 24 -362 10 -500 -7 -69 -15 -156 -19 -195
-10 -111 -21 -116 -121 -57 -180 104 -211 113 -435 123 -104 4 -204 13 -222
19 -25 9 -38 26 -71 93 -21 45 -51 114 -65 152 -14 39 -29 79 -33 90 -11 31
-34 106 -43 145 -5 19 -18 71 -29 115 -35 142 -48 212 -83 445 -6 41 -13 192
-16 335 -4 236 -3 269 16 361 47 228 118 460 206 669 67 159 100 201 210 270
33 20 81 54 106 75 48 41 167 120 179 120 4 0 13 -7 20 -15z m3122 -531 c4
-16 12 -54 18 -84 5 -30 16 -86 25 -125 8 -38 19 -88 24 -110 8 -38 20 -79 56
-205 47 -161 58 -202 81 -305 25 -109 30 -132 53 -250 12 -60 28 -139 36 -175
7 -36 18 -90 24 -120 6 -30 17 -89 25 -130 8 -41 21 -122 30 -180 8 -58 20
-141 27 -185 15 -104 6 -410 -15 -535 -9 -52 -20 -117 -25 -145 -4 -27 -14
-80 -21 -116 -19 -98 -18 -99 94 -99 95 0 96 0 110 -29 35 -68 65 -299 52
-403 -9 -69 -27 -98 -53 -82 -14 9 -20 33 -29 110 -19 168 -29 189 -98 204
-69 15 -278 40 -516 60 -74 6 -178 16 -230 21 -52 6 -156 14 -230 19 -362 25
-618 41 -745 46 -87 4 -148 11 -161 19 -22 14 -38 88 -49 225 -7 97 -23 218
-40 300 -7 36 -19 92 -25 125 -7 33 -18 87 -25 120 -41 191 -58 344 -85 745
-15 230 -12 741 5 904 22 200 59 356 84 356 20 0 49 -52 136 -245 89 -197 226
-439 268 -474 34 -28 47 -7 47 78 0 106 28 292 46 311 13 13 17 12 34 -10 10
-13 26 -49 36 -80 61 -194 169 -420 236 -492 38 -41 40 -42 54 -24 9 13 14 46
14 90 1 108 25 338 39 364 6 12 16 22 22 22 5 0 23 -30 40 -67 16 -38 34 -76
39 -85 6 -10 10 -22 10 -27 0 -39 124 -253 173 -299 22 -21 24 -21 39 -5 9 10
28 63 43 118 42 153 43 156 60 215 9 30 23 80 31 110 18 65 64 236 72 265 2
11 8 25 12 30 4 6 11 21 15 35 15 51 109 230 119 227 5 -2 14 -17 18 -33z
m-4010 -865 c4 -19 12 -83 18 -144 17 -188 50 -448 68 -525 6 -25 16 -72 22
-105 41 -204 106 -421 177 -595 51 -124 77 -166 114 -179 19 -7 112 -11 234
-11 195 0 203 -1 251 -25 112 -57 274 -212 322 -308 35 -71 99 -251 105 -297
2 -15 -10 -16 -142 -8 -33 2 -46 -1 -52 -14 -5 -10 -13 -26 -18 -35 -4 -10
-19 -18 -32 -18 -19 0 -31 15 -69 90 -25 50 -54 104 -64 120 -11 17 -35 55
-55 85 -54 85 -112 150 -133 150 -11 0 -18 -4 -16 -8 94 -235 120 -314 122
-368 1 -38 1 -38 -69 -67 -53 -21 -83 -27 -125 -25 l-54 3 -33 67 c-32 67
-123 202 -151 225 -20 16 -34 6 -23 -15 22 -43 61 -178 61 -213 0 -28 -6 -42
-22 -53 -47 -34 -248 -10 -358 42 -31 14 -79 50 -110 82 -108 110 -147 215
-265 715 -14 61 -30 126 -35 145 -23 83 -38 160 -80 400 -42 241 -52 456 -26
576 20 95 24 98 82 59 42 -29 87 -32 133 -9 39 19 71 61 111 144 17 36 35 73
40 82 6 10 10 23 10 30 0 17 32 49 44 45 6 -2 14 -19 18 -38z m-3585 -371 c7
-6 15 -26 19 -47 14 -79 38 -88 114 -45 89 51 168 94 174 94 17 0 28 -69 42
-259 32 -433 31 -425 73 -696 6 -38 14 -77 17 -85 3 -8 10 -35 14 -60 5 -25
16 -76 24 -115 8 -38 15 -76 16 -82 0 -20 -52 -41 -121 -48 -89 -10 -141 -24
-136 -38 2 -9 62 -14 203 -18 214 -6 240 -11 328 -55 148 -75 236 -186 330
-416 46 -111 46 -139 3 -172 -61 -46 -65 -43 -167 149 -86 163 -102 187 -113
176 -9 -9 3 -76 34 -191 14 -51 22 -213 11 -229 -5 -7 -43 -18 -83 -23 -61 -9
-80 -8 -109 4 -33 14 -38 22 -64 104 -27 85 -63 189 -91 264 -7 19 -19 35 -26
35 -11 0 -14 -34 -14 -176 0 -201 -3 -210 -79 -230 -57 -16 -173 -5 -205 19
-27 20 -50 90 -51 152 -1 61 -35 185 -52 188 -17 3 -17 3 -43 -103 -15 -66
-27 -113 -40 -161 -22 -84 -146 -87 -205 -5 -68 97 -65 268 12 675 8 39 12
274 12 702 1 637 1 643 22 671 30 40 113 52 151 21z"/>
<path d="M13237 12313 c-12 -11 -7 -66 14 -168 22 -100 24 -114 54 -280 8 -49
23 -171 32 -269 16 -168 16 -195 0 -410 -10 -143 -13 -234 -7 -240 19 -19 78
42 113 116 83 175 97 216 132 380 37 177 8 374 -79 549 -67 133 -237 345 -259
322z"/>
<path d="M11835 11500 c-3 -6 -1 -36 6 -68 49 -233 191 -466 403 -661 83 -76
85 -14 3 119 -22 36 -51 85 -65 110 -39 72 -232 380 -272 435 -46 62 -66 80
-75 65z"/>
<path d="M12363 11255 c-19 -51 35 -251 106 -393 61 -122 175 -262 213 -262
10 0 18 1 18 3 0 1 -13 39 -29 83 -31 86 -46 121 -134 304 -30 63 -65 138 -77
165 -25 57 -66 115 -81 115 -5 0 -12 -7 -16 -15z"/>
</g>
</svg>
