<?xml version="1.0" standalone="no"?>
<!DOCTYPE svg PUBLIC "-//W3C//DTD SVG 20010904//EN"
 "http://www.w3.org/TR/2001/REC-SVG-20010904/DTD/svg10.dtd">
<svg version="1.0" xmlns="http://www.w3.org/2000/svg"
 width="1385.306622pt" height="1850.663390pt" viewBox="0 0 1385.306622 1850.663390"
 preserveAspectRatio="xMidYMid meet">

<g transform="translate(-448.193378,1929.709513) scale(0.100000,-0.100000)"
fill="#000000" stroke="none">
<path d="M10510 19294 c-35 -6 -173 -21 -322 -35 -97 -9 -160 -10 -270 -1 -79
6 -255 17 -393 23 -321 15 -515 0 -785 -60 -97 -21 -271 -85 -385 -141 -214
-104 -369 -220 -625 -467 -204 -197 -245 -226 -360 -260 -55 -15 -313 -37
-353 -29 -16 3 -40 0 -55 -8 -36 -19 -122 -110 -207 -221 -38 -49 -72 -92 -76
-95 -3 -3 -28 -35 -55 -71 -96 -128 -199 -264 -205 -269 -3 -3 -38 -50 -79
-105 -154 -209 -379 -467 -800 -915 -387 -412 -512 -554 -701 -790 -82 -102
-236 -333 -286 -429 -60 -116 -76 -188 -70 -325 5 -120 19 -240 37 -326 5 -25
19 -92 29 -150 35 -182 107 -425 225 -757 47 -132 170 -386 242 -499 195 -309
456 -501 754 -554 115 -21 307 -31 417 -21 296 27 452 92 699 288 272 217 433
473 565 903 64 209 74 194 65 -107 -4 -137 -11 -417 -16 -623 -15 -582 -42
-837 -111 -1028 -29 -81 -42 -109 -123 -272 -110 -220 -196 -354 -411 -640
-107 -141 -265 -374 -291 -430 -4 -8 -24 -42 -44 -75 -32 -53 -128 -244 -151
-300 -4 -11 -14 -36 -23 -55 -35 -81 -130 -336 -147 -395 -4 -16 -15 -55 -24
-85 -49 -168 -83 -408 -90 -640 -7 -199 5 -505 25 -640 5 -41 15 -109 21 -150
21 -149 56 -308 106 -485 24 -85 65 -219 74 -242 4 -12 18 -62 30 -110 32
-134 20 -239 -50 -418 -64 -166 -103 -214 -350 -434 -91 -82 -175 -159 -186
-172 -11 -13 -47 -56 -81 -94 -161 -188 -310 -477 -368 -715 -48 -199 -50
-216 -50 -510 0 -308 9 -386 71 -595 81 -273 169 -437 508 -950 257 -388 285
-442 285 -548 0 -65 -3 -76 -28 -106 l-27 -33 -255 -2 c-300 -3 -413 -19 -585
-83 -168 -63 -372 -228 -475 -383 -116 -175 -201 -395 -231 -598 -14 -91 -3
-178 32 -258 54 -121 207 -177 619 -226 72 -9 266 -13 615 -13 502 0 510 0
513 -20 32 -225 68 -330 153 -442 154 -205 497 -298 1094 -296 310 0 479 19
680 74 177 48 352 145 443 243 38 41 132 176 132 190 0 2 17 42 39 88 21 46
41 93 45 104 14 45 36 54 109 44 187 -27 604 -42 1107 -39 283 1 520 1 527 0
6 0 14 -16 18 -34 6 -29 27 -101 45 -152 81 -235 346 -404 750 -478 298 -55
517 -68 801 -47 373 27 626 102 800 236 193 149 235 299 188 674 -7 52 -13
115 -13 140 -1 43 0 45 30 48 28 3 44 -9 136 -96 152 -145 225 -194 373 -253
46 -18 125 -38 205 -52 172 -31 240 -38 585 -61 55 -4 283 9 415 23 314 35
474 95 611 231 116 116 159 217 159 377 0 94 -18 191 -60 313 -88 261 -371
559 -655 689 -27 13 -63 29 -80 37 -16 7 -59 24 -95 37 -38 13 -65 29 -65 37
0 15 61 34 155 50 30 5 100 18 155 29 55 12 123 25 150 31 28 5 79 14 115 20
211 31 484 101 765 195 205 69 239 84 450 188 409 202 711 420 1010 729 314
325 552 698 668 1048 76 231 92 319 92 510 0 130 -3 160 -18 188 -47 86 -107
57 -179 -89 -26 -52 -79 -160 -118 -242 -86 -177 -232 -421 -330 -551 -302
-402 -715 -714 -1225 -926 -205 -85 -416 -148 -675 -200 -54 -11 -81 -16 -285
-45 -145 -22 -604 -47 -712 -39 -61 4 -96 11 -104 20 -17 21 -6 79 34 164 19
41 47 102 62 135 15 33 33 74 40 90 194 425 291 1004 241 1441 -42 361 -123
657 -237 864 -8 14 -40 64 -72 111 -100 150 -218 248 -422 352 -123 63 -178
122 -271 292 -104 189 -250 517 -295 660 -21 67 -26 272 -10 380 15 90 32 382
32 519 0 135 -16 339 -32 431 -72 405 -156 655 -339 1010 -162 315 -247 441
-744 1104 -68 90 -145 223 -180 307 -15 38 -32 78 -36 89 -22 52 -51 165 -75
295 -9 47 -21 104 -26 127 -15 67 -28 167 -49 363 -16 147 -22 309 -30 795 -6
336 -15 692 -20 792 -10 189 -10 197 34 393 15 67 38 142 61 195 7 17 18 46
25 65 37 100 134 296 160 324 37 38 43 13 36 -138 -10 -209 -9 -535 4 -671 21
-245 54 -387 133 -585 98 -245 194 -397 347 -550 258 -258 538 -370 923 -370
185 0 272 15 417 73 284 114 584 453 740 837 12 30 26 64 30 75 22 54 61 169
84 245 33 114 118 466 151 625 9 44 20 98 25 120 35 154 40 194 40 314 0 119
-3 137 -27 198 -57 143 -163 293 -352 498 -178 193 -446 471 -737 765 -335
339 -464 473 -525 545 -19 22 -36 42 -39 45 -43 42 -262 313 -343 427 -229
319 -427 549 -528 613 l-46 30 -166 0 c-178 0 -267 14 -335 51 -50 29 -70 45
-171 141 -134 128 -206 188 -330 277 -109 78 -354 211 -390 211 -9 0 -21 4
-26 8 -6 5 -39 17 -75 27 -36 10 -83 23 -105 30 -22 7 -71 18 -110 25 -38 6
-88 16 -110 22 -40 10 -497 20 -545 12z m391 -119 c58 -8 134 -22 170 -31 164
-42 349 -172 349 -246 0 -9 -12 -28 -27 -42 -24 -22 -25 -28 -15 -50 6 -15 16
-26 21 -26 6 0 22 -11 36 -25 36 -37 33 -79 -10 -134 -54 -68 -47 -86 63 -181
39 -34 72 -68 72 -75 0 -28 -68 -38 -209 -30 -252 14 -271 13 -323 -18 -25
-15 -76 -59 -112 -99 -42 -46 -69 -69 -75 -63 -6 6 -11 42 -13 80 -2 39 -7 70
-13 69 -17 0 -100 -110 -129 -170 -43 -87 -49 -158 -43 -464 5 -208 11 -301
26 -380 28 -155 40 -211 51 -245 6 -16 23 -70 39 -120 29 -90 72 -210 91 -252
6 -13 14 -33 19 -45 6 -13 21 -48 34 -78 73 -164 94 -225 152 -440 35 -129
109 -361 135 -425 7 -16 16 -39 20 -50 60 -158 141 -321 253 -507 107 -177
115 -192 177 -303 66 -119 87 -135 177 -135 76 0 315 -36 358 -54 54 -23 33
-34 -45 -25 -272 32 -364 38 -377 28 -19 -16 -16 -43 8 -92 36 -71 69 -107
138 -151 36 -22 75 -47 86 -54 11 -7 28 -15 38 -18 20 -7 23 -24 4 -24 -8 0
-41 11 -75 25 -72 29 -137 32 -164 8 -40 -36 -15 -139 60 -242 17 -24 29 -48
26 -53 -7 -10 -30 8 -82 65 -19 20 -41 37 -50 37 -8 0 -72 -57 -141 -128 -156
-158 -203 -184 -394 -222 -74 -15 -441 -15 -572 0 -371 42 -390 45 -393 62 -2
12 7 19 30 26 215 59 478 235 585 393 76 111 142 270 168 404 40 211 0 389
-128 565 -86 119 -146 164 -250 186 -86 19 -129 17 -238 -7 -149 -34 -210 -35
-313 -5 -101 30 -173 33 -293 12 -198 -35 -304 -100 -402 -245 -89 -131 -106
-186 -105 -336 0 -115 2 -126 43 -244 24 -68 54 -148 67 -177 13 -29 24 -56
24 -60 0 -24 123 -184 188 -244 117 -109 212 -160 397 -215 50 -15 96 -29 103
-31 26 -8 7 -37 -33 -51 -93 -34 -484 -67 -681 -58 -178 8 -261 20 -399 60
-33 9 -87 23 -121 30 -33 6 -96 31 -139 53 -42 23 -88 42 -101 42 -41 0 -92
58 -182 206 -48 79 -95 147 -105 150 -12 4 -27 -2 -41 -15 -12 -12 -26 -21
-30 -21 -4 0 -35 -20 -67 -45 -33 -25 -61 -45 -64 -45 -3 0 -5 7 -5 16 0 9 38
55 85 103 82 84 120 146 111 179 -2 9 -7 29 -10 44 -8 37 -38 51 -79 39 -98
-29 -178 -67 -245 -116 -74 -53 -102 -62 -82 -25 19 36 100 97 177 134 166 79
148 63 148 131 0 33 -6 87 -14 120 -57 255 -105 357 -264 555 -266 333 -422
752 -421 1130 1 179 33 238 96 173 15 -15 56 -84 91 -153 93 -184 125 -239
170 -300 132 -177 341 -300 512 -300 74 0 176 28 275 76 162 79 387 359 567
705 68 131 120 273 146 399 58 285 44 639 -34 860 -21 59 -88 182 -129 236
-80 106 -210 193 -287 194 -12 0 -46 -10 -75 -23 -58 -26 -94 -37 -212 -64
-44 -10 -81 -23 -83 -29 -2 -7 19 -29 48 -50 56 -41 109 -107 109 -135 0 -21
-13 -25 -110 -34 -36 -3 -83 -11 -105 -16 -22 -6 -58 -15 -80 -21 -97 -25
-342 -166 -419 -241 -44 -44 -90 -106 -83 -113 3 -4 38 23 77 59 39 35 108 84
153 108 l82 44 115 -1 c125 0 194 -15 282 -59 181 -91 335 -290 429 -558 82
-229 81 -228 82 -322 1 -94 -11 -135 -59 -200 -12 -16 -36 -57 -54 -90 -93
-169 -134 -206 -164 -146 -9 16 -16 39 -16 50 0 31 -11 51 -27 51 -9 0 -59
-17 -112 -38 -129 -52 -205 -67 -336 -67 -115 0 -170 11 -263 51 -125 54 -225
165 -265 293 -28 88 -18 196 19 208 6 2 31 -36 54 -84 70 -144 198 -257 344
-303 95 -30 305 12 424 84 40 25 75 37 117 42 33 3 74 12 91 19 61 25 116 130
96 183 -6 15 -13 47 -16 72 -3 25 -16 79 -29 120 -14 41 -30 102 -37 135 -30
151 -54 203 -124 266 -51 46 -133 80 -232 97 -80 14 -106 14 -180 4 -106 -16
-151 -31 -283 -94 -156 -76 -222 -149 -325 -362 -65 -133 -69 -136 -161 -136
-56 0 -77 4 -81 14 -12 30 143 494 202 606 53 100 145 231 229 325 33 37 61
74 63 81 5 20 -29 17 -84 -6 -87 -38 -95 -8 -34 125 23 48 38 90 35 94 -4 3
-56 6 -115 6 -133 0 -143 6 -107 67 39 65 213 254 308 334 146 123 333 241
464 295 11 4 36 14 55 22 108 45 269 89 395 108 118 18 498 19 625 1 52 -8
149 -23 215 -34 234 -39 333 -44 370 -19 11 8 96 34 165 51 159 39 388 50 561
25z m2001 -877 c110 -132 185 -272 253 -473 15 -44 30 -89 35 -100 51 -126 84
-273 130 -570 21 -143 30 -358 20 -496 -17 -221 -56 -380 -150 -609 -126 -309
-250 -649 -250 -689 0 -8 -4 -28 -10 -45 -13 -44 -37 -192 -50 -318 -9 -83 -9
-133 0 -215 13 -118 22 -153 43 -153 23 0 59 89 72 180 16 105 83 322 99 317
6 -2 16 -50 23 -108 12 -99 22 -144 59 -269 9 -30 19 -68 21 -85 11 -64 53
-65 53 -1 1 41 52 188 68 194 15 5 42 -57 42 -98 0 -54 36 -200 70 -285 60
-148 123 -245 160 -245 26 0 32 26 24 111 -3 43 -3 94 0 114 13 67 26 45 98
-160 11 -33 40 -101 64 -151 24 -50 53 -115 64 -145 54 -137 156 -323 216
-393 91 -107 211 -180 319 -195 22 -3 40 -10 40 -16 0 -19 -94 -73 -167 -96
-67 -22 -89 -24 -288 -23 -220 0 -260 5 -420 51 -248 72 -497 301 -653 603
-146 283 -196 540 -197 1010 0 307 15 409 99 700 32 107 41 134 181 520 94
259 105 326 105 640 0 163 -5 298 -13 350 -43 282 -56 357 -83 455 -14 47 -38
122 -49 150 -5 11 -22 56 -40 100 -47 119 -86 198 -137 273 -31 45 -46 78 -47
102 -1 32 4 38 62 77 35 24 70 43 77 43 7 0 33 -24 57 -52z m-1517 -3 c22 -8
46 -15 54 -15 26 0 184 -80 249 -127 83 -59 162 -131 162 -149 0 -23 -16 -24
-119 -4 -56 11 -136 20 -179 20 l-76 0 -51 50 c-42 42 -59 51 -105 60 -37 7
-67 7 -90 0 -68 -19 -73 -10 -43 74 32 89 107 123 198 91z m-4334 -147 c25
-28 29 -41 29 -87 0 -43 -9 -74 -49 -160 -80 -173 -114 -261 -154 -401 -60
-206 -74 -292 -87 -528 -12 -200 -2 -461 21 -574 48 -239 96 -369 247 -678
176 -360 238 -540 271 -785 58 -425 35 -793 -69 -1080 -94 -261 -305 -543
-520 -697 -219 -156 -415 -218 -692 -218 -323 0 -510 65 -697 244 -122 117
-241 337 -241 446 0 32 12 23 60 -43 97 -133 236 -260 345 -314 145 -73 374
-123 554 -123 231 1 406 62 569 200 210 178 372 450 455 765 43 164 67 320 67
441 0 224 -54 519 -125 689 -30 69 -205 413 -225 440 -4 6 -38 71 -75 145 -38
74 -82 155 -98 178 -53 78 -57 38 -24 -213 8 -66 19 -208 22 -315 4 -107 11
-219 16 -249 5 -30 7 -56 5 -58 -11 -12 -42 19 -91 93 -49 72 -59 83 -72 72
-13 -11 -14 -34 -8 -153 3 -77 10 -169 14 -205 9 -71 6 -90 -14 -90 -16 0 -33
28 -115 185 -106 203 -131 246 -141 240 -13 -9 -11 -84 6 -194 21 -131 17
-466 -5 -466 -27 0 -69 96 -125 290 -39 134 -91 280 -99 280 -6 0 -18 -34 -28
-75 -35 -137 -64 -131 -104 21 -28 107 -42 155 -54 184 -4 11 -11 28 -14 38
-13 39 -38 10 -82 -91 -24 -57 -44 -110 -44 -117 0 -22 -26 -37 -38 -22 -19
22 -33 490 -21 681 6 106 7 172 1 178 -12 12 -152 -157 -236 -284 -64 -97
-151 -192 -166 -183 -6 3 -10 16 -10 27 0 23 -1 21 60 213 22 72 42 144 43
160 2 29 0 30 -43 33 -25 2 -49 7 -53 11 -11 11 15 61 66 131 35 47 231 285
247 300 3 3 39 43 80 90 144 164 411 441 422 438 4 -2 10 -122 12 -268 3 -237
26 -589 42 -662 15 -64 52 -8 73 108 6 32 17 109 26 169 8 61 20 144 26 185
29 212 56 357 91 490 11 41 26 100 34 130 21 80 62 196 97 270 58 124 219 372
419 645 50 68 139 155 159 155 6 0 23 -15 40 -32z m4779 -283 c147 -53 248
-138 354 -299 87 -131 136 -254 136 -343 0 -75 -18 -57 -76 74 -82 184 -198
291 -394 361 -69 24 -87 27 -230 27 -149 0 -157 -1 -212 -28 -106 -52 -171
-144 -260 -372 -28 -71 -57 -137 -63 -145 -7 -8 -20 -30 -29 -47 -9 -18 -23
-33 -31 -33 -24 0 -28 46 -16 164 19 182 59 301 147 433 61 92 135 163 209
200 75 39 98 43 250 39 121 -4 150 -8 215 -31z m-270 -340 c49 -31 60 -51 60
-113 0 -41 -6 -57 -34 -94 -60 -78 -115 -85 -231 -30 -33 16 -68 32 -78 35
-21 8 -16 39 15 102 57 115 175 159 268 100z m-2987 -28 c50 -31 97 -84 97
-108 0 -14 -48 -49 -144 -103 -47 -26 -57 -28 -127 -23 -85 5 -146 31 -172 71
-66 101 84 216 258 198 22 -3 62 -18 88 -35z m-441 -278 c-6 -142 23 -275 80
-367 31 -50 12 -61 -50 -27 -99 54 -192 172 -192 245 0 59 124 259 161 260 3
0 3 -50 1 -111z m3118 4 c0 -75 63 -223 136 -320 13 -17 24 -36 24 -42 0 -17
-32 -28 -102 -36 -68 -7 -79 -13 -55 -33 52 -43 388 -101 518 -89 125 11 261
107 350 247 81 126 74 120 109 82 34 -37 36 -54 15 -106 -15 -34 -76 -136 -99
-163 -17 -20 -142 -123 -150 -123 -3 0 -23 -10 -44 -23 -72 -45 -140 -59 -294
-59 -176 1 -327 31 -406 80 -28 18 -152 171 -152 188 0 7 17 21 38 31 l37 18
0 105 c0 95 16 199 35 225 4 6 10 22 14 38 10 43 26 31 26 -20z m828 -88 c4
-66 -37 -162 -89 -209 -44 -40 -109 -76 -138 -76 -43 0 -32 24 42 94 69 64
137 156 137 184 0 6 5 23 10 37 15 40 35 25 38 -30z m-3162 3 c11 -21 18 -58
18 -100 1 -63 -1 -69 -33 -102 -43 -44 -137 -94 -151 -80 -7 7 6 45 39 115 27
57 58 125 69 152 12 26 26 47 31 47 6 0 18 -15 27 -32z m1491 -1838 c200 -12
280 -30 356 -81 65 -43 99 -96 105 -164 2 -30 2 -66 -2 -80 l-6 -25 -163 0
c-89 -1 -207 -5 -262 -11 -55 -6 -237 -12 -405 -14 -277 -3 -312 -5 -385 -25
-148 -41 -155 -42 -181 -25 -46 30 -44 93 6 191 67 133 162 204 309 229 96 16
396 18 628 5z m-441 -794 c-26 -75 -66 -121 -123 -140 -97 -33 -259 -12 -296
39 -23 32 -18 61 8 57 164 -26 244 -8 338 76 54 49 61 52 75 38 15 -14 15 -21
-2 -70z m509 76 c6 -4 16 -25 23 -48 6 -22 20 -48 30 -57 28 -26 100 -47 158
-47 29 0 55 -4 59 -10 3 -5 -16 -19 -42 -30 -26 -11 -56 -25 -65 -30 -10 -6
-48 -10 -84 -10 -88 0 -126 26 -144 99 -21 89 17 167 65 133z m-1999 -864 c32
-29 67 -60 77 -69 47 -43 181 -132 260 -174 49 -25 159 -90 245 -143 165 -103
270 -161 337 -185 22 -8 65 -24 95 -35 144 -55 166 -62 181 -62 9 0 22 -6 28
-13 8 -11 0 -26 -39 -68 -92 -99 -200 -250 -200 -279 0 -29 131 1 203 47 25
16 43 21 49 15 13 -13 -26 -106 -96 -227 -31 -54 -56 -104 -56 -112 0 -43 86
-11 198 73 120 90 294 205 306 201 26 -8 15 -98 -24 -192 -4 -11 -15 -38 -23
-60 -9 -22 -33 -83 -53 -135 -40 -101 -56 -190 -34 -190 14 0 228 145 280 190
19 16 40 28 45 26 6 -2 9 -21 7 -42 -4 -51 -60 -277 -101 -414 -13 -43 -14
-40 2 -40 6 1 48 35 92 77 91 86 143 128 150 121 3 -3 8 -142 11 -309 3 -167
9 -308 14 -313 6 -5 16 -4 26 5 38 32 146 182 175 244 19 40 35 63 41 57 8 -8
-4 -640 -19 -939 -3 -81 -2 -103 9 -103 16 0 126 177 198 318 29 57 57 101 64
99 15 -5 14 -200 -2 -292 -32 -181 -66 -316 -117 -470 -29 -85 -35 -136 -17
-142 7 -3 56 38 109 91 89 89 113 108 113 89 0 -5 -14 -46 -31 -93 -33 -92
-51 -146 -93 -285 -16 -49 -35 -107 -42 -128 -8 -20 -14 -48 -14 -62 0 -46 22
-40 78 21 168 185 272 327 371 504 97 174 118 200 135 172 6 -10 -10 -142 -23
-197 -6 -22 -19 -76 -30 -120 -25 -100 -41 -157 -76 -265 -30 -92 -37 -145
-18 -145 18 0 162 117 251 206 67 66 225 264 305 382 10 15 18 19 26 12 10
-10 -12 -121 -54 -270 -47 -166 -37 -194 42 -112 76 78 221 296 290 435 68
136 80 155 95 146 12 -7 10 -116 -4 -212 -20 -145 -4 -138 173 81 71 87 91
101 103 71 13 -33 6 -378 -8 -425 -20 -66 -24 -121 -8 -127 31 -10 236 230
297 348 24 46 50 39 68 -18 38 -116 51 -299 28 -414 -13 -66 -10 -105 7 -94
16 9 147 287 170 358 10 31 24 54 33 56 40 8 52 -120 39 -407 -12 -233 -7
-255 42 -199 15 18 51 67 79 108 57 83 76 100 85 75 12 -31 -34 -211 -84 -330
-31 -72 -102 -262 -102 -271 0 -2 14 -4 30 -4 30 0 37 -8 21 -25 -5 -6 -23
-37 -41 -70 -18 -33 -94 -150 -168 -260 -150 -223 -196 -301 -188 -322 8 -21
33 -4 128 87 80 77 101 90 112 71 8 -13 -55 -122 -113 -195 -53 -68 -226 -323
-283 -418 -22 -37 -34 -66 -29 -71 6 -6 46 11 98 40 48 27 118 64 155 82 37
17 70 36 73 41 4 6 15 10 26 10 26 0 20 -22 -34 -109 -73 -120 -148 -206 -298
-341 -52 -47 -96 -87 -99 -90 -3 -3 -54 -48 -115 -101 -105 -90 -239 -191
-316 -237 -34 -20 -69 -29 -69 -17 0 3 36 79 80 169 82 167 87 181 71 190 -30
19 -245 -149 -356 -279 -262 -305 -381 -526 -524 -975 -58 -183 -56 -175 -105
-280 -51 -110 -122 -202 -308 -405 -49 -54 -66 -40 -44 36 27 88 18 259 -13
259 -5 0 -19 -20 -31 -46 -12 -25 -40 -68 -62 -97 -22 -29 -56 -73 -75 -99
-48 -66 -68 -64 -60 5 18 154 29 308 24 322 -4 8 -11 15 -17 15 -14 0 -118
-142 -180 -247 -29 -49 -68 -115 -88 -148 -76 -129 -300 -405 -328 -405 -10 0
-14 27 -16 103 -3 103 -10 118 -35 74 -34 -60 -89 -195 -130 -317 -24 -74 -48
-139 -53 -144 -5 -5 -20 -6 -34 -2 -26 6 -99 112 -132 191 -42 103 -92 201
-109 215 -15 13 -19 12 -36 -9 -11 -13 -19 -31 -19 -40 -1 -20 -23 -51 -38
-51 -6 0 -22 33 -37 73 -27 72 -85 185 -131 258 -13 21 -24 42 -24 47 0 5 -9
17 -20 27 -17 16 -20 16 -26 2 -3 -8 -1 -32 5 -54 13 -47 14 -140 2 -148 -17
-10 -77 74 -190 263 -60 101 -111 188 -113 194 -3 7 -10 8 -18 3 -10 -6 -11
-37 -6 -149 4 -78 8 -152 9 -166 1 -14 -2 -27 -8 -30 -17 -9 -269 312 -337
430 -56 97 -262 519 -298 610 -28 70 -16 86 44 55 15 -8 37 -15 47 -15 72 0
-10 114 -287 400 -128 132 -330 349 -443 475 -97 109 -251 265 -261 265 -5 0
-10 -7 -10 -15 0 -29 62 -201 102 -285 44 -91 152 -264 199 -318 53 -61 34
-67 -61 -21 -35 17 -89 40 -119 51 -31 11 -100 38 -153 59 -103 42 -118 45
-118 28 0 -13 79 -118 197 -262 87 -105 110 -147 81 -147 -7 0 -53 13 -103 29
-49 15 -115 34 -145 41 -91 21 -223 62 -264 82 -60 30 -68 10 -22 -56 45 -65
147 -164 269 -260 48 -38 87 -75 87 -82 0 -10 -17 -12 -79 -7 -57 4 -80 2 -86
-7 -16 -26 45 -111 187 -259 205 -212 327 -349 348 -391 25 -50 41 -108 64
-240 17 -98 24 -133 50 -280 9 -47 23 -123 31 -170 9 -47 20 -101 25 -120 4
-19 16 -71 25 -115 10 -44 24 -109 32 -145 25 -117 32 -154 48 -245 52 -306
46 -290 221 -531 137 -190 150 -211 179 -300 44 -134 29 -270 -46 -422 -54
-108 -122 -177 -221 -226 -98 -48 -166 -66 -338 -85 -114 -13 -145 -19 -145
-31 0 -18 32 -34 111 -55 32 -9 77 -22 99 -28 23 -6 119 -11 224 -12 132 0
185 -3 188 -12 6 -17 -62 -89 -133 -139 -35 -25 -109 -68 -166 -97 -56 -29
-102 -56 -103 -62 0 -5 18 -11 40 -13 22 -1 63 -7 90 -13 108 -22 214 -38 302
-44 60 -5 96 -12 104 -21 6 -8 39 -69 74 -136 102 -202 183 -355 208 -395 66
-106 104 -237 71 -250 -20 -7 -47 18 -99 97 -25 36 -58 80 -75 99 -50 56 -56
36 -40 -134 11 -119 11 -163 0 -247 -16 -127 -55 -240 -87 -252 -16 -7 -33 24
-33 60 0 15 -5 45 -11 68 -6 22 -18 68 -26 101 -30 113 -74 239 -109 310 -42
85 -99 165 -118 165 -18 0 -40 -66 -60 -180 -27 -151 -73 -332 -105 -405 -56
-131 -145 -255 -183 -255 -28 0 -49 37 -69 126 -26 111 -35 133 -55 141 -23 8
-38 -11 -88 -113 -43 -89 -85 -138 -114 -132 -51 10 -55 336 -9 613 14 88 16
227 2 232 -18 6 -92 -118 -117 -197 -36 -109 -47 -161 -63 -290 -17 -135 -19
-299 -5 -425 12 -100 3 -135 -34 -135 -41 1 -106 129 -106 208 0 46 -30 241
-41 270 -5 14 -16 22 -26 20 -39 -8 -67 -77 -115 -290 -8 -31 -16 -60 -20 -63
-11 -11 -79 27 -96 54 -15 22 -17 62 -17 325 0 191 -4 301 -10 303 -13 4 -68
-78 -96 -142 -40 -95 -70 -200 -80 -285 -14 -130 -22 -155 -45 -158 -15 -2
-25 6 -37 35 -31 71 -40 128 -39 238 1 216 63 384 226 610 175 241 241 360
299 535 65 194 72 238 71 425 0 148 -3 180 -23 245 -12 41 -27 89 -31 105 -5
17 -17 55 -26 85 -32 105 -31 124 11 255 11 35 26 85 56 190 39 139 43 165 43
300 0 149 -5 176 -85 440 -37 121 -205 622 -260 778 -54 151 -187 548 -206
617 -46 165 -75 308 -93 454 -18 141 -19 447 -1 516 41 160 52 201 70 265 26
86 37 233 23 300 -6 28 -33 117 -61 198 -53 153 -62 184 -112 377 -30 116 -37
150 -65 315 -51 303 -66 736 -33 990 17 132 45 273 74 375 7 25 20 72 30 105
65 230 199 526 355 789 70 117 169 243 185 235 6 -2 9 -20 8 -39 -14 -211 -14
-280 1 -355 20 -103 59 -210 76 -210 17 0 45 47 80 133 26 64 46 87 54 60 5
-16 33 -117 48 -173 45 -170 116 -310 146 -291 7 4 12 28 12 54 1 55 10 99 40
202 31 104 52 160 59 160 3 0 19 -35 35 -78 15 -42 46 -113 68 -157 72 -145
195 -311 215 -291 9 9 6 120 -8 267 -5 59 -6 114 -3 123 12 31 33 15 64 -51
40 -87 100 -181 164 -262 69 -86 323 -290 344 -277 5 3 -5 48 -23 103 -38 116
-74 234 -85 283 -40 176 -50 231 -50 281 0 32 4 61 10 64 5 3 34 -27 64 -67
140 -187 491 -491 536 -463 15 9 12 30 -14 108 -13 40 -43 133 -66 207 -24 74
-53 167 -65 205 -25 75 -55 179 -55 189 0 3 6 6 14 6 17 0 65 -53 113 -126 20
-30 41 -53 47 -51 14 5 10 97 -5 152 -25 87 -81 224 -121 295 -40 71 -63 114
-137 269 -33 69 -32 94 3 63 41 -38 209 -152 223 -152 11 0 14 7 9 28 -8 33
-166 346 -211 416 -58 91 -86 148 -81 162 4 10 33 -3 106 -48 78 -48 103 -59
112 -50 10 10 8 19 -5 40 -10 15 -29 52 -43 82 -14 30 -30 64 -36 74 -124 232
-136 292 -44 222 25 -20 48 -36 51 -36 11 0 4 24 -17 53 -41 57 -231 434 -242
479 -9 38 11 45 42 15 36 -33 215 -120 238 -115 14 3 18 11 16 32 -5 41 -79
197 -140 291 -31 48 -47 84 -42 89 6 6 15 4 25 -4 12 -10 15 -10 15 3 0 9 -5
29 -11 44 -6 15 -15 37 -19 48 -4 11 -42 90 -83 175 -81 165 -112 244 -102
260 9 15 23 4 141 -110 166 -160 360 -298 384 -274 11 11 -9 42 -216 336 -88
125 -164 246 -164 262 0 14 31 46 45 46 6 0 38 -24 71 -52z m682 -71 c380
-103 831 -165 1104 -153 209 9 324 25 553 77 38 9 159 30 275 48 30 5 63 12
73 16 70 28 -69 -102 -199 -187 -62 -40 -158 -79 -319 -128 -182 -56 -682 -55
-950 0 -135 28 -290 77 -370 117 -152 76 -316 197 -301 222 10 16 37 14 134
-12z m3606 -6155 c13 -22 -152 -194 -294 -307 -41 -33 -77 -62 -80 -65 -16
-16 -112 -91 -163 -127 -55 -39 -77 -46 -77 -23 0 31 273 327 380 412 52 42
187 116 212 117 9 1 19 -3 22 -7z m1401 -286 c39 -19 107 -49 151 -67 186 -77
265 -144 300 -256 15 -46 15 -64 6 -121 -38 -220 -61 -429 -62 -538 0 -94 -18
-113 -53 -57 -13 21 -37 66 -53 101 -30 66 -54 81 -54 34 0 -16 -10 -55 -23
-88 -13 -32 -36 -104 -52 -159 -16 -55 -32 -104 -37 -110 -15 -17 -36 19 -68
120 -18 55 -38 114 -46 132 -8 17 -14 35 -14 40 0 4 -9 19 -19 32 l-18 24 -58
-77 c-49 -65 -60 -74 -73 -64 -12 11 -14 39 -9 188 3 96 10 189 15 207 15 48
19 158 6 158 -12 0 -145 -175 -284 -374 -46 -67 -89 -120 -95 -118 -5 3 -9 19
-7 37 3 38 56 231 102 370 34 105 172 391 227 473 39 58 122 147 137 147 5 0
41 -15 81 -34z m-7936 -320 c14 -16 24 -80 46 -276 30 -275 37 -313 132 -660
8 -30 18 -71 23 -90 27 -118 69 -246 106 -325 20 -41 24 -59 16 -67 -19 -19
-81 7 -149 62 -34 27 -64 46 -67 41 -5 -8 4 -36 33 -106 11 -24 90 -184 158
-320 76 -150 86 -173 79 -190 -7 -20 -25 -11 -81 40 -65 59 -286 236 -302 242
-12 5 -14 1 -8 -18 9 -27 159 -275 183 -302 26 -30 3 -41 -59 -28 -41 9 -54 9
-60 -1 -19 -30 33 -157 123 -303 37 -60 68 -113 68 -117 0 -19 -37 -20 -84 -3
-93 33 -219 125 -368 271 -103 100 -150 156 -181 214 -44 83 -49 45 -32 -266
6 -122 5 -163 -4 -168 -26 -17 -190 137 -281 262 -91 126 -130 305 -130 593 0
182 20 356 56 484 9 33 19 74 24 90 13 54 83 208 138 305 90 158 192 291 321
418 76 75 263 232 277 232 6 0 17 -6 23 -14z m6455 -174 c2 -4 -18 -35 -46
-67 -113 -133 -129 -153 -183 -220 -50 -62 -165 -237 -165 -250 0 -3 7 -5 16
-5 20 0 44 14 229 136 144 94 323 200 347 206 29 6 21 -12 -47 -107 -38 -55
-76 -111 -84 -125 -42 -78 -71 -141 -71 -154 0 -8 -4 -25 -9 -38 -5 -13 -22
-61 -36 -108 -15 -47 -29 -91 -32 -97 -11 -29 28 -22 88 14 112 68 178 98 187
88 6 -6 -1 -33 -18 -70 -57 -122 -78 -171 -93 -215 -8 -25 -21 -58 -27 -75 -7
-16 -16 -39 -20 -50 -41 -108 -62 -157 -112 -264 -48 -101 -81 -198 -74 -217
4 -10 36 5 115 52 61 36 115 63 120 59 6 -3 -22 -47 -60 -97 -110 -143 -178
-260 -244 -413 -69 -162 -78 -202 -73 -313 5 -112 23 -159 131 -340 116 -193
137 -245 137 -333 0 -43 -7 -76 -25 -115 -14 -30 -25 -57 -25 -60 0 -3 -6 -20
-14 -37 -7 -18 -19 -45 -26 -62 -64 -154 -54 -338 35 -660 10 -33 21 -73 25
-90 40 -149 77 -230 169 -378 154 -247 255 -489 256 -611 0 -41 -3 -51 -18
-54 -27 -5 -52 21 -96 102 -88 162 -263 348 -436 466 -27 18 -81 60 -119 93
-38 32 -79 63 -92 67 -36 14 -682 21 -729 8 -77 -21 -86 -58 -15 -58 22 0 57
-7 77 -15 67 -26 186 -56 280 -70 80 -12 100 -12 160 1 139 30 167 34 230 34
38 0 79 -6 97 -15 44 -21 99 -98 118 -165 35 -123 58 -354 58 -588 0 -144 -2
-167 -21 -207 -25 -54 -41 -68 -71 -63 -20 3 -23 10 -26 48 -9 169 -75 465
-123 552 -5 10 -9 22 -9 27 0 17 -62 145 -91 187 -31 45 -94 83 -111 66 -11
-11 -7 -215 11 -634 12 -275 9 -301 -36 -296 -24 3 -32 13 -60 78 -17 41 -36
86 -41 100 -34 89 -52 125 -65 128 -20 4 -53 -41 -117 -158 -60 -109 -76 -130
-101 -130 -32 0 -87 32 -98 56 -24 53 -58 15 -46 -49 4 -22 3 -37 -5 -42 -19
-12 -64 14 -90 52 -25 37 -25 39 -23 237 0 111 6 263 12 339 11 135 7 177 -19
177 -11 0 -64 -81 -107 -165 -39 -76 -112 -388 -131 -560 -7 -64 -21 -77 -56
-50 -29 22 -46 145 -54 397 -8 233 -16 274 -48 247 -15 -12 -44 -109 -63 -205
-14 -74 -14 -244 0 -303 8 -36 7 -47 -5 -59 -31 -31 -93 8 -123 78 -44 103
-47 124 -48 275 0 211 14 260 172 585 199 408 218 467 244 740 17 186 4 296
-58 475 -86 248 -85 306 5 480 34 66 57 104 164 270 92 144 161 268 201 365
30 73 71 229 81 305 4 28 11 70 16 95 8 41 24 166 51 395 18 154 40 296 61
390 10 50 22 101 25 115 11 50 93 211 156 307 101 152 192 249 327 348 46 34
402 223 422 225 4 0 9 -4 12 -8z m1786 -3633 c84 -9 129 -17 265 -45 150 -32
264 -80 403 -171 81 -53 222 -183 275 -254 25 -33 36 -69 21 -69 -3 0 -40 32
-82 70 -41 39 -82 70 -91 68 -33 -6 -24 -92 24 -243 42 -130 56 -206 53 -295
-3 -77 -5 -85 -24 -88 -25 -4 -29 4 -100 216 -89 264 -152 378 -285 516 -115
118 -116 110 -23 -174 24 -74 48 -148 53 -165 28 -86 65 -399 50 -426 -20 -39
-45 -21 -119 84 -144 203 -170 223 -189 150 -17 -69 -41 -188 -41 -205 0 -10
-7 -36 -16 -58 -14 -35 -20 -40 -49 -40 -62 0 -89 61 -255 565 -39 116 -77
233 -86 260 -31 92 -45 87 -69 -25 -30 -147 -40 -339 -28 -596 6 -131 8 -245
6 -251 -12 -30 -49 -10 -124 66 -111 113 -161 224 -184 406 -9 68 -26 115 -43
115 -31 0 -71 -139 -87 -305 -8 -75 -22 -105 -50 -105 -24 0 -42 33 -72 135
-13 45 -17 96 -17 205 0 142 0 147 33 225 100 237 283 399 497 439 82 16 189
14 354 -5z m-8581 -103 c80 -29 80 -29 -19 -132 -120 -126 -168 -225 -203
-414 -34 -184 -38 -219 -45 -320 l-7 -105 -190 1 c-202 0 -365 17 -404 41 -23
15 -23 17 -18 126 3 62 12 148 21 191 9 44 14 81 12 83 -13 14 -65 -46 -92
-107 -6 -14 -21 -47 -33 -75 -54 -122 -98 -198 -123 -214 -15 -9 -25 -9 -46 1
-24 12 -27 20 -30 68 -8 139 85 383 213 555 62 84 113 131 203 188 114 73 243
118 377 131 97 9 340 -2 384 -18z m280 -107 c51 -24 161 -128 161 -151 0 -10
-51 -71 -114 -136 -110 -116 -115 -124 -185 -268 -106 -220 -116 -238 -143
-253 -14 -8 -33 -11 -43 -7 -16 6 -17 16 -12 109 12 214 92 473 189 615 37 53
88 112 97 112 4 0 27 -9 50 -21z"/>
<path d="M8358 15464 c-12 -11 28 -129 85 -254 59 -132 81 -217 95 -385 6 -74
9 -80 30 -83 30 -4 87 39 106 81 32 66 46 134 46 218 0 87 -13 132 -46 160 -8
7 -37 45 -65 84 -42 61 -57 75 -103 94 -29 12 -72 37 -94 56 -42 37 -45 38
-54 29z"/>
<path d="M8710 14015 c-20 -37 -2 -49 38 -24 38 22 38 43 1 47 -18 2 -29 -4
-39 -23z"/>
<path d="M10213 9597 c-6 -6 -27 -57 -48 -112 -43 -113 -219 -480 -272 -567
-22 -37 -41 -58 -53 -58 -23 0 -79 88 -148 230 -65 136 -132 347 -132 420 0
97 -85 -29 -114 -170 -33 -156 -12 -339 56 -490 11 -24 24 -54 29 -65 5 -11
22 -42 39 -70 16 -27 34 -59 39 -70 26 -57 120 -180 138 -183 24 -4 63 36 224
228 168 201 285 387 324 515 27 89 12 240 -34 348 -22 51 -34 62 -48 44z"/>
<path d="M6936 9443 c-10 -10 -7 -50 6 -80 68 -163 108 -224 237 -356 85 -88
178 -163 266 -217 72 -44 423 -222 462 -234 39 -12 34 12 -17 84 -77 107 -71
153 11 84 24 -20 134 -101 244 -180 172 -123 378 -278 478 -358 51 -40 116
-71 127 -60 13 13 -56 133 -206 360 -172 261 -340 460 -373 440 -6 -4 5 -38
25 -82 35 -77 36 -94 6 -94 -30 0 -147 90 -271 208 -75 72 -296 226 -310 217
-20 -12 -4 -105 26 -150 17 -25 17 -55 0 -55 -8 0 -61 31 -118 69 -108 71
-286 181 -294 181 -11 0 -166 117 -226 170 -37 33 -69 56 -73 53z"/>
<path d="M12190 9004 c-57 -20 -269 -123 -335 -163 -27 -17 -57 -34 -65 -37
-8 -4 -98 -62 -200 -130 -199 -131 -315 -193 -331 -177 -6 6 -5 22 5 44 7 19
16 51 20 72 6 29 4 37 -8 37 -9 0 -20 -9 -26 -19 -5 -11 -37 -56 -70 -100 -62
-82 -131 -208 -190 -346 -19 -44 -60 -131 -92 -194 -32 -62 -58 -115 -58 -117
0 -31 307 156 565 345 194 143 308 237 510 426 66 61 142 131 169 156 27 24
78 77 113 118 81 94 79 114 -7 85z"/>
<path d="M10698 8388 c-150 -169 -249 -310 -316 -451 -66 -137 -77 -166 -64
-179 36 -36 305 234 415 417 46 76 68 143 70 209 2 99 -19 100 -105 4z"/>
<path d="M9734 7652 c-12 -7 -53 -93 -85 -177 -11 -27 -23 -59 -28 -70 -93
-219 -131 -437 -100 -572 25 -107 32 -131 65 -201 41 -90 90 -162 109 -162 17
0 21 14 35 150 11 110 35 292 51 396 12 80 12 264 -1 389 -6 55 -13 135 -16
178 -6 76 -9 83 -30 69z"/>
<path d="M8010 3606 c-127 -55 -194 -67 -379 -67 -170 0 -268 14 -364 54 -47
20 -57 6 -31 -45 63 -123 180 -235 286 -275 63 -23 189 -20 256 5 63 24 127
61 163 94 97 87 202 272 151 267 -4 0 -41 -15 -82 -33z"/>
<path d="M7172 2355 c-69 -19 -114 -43 -109 -58 3 -11 100 -34 242 -57 33 -5
152 -15 264 -22 187 -10 209 -10 280 7 93 22 123 39 119 67 -3 24 -50 37 -208
59 -144 19 -522 22 -588 4z"/>
<path d="M11336 3653 c-12 -13 -5 -39 29 -106 80 -155 165 -256 277 -329 43
-28 78 -55 78 -60 0 -5 -11 -24 -25 -42 -31 -41 -42 -88 -23 -103 44 -34 317
-58 394 -34 16 5 56 17 89 27 70 21 125 51 125 68 0 22 -68 48 -192 73 -16 3
-28 11 -28 19 0 7 38 38 84 69 47 31 105 78 129 106 51 58 145 219 154 261 7
36 -4 36 -76 -2 -151 -79 -333 -110 -541 -90 -176 17 -280 47 -412 119 -30 17
-58 28 -62 24z"/>
<path d="M11743 2745 c-18 -49 94 -89 247 -89 88 0 112 4 146 22 59 30 78 51
63 68 -9 11 -55 14 -231 14 -187 0 -219 -2 -225 -15z"/>
</g>
</svg>
