<?xml version="1.0" standalone="no"?>
<!DOCTYPE svg PUBLIC "-//W3C//DTD SVG 20010904//EN"
 "http://www.w3.org/TR/2001/REC-SVG-20010904/DTD/svg10.dtd">
<svg version="1.0" xmlns="http://www.w3.org/2000/svg"
 width="1857.015704pt" height="1713.172773pt" viewBox="0 0 1857.015704 1713.172773"
 preserveAspectRatio="xMidYMid meet">

<g transform="translate(-60.434370,1785.805753) scale(0.100000,-0.100000)"
fill="#000000" stroke="none">
<path d="M5015 17849 c-513 -64 -741 -119 -968 -235 -169 -86 -271 -162 -471
-349 -305 -287 -540 -474 -718 -573 -29 -17 -82 -47 -118 -67 -59 -34 -332
-169 -420 -208 -19 -8 -62 -27 -95 -42 -33 -15 -78 -35 -100 -45 -22 -10 -69
-30 -105 -45 -78 -33 -189 -82 -211 -94 -9 -5 -54 -25 -100 -44 -46 -19 -115
-49 -154 -67 -38 -18 -91 -40 -117 -51 -73 -29 -305 -147 -377 -192 -235 -147
-388 -341 -439 -558 -38 -164 -12 -611 52 -889 26 -115 57 -234 66 -255 4 -11
16 -45 24 -75 9 -30 21 -64 26 -75 5 -11 23 -51 39 -88 17 -38 31 -70 31 -73
0 -2 18 -41 39 -87 22 -45 55 -116 74 -157 19 -41 57 -122 85 -180 74 -156 92
-197 92 -213 0 -7 3 -17 7 -21 10 -10 49 -121 78 -221 9 -33 21 -73 27 -90 24
-77 20 -255 -13 -580 -18 -172 -22 -412 -9 -478 30 -152 72 -219 176 -282 72
-44 138 -58 274 -58 209 0 344 49 465 170 127 128 195 255 290 541 34 102 66
187 71 189 5 1 50 -33 99 -78 57 -51 116 -93 160 -114 77 -37 218 -85 250 -85
11 0 31 -9 44 -19 21 -16 24 -30 36 -167 20 -222 36 -467 45 -664 4 -96 14
-268 21 -381 14 -238 9 -285 -60 -509 -21 -69 -49 -159 -61 -200 -12 -41 -35
-113 -50 -160 -24 -76 -56 -179 -95 -310 -7 -25 -21 -79 -30 -120 -9 -41 -20
-91 -25 -110 -10 -39 -32 -168 -52 -305 -18 -124 -18 -812 0 -950 29 -225 59
-418 78 -510 50 -240 52 -245 116 -440 42 -128 81 -231 118 -320 5 -11 16 -38
25 -60 58 -139 76 -178 134 -295 96 -194 200 -369 349 -585 191 -278 338 -452
638 -751 154 -155 228 -236 244 -269 12 -25 33 -106 46 -178 24 -140 33 -176
66 -272 84 -246 205 -446 368 -605 90 -88 169 -147 299 -221 103 -59 125 -85
135 -158 10 -71 25 -138 71 -321 42 -167 138 -383 227 -515 51 -75 185 -232
235 -275 21 -18 63 -56 93 -84 193 -182 528 -425 765 -556 33 -18 76 -42 95
-53 85 -48 572 -287 585 -287 2 0 38 -16 79 -35 42 -19 79 -35 82 -35 3 0 35
-13 71 -30 35 -16 71 -30 78 -30 8 0 16 -4 19 -9 3 -5 16 -11 28 -14 13 -3 48
-15 78 -27 186 -73 492 -176 820 -276 114 -34 376 -100 515 -128 44 -10 96
-21 115 -26 19 -5 73 -16 120 -25 47 -9 105 -21 130 -26 183 -36 245 -42 440
-43 208 0 232 3 355 46 43 15 222 87 274 110 24 10 67 28 95 39 28 11 60 23
71 28 116 49 339 124 510 171 247 67 333 90 420 111 44 11 102 26 129 34 26 8
53 15 60 15 30 0 393 121 511 170 17 7 46 19 65 28 40 16 170 81 221 110 19
10 61 34 94 52 162 90 630 397 779 511 112 86 287 248 383 354 203 224 300
413 388 755 59 230 50 216 175 255 214 66 369 157 527 309 185 177 324 377
408 585 72 181 118 405 129 623 3 59 10 117 17 130 6 13 90 100 184 193 217
214 362 407 615 820 93 151 300 558 300 588 0 4 11 30 24 59 114 254 199 550
276 958 33 170 60 508 60 730 -1 327 -36 608 -142 1115 -15 73 -67 286 -77
315 -5 14 -21 66 -36 115 -16 50 -50 157 -77 238 -82 250 -78 194 -78 1057 0
723 1 770 18 778 9 5 58 15 107 22 134 19 196 54 395 224 84 72 85 72 154
-139 108 -333 150 -430 230 -533 148 -194 320 -274 586 -275 119 0 133 2 183
27 110 53 202 163 243 291 26 81 26 358 1 520 -10 61 -22 139 -28 175 -5 36
-14 115 -19 175 -5 61 -12 143 -16 183 -10 101 28 262 97 410 16 35 29 65 29
68 0 3 53 111 118 242 193 390 231 486 291 737 54 227 65 326 65 615 1 223 -2
278 -17 345 -65 282 -232 478 -527 618 -169 80 -464 207 -481 207 -4 0 -37 14
-72 30 -36 17 -68 30 -71 30 -4 0 -25 9 -49 19 -23 11 -80 35 -127 54 -82 34
-119 50 -278 123 -41 19 -76 34 -78 34 -3 0 -43 18 -90 40 -47 22 -87 40 -90
40 -3 0 -33 13 -67 29 -154 72 -219 101 -224 101 -7 0 -186 90 -263 132 -159
88 -365 246 -595 454 -212 193 -265 238 -362 308 -51 36 -94 66 -96 66 -2 0
-36 17 -74 38 -87 48 -247 112 -358 142 -137 37 -277 74 -310 80 -22 4 -71 15
-110 25 -38 9 -117 23 -175 31 -370 50 -536 19 -890 -164 -368 -191 -354 -187
-645 -187 -221 1 -251 4 -460 50 -33 7 -87 18 -120 25 -33 6 -89 18 -125 25
-275 56 -499 90 -860 132 -206 23 -788 24 -950 0 -240 -34 -345 -40 -562 -34
-117 4 -357 11 -533 17 -176 5 -367 14 -425 19 -342 34 -538 39 -765 21 -146
-12 -349 -37 -410 -51 -22 -4 -87 -18 -145 -29 -146 -29 -206 -43 -440 -99
-165 -40 -249 -58 -370 -83 -103 -21 -507 -18 -590 4 -97 26 -221 74 -300 116
-77 41 -293 149 -330 165 -151 64 -186 75 -340 103 -82 15 -275 16 -385 3z
m400 -184 c90 -17 203 -49 255 -72 92 -41 206 -99 291 -150 335 -199 348 -203
637 -203 181 0 356 17 467 44 33 8 354 86 425 102 36 9 81 19 100 24 19 5 49
11 65 14 17 3 62 12 100 21 383 84 754 118 1032 96 188 -15 461 -28 928 -43
602 -21 699 -18 965 24 97 15 685 14 835 -2 61 -6 155 -15 210 -20 55 -5 145
-16 200 -24 55 -9 128 -20 162 -25 67 -10 158 -28 213 -41 19 -5 67 -16 105
-25 76 -18 165 -42 205 -55 31 -10 141 -34 240 -52 48 -8 155 -13 295 -13 281
0 338 14 525 124 101 59 131 75 265 140 210 103 295 125 478 124 127 -1 224
-11 387 -39 125 -22 291 -60 390 -89 30 -9 69 -19 85 -24 72 -19 226 -88 300
-133 203 -126 439 -382 656 -713 175 -265 343 -624 464 -990 41 -123 102 -293
114 -320 6 -11 30 -73 56 -138 65 -168 132 -314 220 -477 53 -97 68 -121 219
-355 61 -94 116 -179 123 -190 39 -65 100 -174 110 -195 6 -14 21 -46 33 -73
12 -26 28 -68 35 -95 7 -26 23 -81 34 -122 12 -41 26 -93 33 -115 20 -71 118
-369 127 -390 5 -11 17 -45 27 -75 10 -30 22 -59 26 -64 4 -6 8 -16 8 -24 0
-8 6 -28 14 -45 8 -18 28 -68 46 -112 18 -44 44 -105 57 -135 40 -88 189 -408
273 -585 75 -158 78 -166 105 -240 51 -141 27 -193 -81 -182 -149 15 -324 179
-468 437 -49 88 -176 352 -176 365 0 3 -11 28 -24 57 -13 29 -31 73 -41 98
-10 25 -21 54 -26 65 -37 93 -141 484 -183 690 -9 44 -21 99 -26 123 -6 23
-10 55 -10 72 0 51 -39 193 -69 255 -17 33 -58 96 -92 140 -276 359 -438 643
-586 1030 -9 22 -19 49 -23 60 -5 11 -18 47 -29 80 -20 60 -54 153 -105 295
-15 41 -31 86 -36 100 -38 117 -220 513 -310 675 -180 325 -413 617 -610 763
-87 65 -248 131 -405 167 -219 50 -247 54 -384 65 -244 18 -366 -15 -528 -145
-135 -108 -284 -290 -343 -419 -32 -69 -32 -69 -22 -165 5 -53 8 -99 5 -103
-14 -25 -123 -3 -338 67 -53 17 -67 4 -34 -32 14 -16 48 -53 75 -83 274 -304
373 -393 768 -691 33 -26 74 -60 89 -76 23 -25 25 -32 14 -41 -11 -9 -26 -8
-63 2 -27 8 -89 16 -139 18 -85 3 -90 2 -93 -18 -4 -26 42 -66 331 -283 277
-208 390 -303 571 -480 301 -296 442 -475 864 -1099 453 -669 503 -772 592
-1212 5 -25 14 -67 20 -93 12 -55 26 -182 41 -372 5 -71 14 -440 18 -820 10
-747 7 -704 65 -865 30 -82 123 -364 139 -420 42 -149 63 -295 77 -535 13
-236 12 -424 -5 -735 -13 -230 -23 -321 -54 -515 -18 -110 -92 -416 -121 -495
-71 -201 -112 -309 -130 -342 -6 -10 -10 -22 -10 -28 0 -19 -130 -278 -189
-375 -102 -169 -343 -494 -384 -519 -27 -16 -44 13 -52 87 -15 142 -61 377
-130 672 -24 107 -37 206 -32 247 3 20 37 92 75 160 69 120 129 242 170 343
11 28 31 79 46 115 74 184 140 432 168 630 18 128 17 529 -1 635 -15 93 -47
255 -60 305 -89 356 -181 601 -228 608 -29 4 -31 -9 -37 -303 -7 -318 -29
-549 -72 -760 -30 -145 -88 -351 -124 -440 -4 -11 -16 -40 -25 -65 -10 -25
-24 -59 -31 -77 -8 -17 -14 -34 -14 -37 0 -8 -53 -121 -149 -318 -44 -91 -81
-170 -81 -176 0 -5 -8 -24 -17 -43 -29 -58 -22 -162 22 -309 8 -30 20 -68 24
-85 5 -16 28 -82 51 -145 58 -162 120 -340 130 -375 74 -262 75 -264 109 -458
28 -159 29 -381 2 -522 -31 -157 -81 -301 -111 -320 -21 -13 -56 38 -90 130
-25 67 -46 119 -78 195 -10 25 -25 61 -31 80 -7 19 -17 44 -21 55 -82 201
-159 431 -212 630 -5 22 -16 58 -23 80 -7 22 -23 74 -35 115 -12 41 -42 136
-66 210 -49 153 -55 171 -79 255 -10 33 -28 92 -40 130 -12 39 -29 95 -38 125
-50 166 -128 402 -197 590 -55 150 -72 212 -60 224 5 5 28 -5 57 -26 76 -56
145 -90 155 -80 25 25 -5 99 -185 445 -71 137 -71 139 4 206 362 319 574 658
762 1221 97 287 127 431 127 600 0 151 20 232 103 409 90 191 93 198 112 291
25 126 17 318 -20 450 -31 112 -48 166 -56 175 -5 5 -9 15 -9 21 0 7 -18 52
-40 99 -22 47 -40 88 -40 90 0 9 -130 222 -193 315 -274 408 -411 545 -717
712 -36 19 -87 48 -115 63 -78 44 -105 59 -170 95 -33 18 -64 36 -70 40 -5 4
-37 22 -70 40 -33 18 -127 77 -210 130 -376 244 -543 324 -825 393 -247 60
-376 77 -591 77 -188 0 -341 -18 -469 -55 -30 -9 -68 -20 -85 -24 -86 -22
-323 -157 -488 -278 -100 -73 -123 -76 -113 -15 3 21 24 76 47 123 136 279
387 526 609 600 92 30 277 35 495 14 94 -9 221 -21 283 -27 97 -10 115 -9 128
4 19 19 16 21 -98 81 -165 87 -315 124 -548 133 -251 10 -381 -20 -552 -130
-200 -128 -476 -424 -602 -646 -58 -104 -170 -338 -200 -420 -15 -41 -32 -86
-37 -100 -39 -95 -74 -224 -110 -410 -35 -183 -41 -464 -14 -665 27 -203 29
-254 12 -261 -48 -18 -230 181 -302 331 -40 85 -58 144 -84 275 -17 85 -41
397 -41 533 0 163 -25 375 -65 552 -7 33 -19 87 -25 120 -7 33 -18 85 -25 115
-52 218 -69 373 -62 583 7 204 16 311 58 635 33 264 35 730 4 922 -23 141 -45
210 -66 210 -32 0 -74 -68 -116 -187 -59 -169 -78 -257 -132 -628 -54 -368
-74 -782 -51 -1030 20 -209 43 -322 104 -510 30 -91 46 -151 76 -287 17 -80
23 -334 11 -493 -7 -82 -16 -210 -21 -284 -10 -134 -23 -205 -39 -216 -29 -17
-49 26 -122 255 -18 58 -36 112 -40 120 -4 8 -22 51 -40 95 -64 162 -159 324
-223 384 -24 22 -26 23 -33 6 -6 -17 9 -132 38 -295 53 -305 51 -650 -5 -841
-20 -65 -75 -166 -131 -238 -49 -64 -173 -185 -225 -221 -19 -13 -37 -27 -40
-31 -11 -15 -134 -59 -142 -51 -8 8 19 82 51 142 12 24 57 177 77 265 27 119
25 435 -4 560 -34 148 -50 200 -98 321 -72 182 -162 320 -295 451 -242 238
-489 371 -879 473 -262 69 -643 79 -895 24 -147 -32 -185 -43 -345 -99 -173
-60 -418 -196 -760 -420 -69 -45 -152 -97 -185 -115 -137 -76 -431 -267 -550
-359 -108 -83 -215 -190 -354 -356 -86 -102 -293 -407 -363 -535 -176 -318
-224 -510 -187 -740 10 -64 47 -185 75 -247 8 -17 14 -34 14 -37 0 -3 12 -31
26 -63 38 -88 41 -95 54 -133 7 -19 16 -84 20 -145 4 -60 13 -138 19 -173 12
-67 71 -189 158 -328 69 -109 95 -162 132 -274 109 -321 179 -477 296 -655
102 -154 174 -236 311 -355 22 -19 43 -43 47 -53 4 -11 -5 -47 -22 -90 -42
-103 -76 -202 -96 -277 -9 -36 -21 -75 -26 -88 -11 -29 -12 -79 0 -86 8 -6
112 65 237 162 76 59 95 58 76 -5 -68 -228 -136 -442 -247 -778 -56 -170 -114
-357 -130 -415 -15 -58 -33 -125 -40 -150 -7 -25 -17 -67 -23 -95 -6 -27 -18
-79 -26 -115 -32 -142 -51 -287 -66 -510 -25 -352 -34 -393 -143 -656 -85
-203 -215 -454 -253 -485 -11 -9 -17 -9 -29 1 -8 7 -15 17 -15 22 0 5 -24 60
-54 121 -66 137 -80 173 -110 290 -42 162 -49 222 -43 397 6 167 17 285 38
375 22 100 62 252 84 325 12 41 35 116 50 165 15 50 33 104 40 120 7 17 21 53
30 80 10 28 28 79 40 115 57 164 73 254 55 321 -11 40 -86 207 -130 289 -57
108 -189 459 -224 595 -30 122 -36 153 -52 275 -29 222 -12 442 62 775 22 104
42 276 34 305 -5 18 -13 25 -31 25 -20 0 -32 -15 -76 -100 -28 -55 -54 -110
-57 -123 -4 -12 -17 -46 -30 -75 -13 -28 -36 -86 -51 -127 -15 -41 -31 -84
-35 -95 -8 -20 -26 -76 -48 -145 -21 -68 -70 -266 -83 -340 -9 -50 -14 -154
-14 -315 0 -233 5 -288 40 -470 7 -38 16 -81 18 -95 19 -99 123 -438 162 -525
29 -67 60 -135 103 -225 44 -92 46 -98 45 -185 -1 -88 -10 -136 -63 -310 -30
-103 -48 -163 -64 -225 -8 -30 -23 -86 -34 -125 -10 -38 -27 -104 -36 -145
-25 -105 -32 -120 -59 -120 -26 0 -112 84 -238 235 -112 134 -199 271 -291
460 -83 172 -128 280 -174 424 -18 58 -38 120 -43 136 -17 52 -60 227 -71 295
-36 206 -40 236 -69 575 -10 107 -25 227 -37 293 -7 37 -34 22 -56 -33 -11
-27 -26 -63 -33 -80 -7 -16 -25 -66 -41 -110 -15 -44 -38 -97 -51 -117 -27
-45 -59 -51 -69 -13 -11 43 3 445 20 565 44 323 71 439 182 775 13 39 32 104
43 145 11 41 27 100 36 130 65 226 97 365 114 495 6 44 13 341 16 660 3 319
10 634 16 700 15 164 66 366 164 645 13 36 35 101 50 145 15 44 33 94 40 110
7 17 23 56 34 87 52 145 139 283 372 593 140 187 330 418 539 656 75 85 165
190 201 234 107 131 113 156 26 123 -123 -47 -122 -25 5 113 95 103 180 182
442 407 114 99 266 266 266 293 0 26 -24 24 -110 -7 -65 -23 -95 -25 -88 -4 2
5 62 69 133 142 203 209 280 297 392 448 150 203 246 366 304 511 18 46 36 88
41 94 17 20 6 26 -35 20 -56 -9 -64 -2 -241 204 -200 233 -303 324 -442 391
-106 51 -199 70 -346 70 -329 0 -745 -90 -912 -198 -122 -79 -263 -213 -409
-390 -109 -132 -145 -181 -244 -343 -112 -181 -183 -341 -264 -594 -23 -71
-45 -139 -49 -150 -4 -11 -27 -81 -50 -155 -23 -74 -48 -151 -55 -170 -7 -19
-32 -93 -54 -165 -23 -71 -46 -139 -51 -150 -5 -11 -18 -47 -29 -80 -92 -274
-255 -571 -488 -885 -137 -185 -203 -308 -203 -377 0 -14 -4 -42 -9 -62 -9
-34 -23 -120 -41 -261 -9 -62 -28 -188 -49 -315 -5 -33 -17 -91 -26 -130 -8
-38 -18 -83 -21 -100 -13 -65 -76 -271 -126 -410 -91 -249 -182 -406 -313
-541 -65 -66 -91 -86 -138 -103 -82 -30 -114 -28 -154 11 -28 27 -33 39 -33
78 0 58 38 173 99 303 260 547 359 859 436 1367 51 336 78 408 227 615 198
275 282 400 348 515 61 108 163 323 195 410 14 41 31 84 36 95 11 25 31 89 54
175 9 36 21 76 26 90 4 14 20 70 34 125 33 127 91 302 152 460 8 22 19 49 23
60 69 178 240 523 334 673 159 252 368 489 561 633 84 63 192 125 280 161 37
15 180 59 220 67 197 42 212 45 450 80 166 24 401 27 510 6z m2160 -3490 c358
-40 661 -145 871 -301 212 -157 288 -266 338 -487 20 -86 20 -129 0 -236 -49
-268 -238 -587 -433 -730 -101 -74 -173 -104 -251 -105 -77 0 -111 11 -205 73
-132 85 -495 388 -495 413 0 4 29 22 64 39 107 52 217 156 289 272 31 52 37
69 37 118 0 118 -105 283 -217 340 -42 22 -59 24 -172 24 -121 0 -128 -1 -181
-30 -33 -18 -113 -86 -200 -170 -223 -215 -338 -312 -440 -367 -46 -25 -183
-76 -255 -96 -131 -37 -172 -49 -280 -84 -136 -45 -354 -147 -455 -214 -253
-166 -484 -434 -740 -856 -74 -123 -86 -138 -110 -138 -24 0 -32 9 -58 63 -16
34 -41 73 -56 86 -25 24 -26 24 -46 6 -20 -18 -22 -18 -38 -1 -15 14 -17 37
-15 164 1 132 4 154 28 222 113 315 457 796 719 1006 120 97 440 302 521 335
10 4 124 70 155 89 83 53 381 232 448 271 453 261 770 340 1177 294z m5320
-25 c127 -28 283 -69 355 -95 129 -45 431 -200 625 -320 102 -63 188 -115 190
-115 3 0 34 -18 69 -39 36 -22 151 -83 258 -136 238 -118 258 -129 339 -187
134 -96 301 -303 501 -624 85 -136 116 -198 154 -310 48 -140 34 -392 -25
-465 -37 -45 -72 -12 -267 251 -151 205 -386 436 -534 526 -171 104 -460 213
-740 279 -135 31 -277 78 -340 113 -115 63 -249 178 -378 325 -154 176 -194
218 -237 246 -36 23 -50 26 -135 26 -70 0 -108 -5 -145 -20 -241 -94 -360
-270 -299 -445 42 -122 179 -299 267 -348 18 -9 52 -24 76 -33 25 -8 46 -20
48 -26 6 -16 -276 -282 -368 -348 -108 -78 -164 -92 -272 -71 -273 55 -528
294 -642 601 -35 95 -46 320 -21 425 38 159 145 358 246 460 142 142 329 247
530 301 145 39 244 48 465 45 131 -2 244 -9 280 -16z m-6255 -1488 c165 -42
271 -104 396 -234 50 -51 120 -139 157 -195 112 -168 109 -211 -10 -125 -171
124 -326 186 -554 222 -224 35 -515 -27 -769 -162 -167 -90 -260 -160 -456
-346 -72 -68 -150 -136 -175 -153 -123 -82 -129 18 -14 251 56 116 202 315
301 412 122 120 204 173 384 251 102 43 272 89 380 101 78 9 287 -4 360 -22z
m7289 7 c177 -29 301 -66 441 -132 199 -93 377 -265 478 -459 57 -109 124
-280 114 -290 -15 -15 -41 3 -210 144 -219 182 -311 234 -572 321 -178 59
-247 71 -420 70 -199 -1 -272 -18 -449 -106 -140 -69 -327 -261 -421 -432 -18
-33 -41 -71 -50 -85 -21 -31 -72 -130 -139 -271 -37 -80 -60 -115 -92 -143
-42 -36 -72 -45 -84 -26 -6 10 106 288 176 438 21 46 39 86 39 89 0 3 22 50
49 104 186 367 446 648 678 731 152 55 313 71 462 47z m-112 -752 c52 -38 82
-74 102 -123 11 -27 10 -37 -3 -62 -50 -97 -219 -141 -348 -92 -29 11 -81 23
-115 26 -78 8 -123 34 -123 70 0 38 99 132 183 173 87 43 119 51 194 47 52 -3
70 -9 110 -39z m-7085 -3 c124 -25 199 -68 234 -137 13 -24 13 -31 -2 -63 -23
-49 -72 -70 -190 -84 -74 -8 -121 -9 -184 0 -172 22 -185 23 -242 6 -82 -23
-182 -21 -219 5 -49 35 -33 87 48 155 93 79 156 110 253 127 62 11 226 6 302
-9z m7421 -65 c12 -6 39 -27 60 -47 56 -54 48 -94 -21 -108 -38 -8 -74 13
-102 59 -45 74 -7 132 63 96z m-6686 -192 c74 -80 170 -226 229 -346 28 -57
25 -82 -10 -89 -37 -8 -140 133 -219 299 -82 171 -82 225 0 136z m5683 -18
c-10 -113 -3 -273 14 -329 39 -121 108 -240 189 -327 43 -45 44 -73 5 -73 -45
0 -389 91 -460 122 -64 27 -68 47 -33 157 15 47 37 113 47 146 29 89 58 154
96 215 39 64 122 152 137 147 6 -2 8 -25 5 -58z m1341 -194 c49 -136 -10 -283
-178 -446 -93 -91 -186 -139 -272 -142 -33 -1 -55 2 -58 10 -2 6 24 26 59 45
153 81 286 254 346 449 48 156 71 175 103 84z m-8655 37 c6 -4 18 -29 27 -57
46 -141 152 -341 225 -425 56 -64 140 -120 227 -152 36 -12 65 -26 65 -29 0
-12 -69 -20 -122 -14 -78 10 -230 70 -295 119 -144 106 -233 257 -233 396 0
67 13 99 59 148 23 24 30 26 47 14z m5364 -16 c133 -20 246 -46 365 -84 307
-97 538 -212 885 -440 422 -278 899 -683 1141 -968 112 -132 276 -362 364
-511 6 -10 21 -35 34 -57 27 -45 161 -312 184 -366 16 -39 75 -184 87 -215 4
-11 15 -38 23 -60 15 -38 36 -96 94 -260 29 -84 42 -119 76 -205 35 -89 93
-266 142 -435 10 -33 28 -94 41 -135 13 -41 30 -95 38 -120 31 -102 70 -229
91 -295 12 -38 30 -99 40 -135 9 -36 21 -76 25 -90 5 -14 16 -52 25 -85 10
-33 23 -80 30 -105 7 -25 18 -65 25 -90 53 -190 71 -252 111 -370 21 -63 60
-173 88 -245 27 -71 73 -193 101 -270 52 -142 76 -204 91 -240 25 -60 77 -235
98 -330 18 -79 41 -283 41 -360 0 -162 -39 -374 -89 -490 -88 -203 -189 -351
-330 -488 -199 -192 -384 -274 -596 -264 -93 4 -200 31 -229 58 -12 11 38 93
72 117 20 14 53 21 125 26 165 12 249 50 370 169 176 173 280 401 293 646 6
109 -3 161 -29 161 -7 0 -38 -32 -67 -71 -117 -153 -170 -216 -211 -255 -107
-99 -253 -186 -389 -230 -82 -28 -92 -29 -275 -28 -250 1 -372 27 -584 126
-219 102 -488 328 -723 608 -44 52 -89 106 -101 120 -21 25 -162 215 -372 501
-232 317 -438 544 -615 679 -142 108 -416 270 -540 320 -30 12 -64 26 -75 31
-11 4 -65 22 -120 39 -55 17 -109 35 -120 40 -11 4 -40 15 -65 25 -100 39
-189 85 -199 103 -24 45 -44 173 -57 367 -17 262 -18 659 -3 722 15 57 40 75
230 171 80 40 173 96 209 125 137 111 249 309 227 399 -9 34 -52 54 -142 68
-171 26 -283 75 -330 146 -34 51 -75 412 -75 664 0 177 12 246 58 320 23 37
54 62 177 139 129 80 160 96 225 109 78 16 110 13 110 -11 0 -7 -43 -57 -96
-111 -79 -81 -164 -190 -164 -210 0 -3 -11 -29 -24 -58 -60 -131 -81 -247 -81
-443 0 -124 4 -172 18 -215 42 -132 112 -176 297 -187 137 -8 297 26 390 82
105 64 196 89 219 61 10 -12 10 -23 1 -53 -22 -69 -52 -107 -184 -238 -100
-98 -145 -152 -186 -219 -82 -134 -178 -229 -296 -292 -64 -34 -174 -102 -208
-128 -73 -57 -126 -171 -126 -274 0 -35 13 -105 40 -217 51 -212 203 -373 515
-545 33 -18 92 -54 131 -80 39 -26 98 -62 130 -81 32 -18 73 -40 91 -50 57
-32 108 -41 146 -26 76 32 120 103 143 230 30 173 11 483 -41 642 -37 114 -38
130 -17 187 43 114 54 183 48 291 -15 266 -18 573 -6 646 27 156 58 227 164
376 115 160 148 220 196 365 29 89 37 96 94 81 25 -6 72 -23 104 -37 59 -26
66 -29 142 -60 80 -33 233 -115 317 -171 245 -164 487 -429 688 -753 56 -91
240 -446 279 -540 10 -25 34 -83 53 -130 19 -47 42 -101 50 -120 57 -137 76
-185 115 -295 201 -561 266 -847 238 -1045 -11 -76 -53 -177 -81 -194 -19 -11
-22 -9 -132 78 -81 63 -164 106 -206 106 -24 0 -36 -8 -56 -37 -30 -44 -31
-74 -6 -128 29 -66 115 -130 231 -175 78 -29 145 -66 221 -122 73 -53 106 -59
135 -27 17 19 20 44 25 263 4 132 10 302 14 377 8 140 0 229 -31 379 -16 77
-92 327 -104 345 -4 6 -14 33 -24 60 -10 28 -29 79 -43 115 -14 36 -32 83 -40
105 -19 49 -6 18 -158 385 -204 493 -372 798 -608 1108 -194 255 -300 377
-531 607 -194 193 -217 213 -469 393 -115 82 -212 162 -323 269 -240 229 -341
306 -511 392 -118 59 -260 117 -343 140 -25 7 -55 17 -66 21 -31 12 -136 37
-229 54 -206 38 -420 53 -885 62 -397 8 -479 1 -820 -66 -89 -18 -263 -70
-335 -100 -268 -112 -366 -165 -525 -288 -149 -115 -248 -202 -445 -393 -71
-70 -166 -158 -209 -195 -218 -189 -352 -313 -466 -431 -366 -380 -703 -891
-775 -1177 -27 -108 -31 -141 -15 -151 21 -13 58 25 121 121 316 484 398 592
604 800 270 272 564 465 866 568 133 45 143 46 135 5 -7 -37 9 -156 29 -216
35 -101 49 -122 245 -369 187 -233 247 -349 265 -509 9 -86 25 -276 25 -305 0
-14 -2 -46 -6 -73 -4 -35 -2 -54 10 -72 23 -36 20 -51 -19 -80 -52 -40 -95
-111 -95 -157 0 -85 55 -131 158 -130 28 0 52 -4 52 -9 0 -6 -29 -71 -65 -146
-79 -165 -95 -216 -95 -306 0 -55 5 -79 26 -116 26 -49 67 -81 102 -81 30 0
33 -12 18 -66 -28 -100 -39 -218 -26 -281 14 -64 25 -90 71 -158 34 -50 37
-51 114 -13 136 68 651 567 823 798 65 88 96 156 127 280 31 120 10 216 -59
277 -43 38 -138 90 -246 135 -95 39 -210 109 -254 152 -22 24 -74 90 -115 149
-41 60 -113 144 -164 194 -144 141 -166 165 -211 228 -62 88 -82 165 -43 165
38 0 97 -28 189 -89 129 -85 149 -96 225 -115 78 -20 127 -20 189 1 63 21 89
37 142 87 101 95 182 321 182 504 0 89 -23 214 -53 293 -39 101 -66 144 -149
238 -26 30 -48 60 -48 67 0 45 233 63 309 24 72 -36 123 -116 141 -221 16 -94
9 -883 -8 -924 -25 -58 -128 -144 -257 -215 -88 -48 -154 -98 -170 -130 -13
-25 -13 -38 -1 -103 19 -99 50 -161 101 -202 23 -19 45 -35 48 -35 4 0 53 -22
109 -49 57 -27 132 -59 167 -71 105 -35 139 -56 163 -103 22 -41 23 -52 23
-337 1 -162 5 -384 10 -493 6 -153 5 -203 -5 -221 -12 -23 -65 -53 -200 -114
-36 -16 -102 -46 -148 -66 -230 -103 -449 -244 -747 -480 -147 -116 -435 -411
-640 -656 -99 -118 -189 -226 -202 -239 -12 -13 -48 -55 -80 -92 -112 -129
-459 -466 -568 -550 -355 -275 -630 -420 -895 -473 -164 -32 -303 -39 -485
-22 -206 19 -290 34 -480 85 -82 23 -213 82 -280 127 -90 62 -176 190 -211
314 -42 154 -46 430 -9 620 9 41 20 100 26 130 14 68 66 284 79 325 6 17 26
77 46 135 20 58 39 119 44 135 4 17 12 41 18 55 20 46 100 264 142 385 85 250
242 721 255 770 81 291 102 385 135 595 11 65 38 227 50 290 4 25 15 77 25
115 9 39 19 81 22 95 25 122 114 380 209 605 154 370 311 630 532 885 132 153
399 420 542 544 25 22 83 74 130 116 282 256 506 412 805 563 331 167 553 233
895 268 127 13 522 8 780 -11 115 -8 194 -7 305 1 83 7 195 15 250 19 141 11
472 3 585 -14z m-3878 -101 c10 -65 9 -87 -6 -144 -10 -37 -16 -87 -14 -111 3
-42 5 -45 34 -48 18 -2 49 4 69 12 48 21 81 20 89 0 16 -41 -55 -91 -161 -113
-97 -20 -250 -51 -303 -61 -30 -6 -65 -13 -77 -16 -37 -10 -27 14 32 77 65 71
133 165 168 234 29 56 67 141 67 150 0 9 42 99 53 113 19 24 38 -12 49 -93z
m7485 -237 c41 -17 63 -39 63 -60 0 -11 -14 -45 -32 -76 -17 -31 -36 -66 -42
-77 -39 -72 -159 -238 -214 -297 -201 -212 -384 -300 -627 -300 -181 0 -320
43 -526 166 -128 76 -213 152 -207 184 5 21 68 20 168 -2 198 -43 394 -66 575
-66 115 0 143 3 210 25 153 50 287 161 461 382 109 138 117 144 171 121z
m-9300 -13 c11 -8 53 -59 91 -112 143 -198 238 -288 366 -351 263 -128 570
-135 1029 -24 154 37 163 18 45 -98 -68 -67 -223 -163 -358 -223 -151 -67
-409 -72 -594 -13 -107 35 -201 85 -305 161 -86 63 -109 85 -187 180 -102 124
-229 371 -222 433 2 19 13 32 38 44 43 22 69 23 97 3z m5278 -270 c365 -43
582 -110 781 -243 118 -79 176 -140 221 -232 35 -71 37 -80 38 -176 0 -100 0
-101 -49 -203 -31 -64 -51 -121 -54 -151 -12 -125 92 -234 249 -262 53 -9 59
-12 59 -35 0 -35 -101 -132 -173 -166 -123 -58 -257 -20 -335 96 -79 117 -91
271 -36 462 9 33 19 94 21 137 4 68 2 80 -20 115 -56 88 -151 142 -287 164
-107 17 -692 18 -1210 1 -311 -10 -375 -15 -435 -32 -149 -43 -232 -107 -269
-209 -19 -54 -19 -71 4 -221 18 -114 9 -223 -24 -292 -48 -102 -147 -194 -246
-231 -108 -40 -288 -3 -378 78 -53 49 -52 71 5 80 71 12 171 56 241 105 137
96 183 203 149 350 -8 36 -22 96 -31 135 -20 87 -20 133 -1 179 20 47 7 46
-38 -3 -52 -56 -89 -118 -138 -229 -76 -176 -87 -197 -124 -240 -49 -57 -101
-82 -168 -82 -46 0 -57 4 -86 32 -36 35 -61 87 -61 127 1 98 156 360 296 498
67 65 241 203 258 203 2 0 35 18 72 40 38 22 100 52 139 66 38 14 79 29 90 34
105 44 226 72 430 99 190 25 909 29 1110 6z m-4330 -1145 c8 -14 -38 -125
-131 -317 -41 -83 -74 -154 -74 -156 0 -3 -16 -39 -35 -81 -19 -41 -46 -106
-59 -143 -13 -37 -41 -113 -61 -168 -44 -123 -101 -317 -145 -495 -15 -61 -38
-172 -55 -265 -9 -49 -20 -110 -25 -135 -5 -25 -16 -88 -25 -140 -9 -52 -20
-113 -25 -135 -5 -22 -16 -74 -25 -115 -18 -82 -41 -178 -56 -225 -73 -241
-87 -280 -165 -451 -119 -263 -178 -327 -217 -236 -55 128 -53 467 5 757 11
55 24 120 29 145 9 50 24 104 64 230 15 47 33 105 40 130 34 116 134 429 145
455 5 11 20 54 35 95 27 75 46 125 72 190 20 49 28 69 49 120 31 77 191 385
245 472 98 156 238 332 333 418 21 19 44 40 50 47 14 15 23 16 31 3z m4065
-925 c0 -123 -4 -195 -10 -195 -6 0 -10 72 -10 195 0 123 4 195 10 195 6 0 10
-72 10 -195z m-256 -62 c18 -296 18 -323 8 -323 -14 0 -22 69 -28 263 -4 105
-2 167 4 167 5 0 12 -48 16 -107z m284 -340 c2 -8 -5 -13 -17 -13 -12 0 -21 6
-21 16 0 18 31 15 38 -3z m-5380 -2225 c6 -24 18 -81 27 -128 10 -47 24 -100
32 -119 16 -35 14 -50 -32 -196 -31 -98 -45 -150 -74 -275 -39 -162 -54 -483
-30 -614 37 -196 98 -335 214 -486 57 -74 110 -121 208 -184 165 -105 261
-127 402 -89 75 19 103 20 140 2 63 -31 55 -74 -31 -161 -89 -90 -206 -130
-316 -108 -405 80 -736 343 -884 703 -55 134 -69 187 -89 342 -31 232 -14 378
75 645 6 19 15 44 20 55 5 11 22 54 39 95 16 41 41 98 54 125 13 28 35 74 48
104 13 30 41 86 62 125 21 39 52 101 70 138 18 37 37 68 43 68 6 0 16 -19 22
-42z m5228 -72 c37 -15 98 -30 150 -36 49 -6 130 -17 179 -25 50 -9 115 -19
145 -24 174 -28 441 -113 560 -178 146 -80 304 -222 298 -267 -3 -19 -11 -21
-73 -24 -38 -2 -115 3 -170 12 -55 8 -138 19 -185 26 -47 6 -123 17 -170 25
-361 59 -468 67 -812 62 -379 -6 -451 -15 -1083 -142 -162 -32 -193 -36 -249
-33 -38 2 -61 8 -64 16 -15 47 331 271 518 336 25 8 83 29 130 47 138 51 247
86 375 119 186 48 283 79 318 101 36 22 48 21 133 -15z m519 -1227 c105 -11
215 -24 245 -29 321 -53 584 -170 781 -348 68 -61 220 -237 253 -294 35 -61
108 -237 135 -328 12 -41 27 -88 32 -104 5 -16 9 -55 9 -86 0 -56 -1 -59 -49
-103 -65 -61 -149 -103 -311 -155 -89 -29 -302 -42 -355 -22 -14 5 -28 16 -31
23 -2 7 17 49 44 93 111 185 149 440 80 536 -24 34 -57 36 -85 6 -11 -13 -44
-61 -73 -108 -281 -454 -400 -549 -725 -579 -223 -20 -349 -23 -590 -12 -132
6 -357 16 -500 21 -479 19 -536 29 -635 118 -107 94 -149 298 -105 502 33 151
39 200 27 212 -17 17 -61 -8 -128 -70 -170 -156 -248 -386 -199 -587 22 -94
20 -112 -17 -132 -29 -16 -62 -18 -283 -18 -267 0 -326 8 -365 50 -18 19 -18
24 -5 62 20 58 195 411 236 475 44 70 154 224 192 268 57 68 233 242 297 295
126 103 349 226 470 257 202 54 322 67 625 69 138 0 291 5 340 9 135 11 476 1
690 -21z m1791 -1001 c31 -29 94 -100 138 -158 149 -192 264 -290 397 -335 77
-26 96 -29 224 -28 164 0 248 18 334 69 82 49 119 87 208 209 91 127 109 135
130 63 7 -26 18 -50 23 -53 17 -10 11 -119 -9 -183 -64 -198 -212 -396 -356
-474 -113 -61 -328 -92 -502 -72 -59 7 -130 19 -158 27 -130 37 -234 120 -304
242 -44 76 -113 235 -123 285 -3 14 -17 70 -31 125 -14 55 -30 127 -37 160 -6
33 -16 79 -22 102 -22 88 7 94 88 21z m-4886 -2 c0 -8 -9 -42 -19 -77 -11 -35
-27 -95 -36 -134 -27 -111 -111 -353 -150 -434 -79 -161 -198 -284 -323 -332
-31 -12 -110 -29 -175 -37 -100 -13 -133 -14 -225 -3 -261 31 -470 121 -586
253 -104 116 -186 282 -186 373 0 36 5 48 30 69 40 33 93 43 123 23 13 -9 55
-45 93 -82 165 -160 279 -206 508 -206 180 0 315 40 459 135 84 56 122 95 219
226 72 98 143 176 192 212 42 30 76 37 76 14z"/>
<path d="M9361 16860 c-123 -45 -253 -141 -437 -325 -302 -300 -439 -501 -469
-687 -4 -24 -16 -64 -27 -91 -25 -58 -46 -65 -143 -47 -178 33 -396 34 -545 3
-172 -36 -349 -113 -435 -188 -80 -70 -85 -70 295 -34 72 6 199 9 300 6 261
-8 343 -29 565 -143 471 -241 535 -269 535 -230 0 24 -117 163 -242 288 -132
131 -147 161 -75 152 49 -6 119 6 124 23 2 6 -2 17 -10 24 -34 35 -96 128
-108 161 l-13 37 80 118 c131 195 303 434 367 508 33 39 118 132 189 207 160
169 170 182 166 210 -4 31 -47 34 -117 8z"/>
<path d="M7739 16830 c-96 -26 -162 -56 -279 -128 -91 -55 -204 -133 -220
-151 -3 -3 -36 -33 -75 -65 -76 -65 -165 -153 -260 -256 -83 -90 -96 -107
-139 -177 -39 -64 -42 -93 -8 -93 50 0 331 192 736 504 115 89 234 180 265
204 84 64 151 132 151 152 0 35 -65 39 -171 10z"/>
<path d="M11305 16730 c-10 -16 10 -44 73 -101 59 -55 174 -118 300 -165 37
-14 96 -37 132 -51 36 -13 79 -28 95 -33 17 -4 68 -22 115 -39 47 -18 105 -39
130 -48 54 -19 187 -70 215 -83 40 -18 221 -89 268 -104 61 -20 86 -20 94 1 5
12 -11 33 -58 76 -127 117 -387 271 -621 367 -57 23 -112 46 -123 50 -71 31
-267 86 -463 130 -55 13 -149 13 -157 0z"/>
<path d="M11742 15571 c-128 -21 -265 -81 -392 -174 -30 -22 -105 -90 -166
-151 -157 -158 -237 -271 -250 -356 -13 -81 33 -61 242 106 236 188 464 323
599 355 40 9 119 14 240 13 224 0 329 -16 650 -94 274 -67 312 -56 170 50
-158 118 -349 196 -592 239 -80 15 -432 23 -501 12z"/>
<path d="M7640 15009 c-337 -21 -590 -105 -776 -256 -90 -73 -117 -113 -76
-113 26 0 139 25 217 48 136 41 351 95 430 108 148 25 368 29 484 10 174 -29
332 -91 504 -198 43 -26 80 -48 82 -48 3 0 45 -25 95 -55 50 -31 126 -73 168
-95 123 -64 142 -54 78 43 -55 83 -134 166 -256 270 -119 101 -211 160 -322
208 -138 60 -167 66 -438 83 -30 2 -116 0 -190 -5z"/>
<path d="M7845 8591 c-56 -32 -101 -97 -90 -131 6 -18 57 -40 96 -40 23 0 109
47 142 78 36 34 37 83 2 106 -37 25 -93 20 -150 -13z"/>
<path d="M12733 8559 c-34 -13 -56 -53 -48 -89 8 -38 55 -74 123 -94 49 -14
58 -14 105 2 42 14 53 22 55 42 8 71 -157 169 -235 139z"/>
<path d="M7459 8490 c-73 -39 -182 -193 -165 -235 11 -29 97 -9 166 38 137 94
172 158 108 197 -40 24 -63 25 -109 0z"/>
<path d="M13197 8403 c-13 -12 -7 -57 13 -99 40 -81 252 -243 305 -232 27 5
23 28 -16 94 -77 127 -265 275 -302 237z"/>
<path d="M6900 8273 c0 -5 -16 -19 -35 -32 -40 -27 -151 -181 -196 -271 -30
-60 -37 -104 -19 -115 19 -12 100 45 182 128 126 128 170 206 154 272 -5 21
-12 25 -46 25 -22 0 -40 -3 -40 -7z"/>
<path d="M12732 7694 c-53 -37 -5 -121 100 -173 68 -34 112 -39 146 -15 66 46
-14 148 -148 188 -66 20 -70 20 -98 0z"/>
<path d="M7565 7644 c-43 -22 -74 -53 -96 -96 -25 -48 -24 -89 2 -122 17 -21
29 -26 65 -26 100 0 194 92 194 190 0 60 -94 91 -165 54z"/>
<path d="M13325 7558 c-33 -19 -44 -41 -44 -83 0 -58 41 -113 112 -149 67 -34
108 -37 138 -10 17 15 20 27 16 63 -12 104 -154 219 -222 179z"/>
<path d="M6862 7443 c-49 -24 -167 -155 -201 -225 -31 -61 -40 -112 -22 -123
38 -23 299 172 342 256 24 48 24 51 -6 83 -28 30 -64 33 -113 9z"/>
<path d="M12713 6870 c-34 -14 -39 -55 -15 -105 39 -80 111 -145 161 -145 29
0 81 48 81 75 0 57 -57 140 -115 166 -44 20 -78 23 -112 9z"/>
<path d="M7630 6804 c-41 -18 -96 -68 -116 -106 -18 -35 -18 -102 1 -118 8 -6
32 -14 55 -17 32 -5 48 -1 79 20 46 31 91 114 91 169 0 31 -5 40 -30 53 -35
18 -36 18 -80 -1z"/>
<path d="M13336 6778 c-62 -88 54 -262 162 -244 79 12 94 75 40 166 -52 88
-165 131 -202 78z"/>
<path d="M6921 6573 c-45 -32 -101 -152 -88 -187 4 -10 19 -16 39 -16 59 0
108 20 149 61 32 32 39 46 39 77 0 71 -78 107 -139 65z"/>
<path d="M6448 6462 c-69 -54 -110 -115 -127 -189 -10 -41 -10 -56 0 -75 38
-71 112 -64 190 19 75 78 96 161 61 233 -24 49 -72 53 -124 12z"/>
<path d="M13225 5999 c-10 -15 4 -98 22 -134 21 -41 83 -105 103 -105 9 0 27
11 40 25 22 23 23 27 10 66 -33 99 -147 195 -175 148z"/>
<path d="M7459 5971 c-50 -27 -111 -97 -143 -164 -44 -94 -23 -115 72 -70 64
30 169 182 160 230 -4 25 -45 27 -89 4z"/>
<path d="M13823 5750 c-66 -38 -93 -76 -93 -130 0 -120 179 -330 281 -330 64
0 129 79 129 155 0 72 -74 218 -153 303 -41 43 -91 44 -164 2z"/>
<path d="M6780 5689 c-30 -17 -76 -44 -103 -60 -26 -16 -49 -29 -52 -29 -13 0
-102 -72 -121 -97 -53 -71 -56 -145 -6 -164 89 -35 269 52 410 199 39 41 72
78 72 83 0 15 -53 70 -81 84 -39 21 -56 19 -119 -16z"/>
<path d="M6011 5554 c-55 -62 -71 -98 -71 -155 0 -39 4 -51 26 -68 41 -32 72
-27 114 19 82 88 82 250 0 250 -21 0 -38 -12 -69 -46z"/>
<path d="M14395 5570 c-19 -37 -21 -238 -3 -306 18 -66 50 -98 91 -90 120 24
143 224 39 351 -23 28 -88 75 -104 75 -4 0 -14 -13 -23 -30z"/>
</g>
</svg>
