<?xml version="1.0" standalone="no"?>
<!DOCTYPE svg PUBLIC "-//W3C//DTD SVG 20010904//EN"
 "http://www.w3.org/TR/2001/REC-SVG-20010904/DTD/svg10.dtd">
<svg version="1.0" xmlns="http://www.w3.org/2000/svg"
 width="1217.697143pt" height="1196.504631pt" viewBox="0 0 1217.697143 1196.504631"
 preserveAspectRatio="xMidYMid meet">

<g transform="translate(-391.292399,1568.612565) scale(0.100000,-0.100000)"
fill="#000000" stroke="none">
<path d="M12514 15680 c-117 -16 -282 -96 -438 -212 -77 -57 -473 -465 -547
-563 -12 -16 -40 -49 -63 -72 l-40 -43 -98 0 c-53 0 -146 6 -205 14 -509 67
-1122 75 -1498 21 -369 -54 -464 -73 -730 -153 -146 -43 -240 -48 -295 -16
-19 11 -55 32 -80 46 -53 29 -281 161 -360 208 -56 33 -203 106 -256 126 -236
92 -412 91 -759 -2 -49 -13 -130 -35 -180 -48 -269 -71 -616 -183 -965 -311
-648 -237 -1514 -635 -1833 -842 -215 -139 -276 -248 -248 -446 16 -112 46
-198 119 -342 340 -669 1021 -1429 1442 -1609 147 -63 303 -58 422 13 85 51
139 118 350 432 288 429 297 441 322 437 21 -3 21 -5 20 -223 -1 -121 -9 -308
-17 -415 -22 -267 -35 -528 -47 -900 -36 -1141 24 -1540 301 -2017 188 -323
550 -640 966 -846 78 -39 145 -77 148 -85 3 -8 -16 -58 -41 -111 -53 -109
-140 -292 -189 -396 -76 -163 -104 -224 -134 -295 -18 -41 -36 -84 -41 -95 -5
-11 -14 -33 -20 -50 -6 -16 -31 -75 -55 -130 -24 -55 -56 -134 -70 -175 -15
-41 -42 -117 -62 -168 -34 -91 -35 -92 -88 -118 -184 -91 -317 -295 -420 -646
-26 -89 -31 -98 -52 -98 -56 0 -163 120 -275 308 -38 65 -74 117 -80 117 -22
0 -30 -60 -35 -245 -5 -182 12 -457 38 -605 57 -320 153 -574 305 -808 35 -53
64 -102 64 -108 0 -6 -27 -40 -60 -75 -85 -91 -101 -178 -52 -273 41 -79 78
-87 444 -96 202 -5 276 -11 318 -23 50 -15 145 -17 975 -17 858 0 922 1 952
18 30 16 103 17 1118 18 1082 1 1086 0 1129 -20 43 -21 46 -21 992 -19 l949 3
42 24 c75 43 123 137 123 240 0 81 -42 236 -89 331 -94 190 -214 311 -386 389
-149 68 -149 68 -116 137 54 114 73 406 37 584 -60 294 -177 538 -325 680
l-47 45 -18 160 c-9 88 -26 221 -37 295 -12 74 -25 163 -30 198 -9 60 -21 129
-53 307 -26 145 -66 326 -90 417 -14 49 -22 96 -19 104 3 8 94 58 202 111 323
158 562 321 792 542 192 183 307 334 399 526 83 172 114 272 156 510 22 122
25 454 6 585 -29 194 -52 312 -108 560 -8 36 -19 83 -23 105 -5 22 -16 69 -25
105 -8 36 -22 94 -30 130 -8 36 -26 112 -40 170 -70 299 -124 627 -166 1015
-17 156 -39 343 -50 420 -33 239 -41 292 -55 405 -9 69 -21 149 -26 179 -12
70 -12 71 5 71 26 0 101 -86 307 -354 220 -286 293 -367 389 -431 95 -63 147
-78 265 -78 120 0 177 19 293 96 102 69 331 298 466 467 184 231 443 642 557
885 87 187 184 451 215 587 24 104 16 237 -18 308 -63 132 -206 239 -465 346
-48 20 -117 50 -153 66 -36 17 -135 57 -220 90 -85 33 -177 69 -205 80 -584
229 -1384 443 -1995 534 -123 18 -419 27 -506 14z m-2079 -1060 c228 -10 457
-30 555 -49 25 -5 86 -17 135 -26 50 -9 108 -20 130 -25 22 -5 72 -17 110 -25
170 -39 268 -67 440 -128 162 -58 396 -160 467 -204 21 -13 40 -23 43 -23 12
0 246 -157 350 -235 312 -234 568 -593 650 -910 38 -148 47 -265 42 -571 -4
-259 -24 -561 -43 -659 -19 -99 -70 -201 -117 -235 -58 -42 -130 -49 -242 -25
-145 32 -170 35 -264 35 -181 0 -320 -61 -465 -206 -64 -64 -107 -131 -142
-224 -26 -68 -28 -86 -28 -205 0 -208 46 -317 196 -461 121 -116 202 -162 408
-229 418 -136 599 -235 804 -439 181 -180 268 -332 294 -515 13 -88 13 -117 2
-184 -36 -224 -214 -487 -466 -688 -187 -149 -189 -151 -374 -265 -318 -196
-782 -400 -1125 -494 -312 -86 -560 -130 -915 -165 -345 -33 -940 -8 -1360 59
-169 27 -203 34 -330 66 -69 17 -141 36 -160 40 -63 16 -333 112 -424 151
-209 89 -359 211 -471 384 -158 241 -215 427 -215 695 0 203 35 356 125 545
146 308 465 579 812 690 44 14 65 30 124 93 113 123 212 312 325 619 37 98 86
231 109 295 141 384 219 728 231 1023 7 160 -6 351 -31 458 -43 185 -136 384
-246 526 -200 259 -417 355 -904 396 -221 18 -295 43 -340 115 -34 54 -40 106
-21 171 29 101 117 187 265 259 151 74 252 85 436 46 319 -68 614 -30 819 104
150 99 237 203 278 333 12 40 24 74 26 77 14 19 196 23 507 10z m-3125 -506
c0 -4 -22 -36 -49 -73 -64 -87 -107 -157 -165 -266 -54 -100 -54 -101 -62 -93
-6 7 57 141 68 146 5 2 8 8 8 13 0 12 62 113 72 117 4 2 8 8 8 14 0 15 100
148 111 148 5 0 9 -3 9 -6z m1002 -1424 c46 -13 98 -56 98 -81 0 -29 -36 -42
-99 -35 -75 9 -220 -17 -296 -53 -120 -56 -229 -201 -255 -342 -13 -68 -36
-94 -73 -80 -14 6 -34 22 -43 37 -16 23 -16 33 -5 87 28 145 156 329 274 395
115 65 302 99 399 72z m4367 -1436 c110 -32 195 -151 193 -269 -1 -99 -45
-166 -140 -215 -37 -20 -54 -22 -140 -18 -88 3 -101 6 -142 34 -85 56 -140
188 -119 282 35 158 181 236 348 186z m-4401 -171 c102 -69 145 -182 112 -302
-18 -66 -100 -144 -169 -161 -175 -42 -333 75 -333 245 0 92 47 174 128 221
96 56 175 55 262 -3z m3696 -3671 c3 -5 -8 -90 -24 -188 -57 -338 -87 -477
-165 -754 -109 -388 -144 -613 -145 -919 0 -173 -36 -708 -60 -901 -5 -41 -14
-120 -19 -175 -38 -386 -46 -451 -63 -472 -11 -14 -2020 -5 -2029 9 -4 6 -9
69 -13 141 -4 73 -11 186 -16 252 -18 231 -34 1375 -21 1565 30 472 73 655
252 1081 27 65 49 131 49 148 0 20 6 34 16 38 9 3 125 -2 258 -12 434 -32 977
-8 1356 59 83 15 171 33 300 63 36 8 83 19 105 24 22 4 69 17 105 28 73 21
106 25 114 13z m-3982 -2048 c10 -197 28 -409 39 -472 9 -46 8 -57 -7 -73 -9
-10 -22 -19 -29 -19 -22 0 -186 -88 -228 -123 -23 -19 -79 -70 -123 -114 -87
-84 -120 -138 -169 -275 -15 -43 -32 -78 -37 -78 -19 0 -20 34 -2 93 24 84 57
144 161 297 45 66 168 159 275 208 25 12 50 27 54 34 11 17 11 120 1 203 -25
210 2 477 46 462 8 -2 14 -50 19 -143z m619 -754 c87 -13 216 -53 307 -97 51
-24 94 -55 141 -101 91 -90 125 -162 141 -300 7 -56 9 -113 6 -127 l-6 -25
-272 2 -271 3 -3 68 c-7 145 -103 238 -164 160 -19 -25 -21 -38 -19 -125 2
-54 0 -101 -4 -105 -13 -13 -801 -3 -810 10 -20 31 23 192 80 297 90 165 243
278 438 323 111 26 318 34 436 17z m4304 -25 c158 -40 270 -103 381 -214 89
-89 163 -242 167 -345 l2 -51 -70 -4 c-38 -2 -198 -4 -355 -5 l-285 -1 -6 70
c-10 116 -52 185 -112 185 -44 0 -81 -96 -75 -194 l3 -61 -404 0 c-464 0 -436
-6 -406 91 35 116 91 207 175 288 88 84 120 106 247 170 173 87 277 108 505
100 100 -3 162 -11 233 -29z"/>
<path d="M12424 12901 c-53 -24 -86 -66 -82 -105 3 -28 7 -31 38 -34 114 -9
260 -63 346 -128 62 -48 65 -51 144 -148 100 -122 127 -131 178 -56 29 43 28
86 -3 155 -58 131 -220 268 -378 319 -67 22 -191 21 -243 -3z"/>
<path d="M10675 10724 c-16 -2 -77 -9 -135 -15 -380 -39 -777 -144 -1019 -270
-113 -59 -179 -104 -167 -116 3 -3 31 7 63 22 163 78 290 125 462 171 339 92
463 115 746 139 373 32 724 8 1048 -71 15 -3 27 -2 27 2 0 14 -59 35 -205 74
-147 39 -440 70 -637 69 -84 -1 -166 -4 -183 -5z"/>
<path d="M10780 10300 c-361 -50 -511 -87 -614 -154 -107 -70 -136 -126 -136
-265 0 -66 6 -102 24 -152 43 -118 149 -272 257 -374 176 -165 328 -257 544
-330 137 -46 132 -40 134 -172 2 -137 -54 -260 -169 -373 -119 -119 -265 -207
-406 -246 -78 -21 -265 -30 -334 -15 -31 7 -83 30 -124 56 -78 50 -118 57
-159 25 -53 -42 -43 -125 21 -181 47 -42 159 -92 242 -110 39 -8 121 -14 205
-13 154 0 231 17 350 76 133 65 208 121 356 265 58 57 112 103 120 103 8 0 40
-24 73 -53 69 -61 161 -132 191 -145 61 -29 99 -43 180 -68 81 -24 106 -27
255 -28 151 0 174 2 264 27 54 15 124 41 155 57 132 70 231 176 231 246 0 48
-42 94 -86 94 -32 0 -57 -16 -134 -89 -43 -40 -122 -87 -180 -107 -76 -26
-326 -26 -415 0 -147 44 -295 143 -366 245 -50 74 -87 188 -91 280 l-3 75 55
19 c146 50 197 74 288 134 127 85 223 172 317 287 151 187 208 320 209 491 1
104 -11 143 -61 200 -78 89 -260 151 -548 186 -116 14 -561 20 -645 9z"/>
</g>
</svg>
