<?xml version="1.0" standalone="no"?>
<!DOCTYPE svg PUBLIC "-//W3C//DTD SVG 20010904//EN"
 "http://www.w3.org/TR/2001/REC-SVG-20010904/DTD/svg10.dtd">
<svg version="1.0" xmlns="http://www.w3.org/2000/svg"
 width="1424.698897pt" height="1696.838741pt" viewBox="0 0 1424.698897 1696.838741"
 preserveAspectRatio="xMidYMid meet">

<g transform="translate(-438.306520,1877.859564) scale(0.100000,-0.100000)"
fill="#000000" stroke="none">
<path d="M6232 18768 c-16 -16 -15 -58 3 -138 18 -83 19 -172 1 -252 -7 -35
-19 -97 -26 -138 -20 -127 -43 -224 -55 -238 -14 -16 -156 -32 -286 -32 -113
0 -98 -11 -215 160 -186 273 -217 329 -264 476 -17 54 -35 106 -39 114 -17 32
-43 22 -100 -37 -168 -174 -218 -507 -125 -828 33 -115 134 -283 236 -392 57
-62 60 -81 21 -185 -87 -236 -227 -422 -525 -696 -29 -26 -38 -44 -46 -88 -5
-32 -6 -74 -1 -100 8 -43 65 -161 93 -194 48 -56 66 -107 78 -230 16 -156 16
-387 -1 -505 -34 -246 -101 -482 -196 -690 -100 -219 -147 -301 -259 -450
-114 -150 -120 -159 -136 -218 -28 -103 29 -294 141 -468 46 -73 59 -108 89
-249 33 -147 76 -224 148 -262 35 -19 81 -30 177 -42 72 -10 155 -21 185 -26
241 -40 339 -35 424 21 107 71 171 208 246 524 37 157 44 166 295 376 99 84
294 229 306 229 26 0 48 -119 60 -320 74 -1328 72 -1350 -121 -1775 -79 -173
-104 -229 -196 -422 -38 -79 -142 -324 -155 -363 -4 -14 -15 -45 -24 -70 -32
-85 -69 -223 -91 -335 -23 -123 -23 -489 0 -620 52 -288 103 -437 238 -701
l71 -139 -6 -80 c-7 -94 -61 -256 -159 -475 -12 -25 -24 -56 -29 -70 -4 -14
-22 -63 -39 -110 -17 -47 -41 -112 -52 -145 -150 -444 -210 -597 -321 -825
-117 -240 -219 -392 -374 -558 -53 -57 -104 -113 -114 -125 -42 -55 -75 -132
-105 -252 -25 -97 -25 -350 -1 -415 9 -25 17 -51 17 -58 0 -18 72 -165 131
-268 97 -167 112 -212 186 -524 63 -269 65 -460 6 -696 -23 -94 -15 -204 22
-279 54 -108 166 -210 330 -300 39 -21 102 -69 141 -106 81 -76 134 -112 284
-191 187 -98 211 -117 272 -229 17 -30 44 -79 61 -109 69 -125 210 -294 307
-368 93 -70 269 -132 377 -132 51 0 131 22 170 48 45 28 77 113 113 297 23
115 28 378 9 479 -35 186 -111 313 -224 376 -38 21 -51 23 -222 21 -100 0
-192 3 -205 8 -13 5 -77 48 -143 97 -131 96 -364 239 -374 228 -8 -8 38 -47
159 -136 180 -133 201 -162 174 -237 -31 -82 -71 -111 -156 -111 -51 0 -54 1
-110 61 -113 118 -164 278 -123 384 9 25 23 45 31 45 8 0 14 2 14 4 0 2 -35
73 -78 157 -68 135 -88 177 -122 264 -16 38 -75 223 -90 280 -4 17 -15 57 -25
90 -24 87 -69 273 -95 390 -18 77 -33 225 -27 264 5 42 8 48 81 183 59 110 81
177 101 308 29 194 36 225 65 285 31 64 105 146 192 212 29 22 132 101 228
174 155 118 259 201 505 401 39 31 120 95 180 143 160 127 180 142 279 226 50
41 111 90 135 107 65 47 109 44 316 -22 39 -13 109 -35 157 -51 105 -33 124
-50 106 -91 -11 -27 -83 -153 -118 -209 -8 -13 -48 -77 -89 -142 -75 -120
-254 -374 -411 -582 -124 -166 -139 -186 -229 -296 -138 -171 -200 -320 -201
-485 -1 -223 76 -388 306 -660 104 -123 142 -205 163 -353 20 -145 12 -285
-30 -502 -37 -197 83 -357 296 -394 33 -5 143 -12 245 -15 102 -3 232 -11 290
-17 155 -17 215 -9 345 46 183 77 188 78 320 77 66 0 144 -6 174 -11 29 -6 90
-11 133 -11 71 0 87 4 141 33 88 46 173 130 306 302 82 107 178 212 332 365
119 119 226 231 238 250 77 128 -77 384 -302 502 -74 39 -127 37 -214 -6 -37
-19 -111 -49 -163 -67 -182 -61 -250 -106 -250 -168 0 -31 19 -51 70 -74 35
-16 173 -59 221 -71 36 -8 118 -99 152 -168 16 -35 27 -73 27 -99 0 -36 -6
-47 -40 -81 -23 -21 -47 -38 -54 -38 -8 0 -29 18 -47 40 -84 101 -136 153
-184 185 -91 60 -294 157 -340 163 l-43 4 -72 -108 c-87 -129 -140 -189 -195
-217 -36 -19 -55 -21 -196 -20 -225 2 -324 34 -387 125 -109 159 -232 429
-232 510 0 34 17 98 65 243 18 55 41 134 50 175 41 177 61 217 147 295 30 28
198 165 374 307 175 141 328 264 339 275 11 10 52 45 90 78 202 173 382 360
652 676 45 53 94 104 108 113 26 17 42 19 410 36 215 10 282 17 535 52 80 11
186 26 235 33 50 6 97 8 106 4 19 -10 42 -55 76 -153 76 -219 195 -396 413
-616 100 -100 212 -192 505 -415 168 -127 299 -260 342 -346 49 -97 56 -131
55 -268 0 -131 -14 -216 -50 -309 -27 -70 -147 -262 -209 -333 -26 -31 -93
-110 -148 -175 -130 -155 -335 -359 -510 -509 -77 -66 -146 -126 -153 -135
-18 -20 -67 -128 -76 -165 -17 -68 -78 -173 -147 -250 -39 -44 -87 -104 -106
-132 -36 -53 -36 -53 -43 -200 -8 -157 -11 -168 -82 -323 -19 -41 -43 -97 -53
-125 -10 -27 -22 -54 -25 -60 -4 -5 -15 -40 -25 -78 -32 -119 -8 -353 63 -627
11 -41 44 -106 70 -137 111 -128 343 -56 590 181 157 151 255 323 288 506 26
142 10 253 -47 344 -72 112 -81 137 -74 195 9 81 37 135 107 204 51 50 75 66
123 81 83 25 154 62 192 98 57 55 97 162 108 288 10 107 53 221 118 315 80
114 485 629 571 725 78 88 190 213 201 224 229 245 405 629 356 779 -18 54
-83 137 -225 287 -227 241 -382 451 -485 657 -127 258 -141 547 -34 733 35 60
115 172 173 240 61 72 273 338 330 415 120 161 205 255 232 255 26 0 65 -48
92 -115 92 -227 114 -277 150 -335 52 -85 121 -171 240 -300 153 -166 177
-208 221 -388 8 -35 15 -75 15 -89 0 -14 4 -42 9 -62 6 -20 17 -70 26 -111 17
-84 43 -185 55 -215 4 -11 15 -38 23 -60 9 -22 25 -67 37 -100 12 -33 43 -105
70 -160 153 -316 151 -309 121 -513 -47 -314 -51 -460 -15 -567 31 -90 104
-209 171 -280 82 -86 132 -169 161 -265 13 -44 35 -170 56 -320 9 -63 21 -144
26 -180 6 -36 17 -111 25 -168 9 -63 15 -175 15 -292 0 -196 -2 -213 -59 -420
-26 -94 -28 -213 -4 -272 9 -24 45 -89 80 -146 35 -56 63 -109 63 -117 0 -7 5
-17 10 -20 19 -12 10 -128 -15 -205 -35 -105 -36 -240 -2 -290 45 -66 74 -126
121 -245 105 -265 194 -398 309 -460 72 -40 151 -40 222 0 108 60 232 191 287
300 73 145 82 280 34 485 -32 136 -38 155 -71 227 -46 100 -94 162 -179 235
-39 34 -75 67 -79 75 -5 8 -3 69 3 136 15 149 4 204 -64 319 -88 150 -138 285
-161 443 -4 22 -10 60 -15 85 -10 46 -30 184 -50 345 -6 50 -18 135 -25 190
-54 396 -52 525 12 675 75 173 107 316 108 470 0 114 -3 131 -29 200 -30 78
-92 204 -147 300 -63 110 -71 145 -80 382 -4 119 -15 251 -23 295 -9 43 -20
101 -26 128 -46 228 -52 411 -20 564 17 78 119 406 149 476 36 84 103 335 131
490 28 158 33 248 39 615 6 378 7 395 25 398 13 3 34 -12 65 -46 209 -227 315
-318 615 -526 54 -38 112 -81 130 -96 34 -29 222 -160 230 -160 3 0 34 -17 68
-38 82 -50 97 -55 104 -37 5 12 -53 106 -77 125 -14 12 -99 146 -99 157 0 20
17 16 140 -31 63 -24 210 -75 325 -112 116 -37 232 -78 260 -92 78 -39 189
-125 428 -332 180 -157 287 -218 287 -165 0 45 -317 559 -414 673 -54 63 -60
87 -18 78 15 -4 45 -9 67 -12 135 -20 388 -121 683 -273 46 -24 101 -45 123
-48 68 -9 63 -2 -141 242 -33 39 -110 120 -172 180 -464 452 -534 505 -855
650 -35 16 -63 32 -63 37 0 15 52 21 128 14 154 -13 278 -44 447 -111 156 -62
206 -87 411 -205 190 -108 284 -140 284 -97 0 25 -152 236 -230 320 -204 218
-444 369 -875 552 -125 53 -274 85 -398 85 -79 0 -381 35 -467 54 -120 27
-278 86 -352 133 -21 13 -40 23 -43 23 -20 0 -201 135 -257 192 -104 105 -91
130 35 70 73 -35 164 -78 252 -118 69 -31 238 -83 410 -125 44 -11 96 -24 115
-29 115 -30 271 -42 495 -37 230 4 614 30 670 45 55 15 43 39 -37 76 -121 55
-198 83 -338 121 -36 9 -74 21 -85 25 -11 5 -49 17 -85 28 -180 56 -340 124
-340 145 0 10 21 16 73 20 143 11 542 95 692 147 50 17 104 35 120 40 54 17
261 127 316 167 117 88 127 124 28 105 -30 -6 -115 -18 -189 -27 -74 -9 -171
-20 -215 -25 -192 -23 -738 -5 -925 30 -245 47 -354 77 -495 135 -272 112
-460 256 -717 550 -260 297 -493 481 -668 527 -151 40 -229 48 -450 50 -157 1
-237 -3 -265 -11 -77 -25 -164 -74 -255 -146 -50 -40 -111 -82 -135 -94 -43
-21 -51 -21 -115 6 -19 8 -44 18 -55 22 -11 5 -33 14 -50 21 -72 29 -330 109
-430 133 -275 67 -527 91 -935 92 -357 0 -414 -6 -635 -66 -51 -14 -213 -68
-240 -79 -26 -12 -230 -80 -275 -92 -335 -91 -643 -79 -853 35 -108 58 -294
192 -543 391 -83 67 -191 152 -240 191 -98 77 -244 213 -244 227 0 18 32 19
68 2 28 -14 59 -19 132 -18 113 0 211 30 407 125 67 32 125 59 129 59 3 0 20
6 37 14 18 8 56 22 86 32 29 11 56 25 59 32 11 29 -24 49 -413 237 -162 78
-182 85 -249 85 -96 0 -276 40 -276 62 0 16 21 16 116 1 80 -13 193 -16 594
-17 272 -1 505 2 518 6 86 29 -100 143 -390 240 -160 53 -202 63 -338 83 -122
17 -184 38 -178 58 3 6 31 18 64 25 207 47 383 95 558 153 119 40 146 53 146
70 0 23 -37 29 -340 59 -300 30 -454 52 -680 100 -103 21 -210 65 -218 88 -5
16 53 15 153 -3 89 -16 346 -20 391 -6 16 5 63 17 104 26 145 32 365 138 358
173 -3 15 -31 18 -258 24 -140 4 -308 11 -372 17 -64 6 -142 11 -173 11 -67 0
-69 12 -5 47 162 90 230 144 230 184 0 35 -33 41 -198 34 -131 -6 -163 -5
-194 8 -21 9 -38 20 -38 25 0 5 30 17 68 27 220 58 309 97 442 195 90 67 105
84 86 99 -12 10 -51 10 -178 2 -292 -19 -764 -7 -838 21 -45 18 -81 37 -103
56 -16 14 -16 16 -1 34 10 10 22 18 28 18 18 0 123 57 200 108 39 27 78 51 86
55 8 4 29 15 45 25 29 18 57 34 180 102 100 55 170 105 170 120 0 13 -46 15
-345 12 -320 -4 -351 -2 -425 16 -120 31 -139 38 -232 82 -71 35 -101 58 -175
132 -49 50 -86 94 -81 99 5 5 74 10 153 11 135 3 145 4 145 22 0 14 -21 30
-75 58 -41 21 -88 42 -105 47 -76 24 -177 65 -274 114 -154 76 -315 168 -325
186 -25 41 -111 94 -256 156 -102 43 -200 63 -355 70 -114 5 -134 4 -164 -12
-19 -10 -36 -23 -38 -28 -2 -6 13 -28 32 -50 19 -22 39 -51 44 -65 5 -14 24
-65 42 -115 52 -143 65 -163 184 -285 320 -328 509 -564 647 -808 98 -175 178
-322 218 -402 73 -146 190 -409 210 -470 10 -30 22 -66 28 -80 5 -14 18 -45
27 -70 10 -25 21 -54 25 -65 5 -11 22 -56 40 -100 17 -44 38 -95 46 -112 8
-18 21 -50 28 -70 8 -21 27 -67 43 -103 17 -36 41 -87 53 -115 133 -293 164
-354 271 -525 125 -200 241 -351 345 -450 146 -139 407 -338 562 -428 35 -20
71 -42 80 -47 22 -13 195 -111 252 -143 25 -14 119 -75 210 -135 211 -141 308
-187 485 -234 98 -25 451 -25 570 1 172 37 274 62 310 76 11 4 40 15 65 23 25
8 124 44 220 80 96 36 202 72 235 82 33 9 69 20 80 25 21 9 114 29 259 55 174
33 461 -6 881 -119 45 -12 177 -57 294 -101 142 -52 434 -211 575 -312 283
-203 480 -421 704 -778 65 -103 255 -481 287 -570 10 -27 23 -63 30 -80 17
-39 55 -151 65 -190 4 -16 17 -64 28 -105 19 -71 38 -159 61 -280 35 -178 54
-654 31 -785 -30 -178 -72 -302 -172 -505 -89 -182 -156 -290 -227 -363 -57
-60 -88 -77 -139 -77 -115 0 -413 237 -616 489 -82 103 -171 266 -201 371 -24
82 -26 349 -6 641 11 161 11 228 1 370 -20 284 -64 479 -145 657 -26 56 -38
72 -55 72 -21 0 -21 -2 -19 -233 2 -168 -1 -239 -10 -255 -23 -43 -39 -18 -76
113 -78 277 -262 639 -439 858 -182 226 -435 407 -623 447 -67 14 -93 9 -93
-15 0 -8 72 -88 161 -177 335 -337 486 -556 683 -991 45 -99 124 -333 149
-437 51 -217 50 -529 -3 -780 -45 -214 -182 -481 -359 -700 -314 -388 -556
-622 -896 -867 -321 -231 -504 -336 -755 -436 -199 -80 -283 -109 -335 -117
-27 -4 -66 -11 -86 -15 -41 -8 -58 5 -33 26 18 15 143 69 158 69 14 0 129 42
236 87 398 165 744 397 1056 707 156 156 241 254 346 403 72 101 168 254 168
269 0 2 11 27 24 56 61 134 106 327 106 459 0 74 -3 91 -16 96 -11 4 -22 -1
-31 -13 -68 -94 -200 -226 -288 -289 -203 -145 -396 -211 -725 -250 -257 -31
-629 -16 -790 32 -178 52 -297 168 -364 353 -47 129 -55 144 -71 130 -8 -6
-31 -55 -51 -108 -148 -388 -227 -544 -369 -725 -76 -96 -91 -97 -87 -2 2 39
8 87 13 109 11 40 14 59 49 266 26 162 49 294 60 350 22 110 49 270 72 430 26
171 13 624 -23 810 -30 160 -44 166 -97 48 -68 -150 -137 -282 -150 -286 -14
-4 -38 48 -52 111 -28 134 -60 266 -70 291 -10 27 -12 27 -28 13 -23 -21 -65
-153 -97 -302 -9 -44 -20 -98 -25 -120 -8 -36 -15 -87 -50 -325 -5 -36 -16
-108 -24 -160 -32 -210 -41 -344 -41 -595 0 -306 1 -315 90 -645 128 -480 113
-732 -65 -1045 -33 -58 -75 -119 -148 -213 -73 -94 -95 -102 -119 -40 -15 37
-15 37 60 195 110 233 111 237 111 383 -1 110 -4 135 -28 205 -36 104 -87 205
-178 350 -178 285 -216 358 -258 489 -41 132 -51 172 -77 319 -10 53 -22 97
-28 97 -5 0 -16 -15 -24 -32 -7 -18 -20 -49 -29 -68 -37 -87 -69 -150 -110
-212 -71 -109 -89 -100 -78 40 21 282 26 392 21 522 -11 286 -34 519 -56 562
-20 38 -53 -4 -89 -112 -52 -155 -76 -215 -130 -325 -119 -244 -255 -407 -398
-477 -163 -80 -379 -33 -579 127 -44 35 -87 75 -97 89 -34 53 -142 156 -162
156 -57 0 -167 -174 -194 -307 -13 -66 -8 -307 9 -428 4 -33 14 -102 21 -152
8 -51 11 -96 7 -100 -32 -31 -251 194 -329 337 -76 141 -109 363 -78 531 19
105 40 285 40 346 0 75 17 158 35 173 14 12 43 -30 99 -143 34 -68 81 -110
142 -127 78 -22 120 12 191 155 57 114 165 398 235 615 60 186 118 357 173
515 83 235 101 290 125 390 38 161 41 177 80 410 7 39 14 177 17 307 5 231 -4
382 -37 613 -12 82 -28 203 -40 295 -10 73 -32 211 -55 345 -9 50 -20 117 -25
150 -5 33 -16 98 -25 145 -9 47 -20 110 -24 140 -9 58 -26 153 -41 235 -24
127 -41 217 -55 300 -16 90 -20 108 -50 260 -23 117 -35 156 -166 555 -90 275
-235 602 -342 775 -27 44 -63 105 -80 135 -37 67 -136 220 -143 220 -12 0 -32
-70 -38 -130 -20 -196 -28 -234 -55 -257 -14 -13 -31 -23 -38 -23 -19 0 -80
-78 -98 -128 -27 -71 -29 -72 -116 -72 -78 0 -100 -9 -80 -34 17 -20 3 -26
-64 -26 -47 0 -66 4 -78 18 -21 23 -22 46 -1 63 14 11 13 15 -8 32 -36 29
-125 67 -157 67 -33 0 -80 -46 -98 -96 -10 -29 -14 -41 -53 -174 -13 -41 -42
-117 -67 -169 -26 -55 -43 -104 -41 -120 l3 -26 135 -7 c265 -13 308 -39 175
-102 -42 -20 -79 -36 -83 -36 -17 0 -75 -66 -98 -112 -30 -59 -58 -137 -72
-203 -55 -249 -70 -304 -98 -352 -29 -50 -90 -101 -159 -132 -27 -13 -65 -30
-83 -38 -81 -38 -267 -255 -278 -325 -18 -106 76 -110 261 -11 44 24 109 57
145 74 208 99 235 105 278 70 61 -52 10 -150 -213 -409 -103 -119 -198 -248
-216 -293 -10 -24 -18 -62 -18 -84 -1 -43 -36 -288 -49 -345 -24 -98 -209
-423 -268 -469 -42 -33 -137 -29 -195 7 -59 38 -91 78 -116 143 -63 167 -55
306 21 382 43 43 145 92 159 78 8 -8 0 -23 -29 -54 -76 -79 -86 -92 -105 -132
-21 -45 -25 -135 -8 -168 40 -77 100 -88 206 -35 80 39 141 92 198 173 71 99
88 146 83 227 -5 57 -14 86 -58 175 -34 68 -71 125 -101 156 l-48 50 -56 -6
c-70 -7 -102 -30 -193 -140 -110 -133 -136 -173 -142 -225 -3 -31 -10 -48 -20
-50 -19 -3 -113 85 -134 126 -9 17 -26 36 -37 43 -30 16 -44 -2 -66 -85 -22
-84 -44 -103 -74 -66 -50 62 -96 104 -129 117 -53 22 -110 81 -110 116 0 40
14 63 80 133 93 97 201 280 290 489 62 146 151 392 200 555 17 58 36 116 40
130 5 14 25 93 45 175 20 83 60 249 90 370 64 262 82 347 90 437 7 68 -4 108
-28 108 -7 0 -41 -36 -77 -81 -73 -93 -98 -109 -136 -89 -41 23 -134 143 -134
175 0 29 6 36 446 485 94 96 193 200 220 230 83 93 122 130 138 130 8 0 46
-44 84 -97 115 -162 135 -169 165 -58 10 39 26 97 34 130 27 100 100 231 125
223 5 -2 18 -27 28 -56 10 -29 35 -75 55 -102 91 -124 308 -288 532 -403 141
-72 147 -62 49 85 -42 62 -76 120 -76 127 0 7 13 30 29 50 50 64 72 119 78
195 9 127 -24 286 -107 516 -23 63 -48 135 -57 160 -71 209 -264 476 -412 571
-51 33 -53 33 -69 17z m1233 -889 c80 -22 183 -78 204 -111 11 -18 45 -58 76
-88 32 -30 90 -95 131 -145 40 -49 90 -109 110 -133 36 -41 37 -44 25 -82 -19
-64 -52 -52 -201 75 -47 40 -99 80 -117 89 -35 18 -89 21 -98 7 -3 -6 8 -36
24 -68 18 -34 26 -62 21 -67 -5 -5 -33 12 -67 41 -32 28 -116 92 -188 143 -71
51 -155 111 -185 133 -71 52 -190 168 -190 185 0 7 10 17 23 22 32 13 384 12
432 -1z m-374 -1266 c19 -23 31 -61 69 -213 38 -155 50 -198 62 -232 5 -14 14
-41 18 -60 5 -18 16 -58 24 -88 66 -230 85 -605 39 -805 -55 -244 -150 -428
-258 -499 -58 -38 -84 -34 -183 31 -126 84 -186 146 -201 210 -16 64 -10 89
45 225 80 195 111 336 120 539 7 161 1 233 -19 226 -14 -4 -101 -176 -122
-242 -22 -67 -184 -394 -235 -473 -43 -67 -81 -92 -140 -92 -62 0 -120 49
-120 100 0 46 80 156 265 365 40 44 109 127 155 185 46 58 100 125 121 150 47
58 78 114 122 226 31 76 48 131 97 319 16 63 42 106 73 125 39 24 50 25 68 3z
m542 -996 c24 -36 63 -180 77 -282 52 -373 70 -660 70 -1110 0 -602 -51 -1359
-110 -1620 -5 -22 -16 -76 -26 -120 -24 -115 -82 -301 -99 -315 -11 -9 -16 -6
-26 12 -18 33 -45 173 -69 353 -6 44 -13 87 -15 95 -12 40 -58 415 -85 685
-14 149 -26 271 -45 455 -9 85 -17 225 -18 310 -1 159 0 163 50 320 44 135
122 455 147 600 28 166 37 221 46 313 23 214 29 255 44 290 17 42 37 47 59 14z
m7132 -2272 c118 -15 155 -23 225 -50 174 -65 260 -112 353 -189 77 -64 56
-93 -43 -57 -98 36 -202 51 -351 51 -115 0 -141 -3 -145 -15 -9 -23 9 -38 89
-79 87 -43 143 -88 133 -104 -16 -26 -332 -5 -526 34 -41 8 -106 31 -145 50
-91 45 -209 126 -213 146 -3 17 53 74 124 124 40 28 93 56 174 92 36 15 186
14 325 -3z m-8123 -975 c4 -30 14 -95 22 -145 94 -564 95 -585 39 -905 -10
-53 -17 -148 -17 -215 0 -104 3 -126 22 -167 28 -59 111 -150 186 -203 65 -47
72 -59 51 -92 -36 -55 -258 -204 -339 -228 -147 -44 -365 20 -474 140 -135
148 -163 334 -94 640 15 67 89 275 132 370 14 33 37 85 51 115 40 90 258 521
295 581 19 31 46 82 60 113 34 75 56 73 66 -4z m-263 -3248 c20 -21 59 -74 86
-118 27 -43 71 -110 99 -149 93 -131 111 -187 81 -245 -16 -32 -123 -202 -210
-335 -84 -129 -138 -236 -126 -248 11 -11 89 24 208 93 29 16 54 26 57 21 15
-24 -142 -219 -316 -390 -445 -438 -469 -473 -419 -615 28 -80 30 -273 3 -326
-16 -32 -21 -35 -68 -38 -57 -3 -50 -9 -127 97 -49 67 -55 69 -128 36 -89 -39
-215 -47 -282 -17 -64 28 -85 71 -62 125 8 21 64 88 123 150 195 204 235 255
341 435 138 233 270 555 366 887 30 106 34 118 76 245 61 186 153 360 216 410
35 27 41 26 82 -18z m2815 -27 c71 -30 153 -90 254 -189 56 -55 112 -115 123
-133 l21 -34 -36 -55 c-40 -60 -73 -94 -396 -409 -234 -228 -290 -288 -572
-621 -350 -412 -505 -634 -524 -752 -5 -32 -2 -49 15 -77 26 -45 26 -55 2 -55
-11 0 -31 -14 -46 -32 -32 -38 -29 -71 12 -125 24 -32 28 -45 28 -106 0 -88
-18 -107 -105 -107 -66 0 -80 9 -111 75 -24 51 -75 105 -100 105 -10 0 -54
-25 -99 -56 -45 -30 -98 -61 -118 -68 -94 -33 -221 -27 -250 11 -22 29 -8 105
32 167 19 30 95 125 170 211 164 191 283 346 403 525 140 210 156 236 236 380
41 74 84 153 97 175 12 22 42 74 65 115 23 41 66 120 95 175 63 118 209 353
286 461 84 117 148 185 293 315 144 128 155 133 225 104z m363 -1012 c-3 -29
-11 -69 -18 -90 -19 -54 -102 -187 -166 -265 -59 -73 -244 -254 -393 -387 -52
-46 -122 -109 -155 -140 -33 -31 -103 -95 -155 -141 -52 -47 -120 -108 -150
-136 -225 -209 -322 -287 -352 -282 -26 3 -73 85 -63 109 4 8 30 30 60 49 49
32 131 107 419 380 269 256 371 359 559 570 111 124 244 267 295 318 80 82 95
92 108 81 13 -10 15 -25 11 -66z m3334 -2162 c21 -17 22 -20 9 -52 -16 -38
-85 -141 -158 -235 -26 -34 -74 -97 -107 -140 -33 -43 -80 -104 -105 -134 -97
-116 -266 -347 -289 -394 -25 -54 -25 -102 -1 -208 7 -31 10 -68 6 -82 -16
-66 -195 -92 -276 -41 -55 35 -83 32 -127 -13 -76 -76 -164 -297 -184 -462
-19 -160 -4 -203 107 -315 41 -40 74 -80 74 -87 0 -17 -39 -71 -71 -99 -87
-77 -224 -125 -422 -150 -177 -21 -267 -2 -267 58 0 61 75 193 215 378 96 127
115 164 115 227 0 34 -4 40 -32 53 -18 7 -49 17 -70 20 -77 12 -57 58 79 181
54 49 116 106 139 127 42 39 83 106 125 207 32 77 89 141 263 294 210 185 353
339 605 651 85 105 133 158 184 203 34 29 44 32 101 32 47 0 70 -5 87 -19z
m-7306 -407 c17 -32 46 -95 65 -139 62 -145 140 -289 200 -370 79 -104 89
-137 64 -206 -30 -82 -54 -94 -179 -93 -129 2 -245 27 -276 60 l-22 24 22 97
c62 274 60 259 61 474 0 113 3 209 7 213 13 13 28 -1 58 -60z m2453 -86 c17
-24 41 -54 54 -68 13 -14 53 -61 90 -105 70 -85 222 -236 299 -298 68 -55 94
-56 154 -11 28 21 75 59 105 84 108 92 135 105 214 104 123 -1 206 -64 206
-156 0 -122 -97 -217 -146 -143 -28 43 -53 34 -170 -60 -94 -76 -293 -172
-329 -159 -19 7 -45 55 -45 82 0 10 -6 26 -12 35 -12 15 -20 14 -98 -12 -47
-16 -105 -30 -130 -32 l-45 -4 0 80 c0 56 -6 94 -19 125 -10 25 -22 54 -27 65
-4 11 -18 43 -30 70 -39 89 -80 189 -94 230 -18 52 -45 171 -45 196 0 33 35
21 68 -23z m1293 -23 c170 -49 279 -141 279 -235 0 -102 -75 -160 -205 -160
-69 0 -121 26 -185 95 -19 20 -61 55 -92 77 -32 23 -58 44 -58 48 0 4 17 32
38 62 93 136 111 144 223 113z m6091 -522 c10 -9 18 -23 18 -32 0 -9 7 -36 15
-61 73 -223 73 -223 186 -385 80 -115 87 -158 33 -203 -58 -48 -139 -67 -289
-67 -114 1 -135 3 -172 23 -23 12 -47 30 -52 40 -16 30 4 96 76 249 39 81 78
177 87 213 10 36 21 79 26 95 5 17 12 48 16 70 7 43 21 75 31 75 4 0 15 -7 25
-17z m481 -1096 c34 -34 69 -75 76 -90 14 -25 13 -32 -4 -65 -61 -115 -259
-241 -444 -282 -72 -17 -190 -8 -232 16 -66 38 -83 118 -43 195 18 35 32 36
109 4 33 -13 78 -25 99 -25 84 0 176 72 291 228 33 45 66 82 73 82 7 0 40 -28
75 -63z"/>
<path d="M5774 14580 c-40 -16 -64 -78 -64 -166 0 -70 15 -97 50 -92 20 2 29
16 52 77 16 40 37 86 48 101 28 39 25 55 -14 74 -38 18 -42 18 -72 6z"/>
<path d="M13380 2600 c-223 -10 -504 -28 -533 -35 -12 -3 -67 -9 -122 -15
-145 -14 -347 -47 -465 -75 -36 -9 -83 -20 -105 -25 -52 -11 -186 -47 -250
-66 -27 -8 -75 -22 -105 -31 -30 -8 -63 -19 -72 -24 -10 -5 -22 -9 -28 -9 -19
0 -90 -50 -90 -64 0 -15 14 -23 70 -38 19 -5 289 -13 600 -17 607 -9 629 -11
645 -61 10 -32 -18 -56 -86 -71 -57 -13 -70 -21 -49 -34 13 -8 496 22 565 35
28 5 93 17 145 26 146 26 295 69 295 84 0 27 -66 32 -418 35 -211 2 -363 7
-368 12 -12 12 -1 22 73 61 107 56 227 93 398 121 36 5 97 15 135 21 39 7 108
16 155 21 482 49 651 82 616 117 -32 31 -610 50 -1006 32z"/>
<path d="M8080 2204 c-8 -2 -121 -8 -250 -13 -373 -16 -493 -34 -775 -122
-172 -53 -249 -83 -371 -140 -56 -27 -112 -51 -125 -54 -37 -10 -62 -32 -56
-50 6 -13 41 -15 264 -15 295 0 646 15 742 31 82 13 260 65 346 99 11 5 43 15
70 24 28 9 91 29 140 45 105 33 206 63 290 86 171 47 210 64 190 84 -19 18
-407 39 -465 25z"/>
<path d="M6240 2184 c-149 -7 -362 -27 -460 -45 -156 -28 -179 -34 -245 -60
-45 -18 -60 -29 -60 -44 0 -18 9 -21 95 -28 107 -9 385 -2 535 14 195 19 359
52 493 98 142 49 99 72 -131 69 -89 -1 -191 -3 -227 -4z"/>
<path d="M9715 2094 c-237 -25 -302 -37 -540 -95 -129 -31 -262 -71 -295 -89
-25 -13 -26 -47 -2 -54 35 -11 557 -26 892 -26 353 0 578 14 755 45 50 9 115
20 145 25 51 8 128 25 227 50 23 5 68 21 100 35 121 54 92 87 -93 110 -156 20
-1009 19 -1189 -1z"/>
</g>
</svg>
