<?xml version="1.0" standalone="no"?>
<!DOCTYPE svg PUBLIC "-//W3C//DTD SVG 20010904//EN"
 "http://www.w3.org/TR/2001/REC-SVG-20010904/DTD/svg10.dtd">
<svg version="1.0" xmlns="http://www.w3.org/2000/svg"
 width="735.620511pt" height="1450.893827pt" viewBox="0 0 735.620511 1450.893827"
 preserveAspectRatio="xMidYMid meet">

<g transform="translate(-633.164196,1730.739945) scale(0.100000,-0.100000)"
fill="#000000" stroke="none">
<path d="M6581 17299 c-61 -15 -141 -95 -169 -172 -27 -72 -47 -209 -67 -454
-27 -345 -15 -578 51 -953 150 -849 477 -1580 988 -2205 202 -248 407 -457
689 -703 70 -62 117 -111 117 -122 0 -10 -33 -58 -73 -107 -189 -228 -329
-462 -428 -713 -211 -539 -245 -1071 -103 -1598 47 -176 149 -426 229 -567 28
-49 67 -119 85 -154 l34 -63 -39 -32 c-373 -295 -628 -582 -880 -991 -173
-281 -376 -732 -452 -1005 -85 -310 -103 -407 -145 -780 -17 -149 -17 -564 0
-705 47 -401 115 -678 249 -1020 65 -165 181 -402 260 -527 13 -21 23 -40 23
-43 0 -3 22 -38 48 -78 27 -40 70 -107 96 -151 57 -94 64 -80 -99 -181 -122
-75 -167 -108 -239 -175 -182 -169 -291 -330 -350 -520 -38 -118 -39 -256 -3
-332 31 -68 87 -125 135 -137 24 -7 1251 -11 3492 -12 3225 -2 3458 -1 3495
15 79 33 135 109 155 211 41 203 -87 480 -339 735 -97 98 -163 148 -300 230
-82 49 -96 61 -93 81 1 13 47 89 101 169 270 400 477 902 570 1380 45 228 55
360 56 690 0 309 -4 370 -41 615 -68 455 -260 1012 -476 1386 -136 235 -216
351 -397 579 -96 121 -458 484 -533 535 -32 21 -60 47 -64 57 -4 13 20 63 71
153 226 394 338 814 338 1265 0 351 -50 613 -193 1004 -73 200 -233 458 -452
730 -26 33 -48 70 -48 81 0 14 34 53 103 116 651 598 1023 1104 1297 1763 157
379 280 799 349 1201 61 354 59 983 -5 1240 -32 131 -91 210 -185 249 -184 77
-686 -51 -1164 -296 -90 -47 -337 -198 -435 -266 -354 -250 -689 -586 -961
-967 -94 -132 -142 -210 -223 -368 -220 -430 -339 -783 -398 -1182 -5 -38 -13
-189 -17 -335 l-6 -265 -208 0 c-152 0 -211 3 -219 12 -6 7 -7 29 -3 52 9 53
-12 413 -31 526 -24 143 -49 264 -74 355 -116 419 -266 756 -483 1085 -248
378 -446 602 -772 876 -280 235 -679 476 -1010 609 -110 44 -349 123 -470 155
-113 30 -307 42 -384 24z m399 -450 c226 -61 665 -267 909 -427 219 -144 369
-268 571 -471 271 -274 474 -567 646 -936 108 -229 138 -310 199 -520 9 -33
23 -80 31 -105 7 -25 25 -103 40 -175 26 -123 28 -144 28 -400 0 -242 -3 -288
-27 -447 -31 -203 -32 -227 -13 -234 8 -3 41 -1 73 5 290 56 341 61 585 61
173 0 253 -5 358 -21 257 -39 281 -41 297 -27 18 14 14 94 -15 288 -24 168
-23 605 2 750 54 319 174 676 318 950 63 120 186 315 273 435 130 177 420 484
600 635 351 294 895 575 1268 655 99 22 123 16 138 -33 17 -55 24 -572 9 -702
-24 -220 -72 -478 -120 -655 -13 -44 -27 -96 -32 -115 -74 -275 -182 -550
-344 -873 -90 -179 -117 -226 -200 -352 -222 -332 -366 -504 -770 -915 -111
-113 -233 -241 -270 -285 -38 -44 -96 -108 -128 -142 -89 -94 -88 -95 75 -256
223 -219 356 -401 479 -651 138 -283 209 -537 240 -866 10 -106 9 -148 -4
-271 -33 -298 -85 -467 -244 -789 -75 -151 -148 -268 -263 -417 -107 -137
-106 -143 9 -218 265 -176 570 -446 758 -675 365 -442 640 -1024 768 -1625 53
-251 61 -340 60 -645 0 -305 -12 -437 -60 -685 -37 -192 -47 -230 -109 -417
-60 -181 -95 -267 -175 -423 -137 -268 -268 -464 -487 -725 -198 -238 -198
-238 -130 -263 324 -118 393 -150 547 -252 148 -99 257 -198 318 -290 29 -43
51 -84 49 -90 -3 -7 -308 -10 -958 -10 l-954 0 -3 67 c-2 42 -8 71 -17 78 -15
12 -64 3 -225 -41 -165 -45 -393 -88 -595 -110 -181 -21 -760 -18 -936 4 -182
23 -344 52 -454 82 -49 14 -131 36 -182 50 -149 41 -160 36 -165 -65 l-3 -65
-920 -3 c-506 -1 -931 0 -943 3 -20 5 -23 10 -17 33 12 48 72 136 137 198 74
72 156 130 290 207 117 67 149 83 343 162 104 42 151 66 153 78 3 15 -39 76
-82 119 -167 169 -417 527 -540 778 -187 379 -303 768 -351 1178 -17 155 -21
559 -5 679 29 220 43 306 60 388 24 112 102 386 136 480 276 753 680 1292
1295 1733 94 67 159 132 159 160 0 23 -28 67 -101 159 -238 300 -387 646 -453
1054 -24 143 -21 432 4 578 22 132 76 332 119 442 49 126 175 369 249 480 63
94 210 280 365 465 37 44 57 77 57 93 0 18 -22 49 -72 101 -161 168 -341 352
-459 467 -322 315 -465 478 -636 723 -165 237 -286 449 -398 701 -26 57 -53
118 -60 134 -123 270 -249 730 -314 1140 -33 209 -43 569 -23 790 13 133 18
140 107 130 33 -3 94 -15 135 -26z"/>
<path d="M7726 16041 c-21 -23 -41 -130 -57 -301 -9 -103 -8 -161 5 -331 27
-344 60 -526 149 -814 71 -229 194 -473 335 -665 108 -147 299 -367 452 -520
168 -169 227 -216 258 -206 60 19 112 261 112 516 -1 554 -241 1211 -647 1768
-156 214 -313 379 -493 517 -70 54 -92 61 -114 36z"/>
<path d="M12215 16041 c-152 -69 -461 -413 -657 -730 -187 -304 -374 -756
-438 -1058 -65 -312 -67 -739 -5 -972 22 -84 34 -90 93 -52 97 62 446 435 625
668 201 262 375 663 452 1040 47 235 59 361 59 633 0 305 -21 451 -68 482 -15
10 -15 10 -61 -11z"/>
<path d="M8855 11931 c-49 -12 -107 -46 -147 -85 -54 -53 -58 -86 -58 -500 0
-310 2 -369 16 -402 24 -58 61 -103 112 -135 40 -26 55 -29 123 -29 118 0 200
44 261 139 l28 45 0 290 c0 336 -10 459 -42 523 -26 51 -95 118 -141 138 -43
18 -115 25 -152 16z"/>
<path d="M11030 11905 c-67 -34 -127 -97 -142 -147 -10 -32 -13 -141 -13 -425
l0 -381 30 -44 c17 -23 57 -61 88 -83 49 -34 67 -40 123 -43 110 -7 201 44
262 147 l27 46 -3 348 c-3 462 -13 503 -136 572 -54 30 -72 35 -127 35 -47 -1
-76 -7 -109 -25z"/>
<path d="M9683 10720 c-93 -20 -126 -56 -103 -115 11 -29 142 -189 190 -232
14 -13 58 -40 99 -60 l73 -38 -5 -115 c-10 -202 -48 -291 -146 -342 -44 -23
-66 -28 -124 -28 -68 0 -73 2 -157 55 -48 30 -96 55 -108 55 -28 0 -62 -46
-62 -84 1 -77 82 -184 173 -229 78 -38 138 -50 225 -45 89 5 153 34 233 106
26 23 51 42 56 42 5 0 24 -16 43 -35 52 -53 102 -85 161 -101 143 -37 304 4
404 103 78 79 99 170 50 218 -33 34 -59 31 -139 -15 -154 -90 -239 -92 -325
-8 -75 74 -110 174 -111 319 0 97 -4 91 110 171 83 58 197 174 227 230 41 77
27 114 -52 138 -48 15 -648 23 -712 10z"/>
<path d="M8050 7546 c-100 -68 -268 -355 -393 -671 -184 -465 -288 -918 -291
-1260 -1 -136 0 -141 28 -192 37 -68 75 -103 122 -114 72 -16 138 6 199 67 53
53 65 93 81 274 31 355 56 537 114 820 31 151 159 652 226 883 37 130 40 148
23 180 -24 44 -57 48 -109 13z"/>
<path d="M11901 7541 c-34 -48 -30 -71 49 -291 148 -411 296 -1100 320 -1490
15 -238 30 -304 86 -377 52 -68 160 -96 231 -60 38 20 80 69 104 122 36 78 23
334 -31 605 -37 189 -126 510 -190 685 -96 265 -240 537 -385 729 -81 108
-144 134 -184 77z"/>
</g>
</svg>
