<?xml version="1.0" standalone="no"?>
<!DOCTYPE svg PUBLIC "-//W3C//DTD SVG 20010904//EN"
 "http://www.w3.org/TR/2001/REC-SVG-20010904/DTD/svg10.dtd">
<svg version="1.0" xmlns="http://www.w3.org/2000/svg"
 width="1392.270754pt" height="689.118098pt" viewBox="0 0 1392.270754 689.118098"
 preserveAspectRatio="xMidYMid meet">

<g transform="translate(-313.585494,1278.633328) scale(0.100000,-0.100000)"
fill="#000000" stroke="none">
<path d="M8970 12770 c-281 -32 -494 -72 -1140 -214 -149 -33 -221 -76 -205
-125 3 -11 39 -41 78 -66 40 -26 159 -103 266 -171 285 -184 281 -182 387
-140 55 22 91 38 234 103 82 37 97 43 335 148 265 117 324 147 348 173 36 40
34 233 -2 281 -25 33 -88 35 -301 11z"/>
<path d="M9610 12782 c-58 -9 -80 -66 -80 -210 0 -73 3 -92 18 -105 26 -24
234 -121 493 -230 228 -97 296 -127 406 -178 74 -34 86 -35 155 -9 59 22 366
206 501 300 75 53 87 66 87 90 0 52 -42 72 -280 133 -450 115 -1161 229 -1300
209z"/>
<path d="M7230 12301 c-161 -52 -325 -166 -730 -511 -297 -252 -427 -379 -461
-449 -47 -100 -38 -124 101 -243 248 -214 435 -360 517 -402 31 -15 35 -15 86
8 30 13 79 39 109 59 30 19 117 70 194 114 263 152 879 526 921 560 72 58 123
192 123 325 0 61 -1 62 -48 107 -74 71 -496 368 -599 422 -65 34 -129 37 -213
10z"/>
<path d="M11400 12306 c-55 -20 -78 -34 -240 -151 -369 -267 -392 -287 -406
-364 -16 -84 52 -301 112 -356 31 -29 100 -71 254 -153 36 -20 142 -82 235
-140 699 -432 734 -452 761 -452 39 0 124 51 286 171 238 177 405 315 423 349
40 77 9 139 -139 271 -483 432 -822 702 -981 781 -102 52 -233 70 -305 44z"/>
<path d="M9305 12260 c-33 -12 -73 -27 -90 -35 -16 -7 -55 -24 -85 -38 -30
-14 -125 -58 -210 -99 -85 -41 -238 -113 -340 -159 -232 -105 -253 -124 -293
-256 -16 -53 -29 -121 -30 -159 l-2 -66 51 -47 c28 -25 87 -67 130 -92 295
-174 479 -284 655 -394 111 -70 226 -138 255 -153 l54 -26 42 21 c24 11 178
101 343 200 165 98 394 235 510 304 115 68 226 140 247 160 36 34 38 39 38 95
0 126 -51 243 -132 301 -46 33 -157 87 -363 178 -170 75 -187 82 -339 155
-296 140 -330 148 -441 110z"/>
<path d="M3137 11563 c-6 -10 16 -169 33 -238 48 -206 66 -276 102 -395 156
-530 407 -1050 676 -1405 240 -315 532 -586 854 -791 158 -100 164 -94 65 57
-85 131 -173 305 -182 364 -19 115 -35 134 -191 228 -85 51 -188 149 -214 203
-31 64 -23 129 26 202 26 40 34 59 27 72 -4 10 -57 69 -118 132 -218 224 -365
409 -562 703 -44 66 -92 141 -106 167 -25 45 -82 146 -149 263 -30 53 -95 185
-160 325 -22 47 -47 93 -55 103 -17 18 -39 22 -46 10z"/>
<path d="M15570 11403 c-168 -27 -222 -37 -279 -55 -366 -112 -621 -403 -715
-812 -20 -85 -35 -263 -39 -449 l-3 -159 47 -36 c25 -21 59 -55 75 -77 26 -35
29 -50 32 -126 5 -107 -8 -138 -80 -194 -94 -72 -98 -79 -98 -159 0 -151 -29
-239 -122 -376 -172 -251 -420 -488 -680 -649 -131 -82 -322 -181 -418 -217
-41 -15 -88 -37 -105 -50 l-30 -22 0 -203 -1 -204 -33 -85 c-48 -125 -60 -166
-54 -189 3 -13 54 -51 137 -103 234 -146 350 -242 468 -388 113 -141 190 -326
224 -543 15 -89 21 -111 39 -123 18 -12 93 -14 441 -12 l419 3 -1 51 c-2 60
-24 130 -109 349 -155 398 -234 513 -434 631 -362 216 -581 369 -581 408 0 6
35 29 78 50 249 123 587 379 854 648 135 137 298 328 384 452 126 184 211 291
249 317 49 34 192 66 375 84 342 35 729 129 1035 252 232 93 350 165 393 238
22 38 23 48 19 180 -3 85 -15 197 -30 285 -14 80 -30 199 -37 265 -17 179 -40
311 -67 395 -94 290 -300 487 -595 570 -158 44 -300 60 -523 59 -115 -1 -221
-4 -235 -6z m372 -426 c104 -51 179 -151 194 -258 13 -94 -48 -232 -138 -314
-75 -68 -129 -89 -223 -90 -72 0 -85 3 -136 33 -171 98 -252 314 -176 467 41
82 113 146 201 177 78 27 205 20 278 -15z"/>
<path d="M8018 11196 c-20 -8 -59 -27 -85 -42 -26 -15 -84 -47 -128 -72 -44
-25 -179 -107 -300 -182 -121 -75 -242 -149 -270 -165 -241 -137 -437 -272
-458 -317 -18 -38 -47 -149 -76 -293 -12 -55 -30 -140 -41 -189 -26 -117 -27
-256 -2 -279 44 -40 204 -69 752 -137 82 -10 276 -30 520 -55 201 -20 331 -33
455 -46 638 -65 742 -70 792 -39 58 35 66 64 74 285 5 110 14 301 21 425 17
302 16 357 -6 403 -22 45 -100 105 -261 200 -66 39 -140 85 -165 103 -38 27
-92 59 -185 108 -11 6 -54 33 -95 60 -41 27 -151 91 -244 143 -184 102 -228
115 -298 89z"/>
<path d="M10650 11196 c-91 -34 -443 -235 -680 -387 -47 -31 -129 -82 -183
-115 -118 -71 -237 -159 -267 -197 -34 -43 -43 -136 -30 -337 6 -96 15 -281
20 -410 5 -129 14 -252 19 -274 12 -48 65 -104 106 -112 30 -5 227 5 475 26
263 22 468 41 555 50 50 5 122 12 160 15 39 3 104 10 145 15 41 5 138 16 215
25 204 23 505 65 765 106 87 14 166 46 190 77 12 14 20 40 20 61 0 43 -23 180
-46 271 -9 36 -29 127 -45 203 -15 76 -38 158 -51 183 -37 75 -163 173 -413
322 -66 40 -169 103 -230 141 -403 254 -584 351 -648 350 -23 0 -58 -6 -77
-13z"/>
<path d="M12944 11004 c-58 -30 -150 -100 -372 -282 -305 -251 -313 -261 -293
-371 55 -292 110 -511 152 -598 20 -41 23 -43 63 -43 24 0 85 9 137 20 52 11
126 27 165 35 209 44 643 181 779 244 101 48 130 77 122 125 -10 62 -67 161
-202 350 -192 268 -404 517 -457 535 -41 14 -38 15 -94 -15z"/>
<path d="M5825 10990 c-82 -34 -533 -655 -596 -820 -10 -27 -19 -64 -19 -80 0
-28 7 -33 103 -80 144 -70 595 -215 872 -281 106 -25 120 -24 150 9 34 37 58
103 116 327 62 238 73 301 64 360 -6 41 -15 56 -74 114 -64 63 -373 328 -489
419 -54 42 -85 50 -127 32z"/>
<path d="M13785 9865 c-327 -160 -801 -299 -1420 -416 -297 -56 -293 -55 -670
-115 -369 -58 -639 -93 -865 -114 -52 -4 -149 -13 -215 -19 -914 -84 -1232
-93 -1770 -51 -71 6 -200 15 -285 20 -192 12 -367 27 -485 40 -49 5 -157 17
-240 25 -224 24 -495 57 -610 75 -33 5 -134 21 -225 35 -91 14 -232 39 -315
55 -82 17 -175 35 -205 40 -64 13 -119 24 -370 80 -328 74 -573 148 -785 240
-187 81 -240 106 -273 129 -20 15 -45 30 -55 34 -36 14 -334 -85 -416 -138
-85 -54 -111 -113 -74 -163 25 -35 272 -191 392 -249 222 -106 639 -243 1016
-332 265 -64 267 -64 430 -100 99 -22 241 -50 380 -76 50 -9 110 -20 135 -25
63 -12 333 -56 505 -81 39 -5 99 -14 135 -19 80 -12 212 -27 350 -40 58 -6
121 -12 140 -15 106 -15 628 -52 930 -66 311 -14 1089 -5 1330 15 341 30 477
42 795 76 50 5 119 12 155 15 36 4 92 10 125 15 33 5 114 16 180 25 455 60
1410 246 1725 335 19 5 78 21 130 35 282 76 475 144 763 268 237 103 359 206
342 289 -18 89 -79 132 -230 163 -105 22 -180 44 -224 67 -19 10 -44 18 -56
18 -11 -1 -87 -34 -170 -75z"/>
<path d="M12057 8659 c-32 -5 -74 -16 -93 -25 -91 -43 -172 -172 -221 -352
-25 -89 -27 -113 -28 -282 0 -193 4 -224 52 -375 55 -174 151 -331 306 -503
36 -41 69 -83 73 -94 13 -44 -6 -86 -63 -140 -115 -107 -155 -150 -146 -158 4
-5 71 -10 148 -12 138 -3 141 -4 219 -41 64 -30 95 -54 160 -120 45 -45 98
-112 120 -150 21 -37 44 -67 50 -67 6 1 38 37 70 82 105 142 247 245 391 283
119 30 295 14 416 -38 20 -9 39 -14 42 -10 12 11 -33 82 -90 143 -69 75 -141
130 -253 194 -85 49 -221 138 -335 219 -94 67 -95 72 -36 229 62 166 75 228
74 348 -2 112 -21 210 -63 317 -42 109 -84 179 -170 284 -93 113 -191 180
-345 236 -35 13 -201 45 -215 42 -3 -1 -31 -5 -63 -10z"/>
<path d="M6574 8651 c-80 -13 -184 -49 -244 -86 -127 -77 -275 -261 -349 -432
-67 -156 -75 -199 -75 -378 0 -164 7 -203 55 -347 28 -85 25 -115 -15 -153
-34 -32 -199 -137 -401 -255 -143 -83 -262 -175 -322 -250 -75 -92 -71 -103
23 -76 76 23 211 46 263 46 167 0 369 -132 499 -327 19 -29 40 -53 47 -53 6 0
34 28 62 63 215 264 439 368 663 309 41 -11 79 -16 84 -12 21 20 -10 69 -94
150 -48 47 -93 95 -99 107 -28 54 -5 96 133 250 142 158 248 346 306 542 37
128 46 233 31 375 -30 269 -121 443 -268 508 -50 22 -214 32 -299 19z"/>
<path d="M5497 8073 c-34 -104 -54 -194 -61 -273 -6 -66 -3 -77 37 -133 17
-24 17 -26 -2 -69 -12 -23 -38 -61 -59 -83 -63 -67 -74 -76 -520 -391 -85 -61
-160 -175 -265 -404 -40 -87 -126 -324 -152 -418 -23 -81 -26 -105 -16 -115
13 -13 225 -17 273 -4 22 6 29 17 42 65 38 139 71 232 108 302 117 219 202
333 326 436 63 53 323 229 423 287 25 15 63 42 84 60 l38 33 -26 114 c-53 234
-57 286 -31 450 9 56 13 111 10 123 -7 28 -119 97 -157 97 -25 0 -29 -6 -52
-77z"/>
<path d="M11345 7840 c-709 -57 -1157 -75 -1805 -74 -736 1 -1307 20 -1837 60
-239 17 -318 18 -330 2 -5 -7 -16 -46 -23 -87 -38 -223 -172 -477 -347 -661
-46 -48 -83 -93 -83 -100 0 -7 40 -54 88 -105 117 -123 182 -223 345 -525 25
-47 61 -99 79 -117 l33 -32 150 -7 c202 -9 200 -11 170 186 -28 186 -94 487
-130 595 -18 54 -105 204 -130 225 -8 7 -15 19 -15 28 0 12 9 13 48 8 26 -3
106 -13 177 -21 72 -9 186 -23 255 -31 155 -19 276 -31 450 -44 74 -5 189 -14
255 -20 620 -52 934 -51 1660 5 356 28 472 40 825 86 378 48 373 49 298 -29
-59 -61 -87 -107 -131 -217 -51 -129 -118 -393 -157 -623 -19 -110 -20 -118
-3 -129 21 -16 41 -16 99 -2 55 14 91 53 143 157 58 114 95 160 384 484 48 54
87 106 87 116 0 10 -27 44 -61 77 -201 198 -330 456 -355 711 -7 70 -17 95
-38 92 -6 0 -51 -4 -101 -8z"/>
<path d="M6590 6489 c-157 -45 -281 -168 -334 -331 -26 -80 -41 -196 -28 -215
4 -7 33 -17 63 -23 77 -15 559 -24 783 -15 163 6 191 10 207 26 22 22 18 65
-19 164 -88 240 -293 390 -547 401 -49 2 -106 -1 -125 -7z"/>
<path d="M11944 6486 c-171 -39 -306 -131 -400 -272 -92 -138 -131 -249 -101
-288 11 -15 33 -20 116 -27 149 -11 890 4 919 20 28 15 29 67 2 170 -28 110
-74 194 -147 272 -114 120 -236 159 -389 125z"/>
<path d="M5374 6479 c-99 -13 -217 -65 -285 -126 -101 -91 -239 -316 -239
-390 0 -57 2 -58 460 -61 228 -2 452 -1 498 3 122 10 139 36 108 167 -36 149
-157 314 -271 370 -68 34 -181 49 -271 37z"/>
<path d="M13185 6480 c-217 -35 -333 -152 -400 -402 -32 -118 -31 -133 2 -155
24 -16 65 -18 477 -18 248 0 463 3 478 8 19 5 30 16 35 35 15 63 -63 256 -147
360 -50 62 -158 140 -219 159 -54 17 -165 24 -226 13z"/>
</g>
</svg>
